SplineFontDB: 3.2
FontName: Gontserrat-ExtraBoldItalic
FullName: Gontserrat Extra Bold Italic
FamilyName: Gontserrat Extra Bold
Weight: Heavy
Copyright: Gontserrat is a derivative work of Montserrat under the Open Font License, version 1.1. Copyright 2020 Gabriel Classon (gabeclasson.com). Montserrat copyright 2011 The Montserrat Project Authors (https://github.com/JulietaUla/Montserrat). 
Version: 7.222
ItalicAngle: -11.3
UnderlinePosition: -100
UnderlineWidth: 50
Ascent: 800
Descent: 200
InvalidEm: 0
sfntRevision: 0x00010000
LayerCount: 2
Layer: 0 1 "Back" 1
Layer: 1 1 "Fore" 0
XUID: [1021 930 -1503615855 2804]
StyleMap: 0x0001
FSType: 0
OS2Version: 4
OS2_WeightWidthSlopeOnly: 0
OS2_UseTypoMetrics: 1
CreationTime: 1485852814
ModificationTime: 1642927575
PfmFamily: 81
TTFWeight: 800
TTFWidth: 5
LineGap: 0
VLineGap: 0
Panose: 0 0 9 0 0 0 0 0 0 0
OS2TypoAscent: 968
OS2TypoAOffset: 0
OS2TypoDescent: -251
OS2TypoDOffset: 0
OS2TypoLinegap: 0
OS2WinAscent: 1177
OS2WinAOffset: 0
OS2WinDescent: 496
OS2WinDOffset: 0
HheadAscent: 968
HheadAOffset: 0
HheadDescent: -251
HheadDOffset: 0
OS2SubXSize: 650
OS2SubYSize: 600
OS2SubXOff: -15
OS2SubYOff: 75
OS2SupXSize: 650
OS2SupYSize: 600
OS2SupXOff: 70
OS2SupYOff: 350
OS2StrikeYSize: 50
OS2StrikeYPos: 326
OS2CapHeight: 701
OS2XHeight: 544
OS2Vendor: 'ULA '
OS2CodePages: 20000193.00000000
OS2UnicodeRanges: 20000007.00000001.00000000.00000000
Lookup: 1 0 0 "'rtla' Right to Left Alternates lookup 0" { "'rtla' Right to Left Alternates lookup 0 subtable"  } ['rtla' ('DFLT' <'dflt' > ) ]
Lookup: 1 0 0 "<10,2> Inferiors lookup 1" { "<10,2> Inferiors lookup 1 subtable" ("inferior") } [<10,2> ('DFLT' <'dflt' > ) 'subs' ('DFLT' <'dflt' > ) ]
Lookup: 1 0 0 "<10,1> Superiors lookup 2" { "<10,1> Superiors lookup 2 subtable" ("superior") } [<10,1> ('DFLT' <'dflt' > ) 'sups' ('DFLT' <'dflt' > ) ]

StartChar: .notdef
Encoding: 65536 -1 0
Width: 587
Flags: W
LayerCount: 2
Fore
SplineSet
40 0 m 1,0,-1
 40 700 l 1,1,-1
 547 700 l 1,2,-1
 547 0 l 1,3,-1
 40 0 l 1,0,-1
120 70 m 1,4,-1
 467 70 l 1,5,-1
 467 630 l 1,6,-1
 120 630 l 1,7,-1
 120 70 l 1,4,-1
EndSplineSet
EndChar

StartChar: exclam
Encoding: 33 33 5
Width: 279
Flags: W
LayerCount: 2
Fore
SplineSet
323 699 m 1,0,-1
 286 517 l 1,1,-1
 198 250 l 1,2,-1
 77 250 l 1,3,-1
 94 517 l 1,4,-1
 131 699 l 1,5,-1
 323 699 l 1,0,-1
179.5 157 m 128,-1,7
 203 134 203 134 203 96 c 0,8,9
 203 51 203 51 173.5 21.5 c 128,-1,10
 144 -8 144 -8 100 -8 c 0,11,12
 61 -8 61 -8 37.5 15.5 c 128,-1,13
 14 39 14 39 14 77 c 0,14,15
 14 123 14 123 43.5 151.5 c 128,-1,16
 73 180 73 180 117 180 c 0,17,6
 156 180 156 180 179.5 157 c 128,-1,7
EndSplineSet
Substitution2: "<3,3> Small Caps in Latin lookup 11 subtable" exclam.sc
EndChar

StartChar: numbersign
Encoding: 35 35 7
Width: 697
Flags: W
LayerCount: 2
Fore
SplineSet
714 409 m 1,0,-1
 581 409 l 1,1,-1
 554 284 l 1,2,-1
 686 284 l 1,3,-1
 657 146 l 1,4,-1
 525 146 l 1,5,-1
 494 0 l 1,6,-1
 350 0 l 1,7,-1
 381 146 l 1,8,-1
 260 146 l 1,9,-1
 229 0 l 1,10,-1
 85 0 l 1,11,-1
 116 146 l 1,12,-1
 -16 146 l 1,13,-1
 13 284 l 1,14,-1
 145 284 l 1,15,-1
 172 409 l 1,16,-1
 40 409 l 1,17,-1
 69 546 l 1,18,-1
 201 546 l 1,19,-1
 234 701 l 1,20,-1
 378 701 l 1,21,-1
 345 546 l 1,22,-1
 465 546 l 1,23,-1
 498 701 l 1,24,-1
 643 701 l 1,25,-1
 610 546 l 1,26,-1
 742 546 l 1,27,-1
 714 409 l 1,0,-1
410 284 m 1,28,-1
 436 409 l 1,29,-1
 316 409 l 1,30,-1
 289 284 l 1,31,-1
 410 284 l 1,28,-1
EndSplineSet
EndChar

StartChar: dollar
Encoding: 36 36 8
Width: 642
Flags: W
LayerCount: 2
Fore
SplineSet
310.5 465 m 128,-1,1
 338 451 338 451 398 434 c 0,2,3
 465 414 465 414 508.5 395 c 128,-1,4
 552 376 552 376 583.5 337 c 128,-1,5
 615 298 615 298 615 235 c 0,6,7
 615 126 615 126 539 64.5 c 128,-1,8
 463 3 463 3 343 -6 c 1,9,-1
 312 -160 l 1,10,-1
 163 -160 l 1,11,-1
 195 4 l 1,12,13
 133 17 133 17 76.5 43 c 128,-1,14
 20 69 20 69 -22 105 c 1,15,-1
 72 262 l 1,16,17
 121 217 121 217 194 186 c 128,-1,18
 267 155 267 155 322 155 c 0,19,20
 358 155 358 155 378.5 167.5 c 128,-1,21
 399 180 399 180 399 205 c 0,22,23
 399 231 399 231 371 245.5 c 128,-1,24
 343 260 343 260 282 277 c 0,25,26
 216 295 216 295 172.5 313.5 c 128,-1,27
 129 332 129 332 97.5 369.5 c 128,-1,28
 66 407 66 407 66 468 c 0,29,30
 66 568 66 568 139 632 c 128,-1,31
 212 696 212 696 334 707 c 1,32,-1
 364 857 l 1,33,-1
 514 857 l 1,34,-1
 482 699 l 1,35,36
 590 679 590 679 664 628 c 1,37,-1
 571 468 l 1,38,39
 517 500 517 500 452.5 523.5 c 128,-1,40
 388 547 388 547 345 547 c 0,41,42
 316 547 316 547 299.5 536.5 c 128,-1,43
 283 526 283 526 283 505 c 0,44,0
 283 479 283 479 310.5 465 c 128,-1,1
EndSplineSet
EndChar

StartChar: ampersand
Encoding: 38 38 10
Width: 704
Flags: W
LayerCount: 2
Fore
SplineSet
545 -32 m 1,0,-1
 467 55 l 1,1,2
 372 -9 372 -9 268 -9 c 0,3,4
 202 -9 202 -9 150 15 c 128,-1,5
 98 39 98 39 69 82 c 128,-1,6
 40 125 40 125 40 179 c 0,7,8
 40 249 40 249 83 299 c 128,-1,9
 126 349 126 349 200 390 c 1,10,11
 181 423 181 423 173.5 452 c 128,-1,12
 166 481 166 481 166 511 c 0,13,14
 166 603 166 603 226.5 656.5 c 128,-1,15
 287 710 287 710 391 710 c 0,16,17
 480 710 480 710 534 667.5 c 128,-1,18
 588 625 588 625 588 556 c 0,19,20
 588 481 588 481 538.5 434.5 c 128,-1,21
 489 388 489 388 400 347 c 1,22,23
 430 308 430 308 472 260 c 1,24,25
 507 309 507 309 531 370 c 1,26,-1
 647 269 l 1,27,28
 615 205 615 205 571 150 c 1,29,30
 599 118 599 118 655 59 c 1,31,-1
 545 -32 l 1,0,-1
331 457 m 1,33,34
 380 483 380 483 406 506.5 c 128,-1,35
 432 530 432 530 432 560 c 0,36,37
 432 597 432 597 393 597 c 0,38,39
 361 597 361 597 340.5 571.5 c 128,-1,40
 320 546 320 546 320 509 c 0,41,32
 320 487 320 487 331 457 c 1,33,34
373 162 m 1,43,44
 313 230 313 230 272 284 c 1,45,46
 240 264 240 264 222.5 242 c 128,-1,47
 205 220 205 220 205 192 c 0,48,49
 205 165 205 165 225 148 c 128,-1,50
 245 131 245 131 278 131 c 0,51,42
 325 131 325 131 373 162 c 1,43,44
EndSplineSet
Substitution2: "<3,3> Small Caps in Latin lookup 11 subtable" ampersand.sc
EndChar

StartChar: quotesingle
Encoding: 39 39 11
Width: 271
Flags: W
LayerCount: 2
Fore
SplineSet
297 701 m 1,0,-1
 239 411 l 1,1,-1
 88 411 l 1,2,-1
 145 701 l 1,3,-1
 297 701 l 1,0,-1
EndSplineSet
Substitution2: "<3,3> Small Caps in Latin lookup 11 subtable" quotesingle.sc
EndChar

StartChar: parenleft
Encoding: 40 40 12
Width: 361
Flags: W
LayerCount: 2
Fore
SplineSet
327 527 m 128,-1,1
 271 413 271 413 247 293 c 0,2,3
 232 215 232 215 232 138 c 0,4,5
 232 -9 232 -9 282 -125 c 1,6,-1
 111 -125 l 1,7,8
 48 6 48 6 48 164 c 0,9,10
 48 245 48 245 64 325 c 0,11,12
 88 442 88 442 142.5 551 c 128,-1,13
 197 660 197 660 276 742 c 1,14,-1
 460 742 l 1,15,0
 383 641 383 641 327 527 c 128,-1,1
EndSplineSet
Substitution2: "'rtla' Right to Left Alternates lookup 0 subtable" parenright
EndChar

StartChar: parenright
Encoding: 41 41 13
Width: 366
Flags: W
LayerCount: 2
Fore
SplineSet
70 90 m 128,-1,1
 126 204 126 204 150 324 c 0,2,3
 165 402 165 402 165 479 c 0,4,5
 165 626 165 626 115 742 c 1,6,-1
 286 742 l 1,7,8
 349 611 349 611 349 453 c 0,9,10
 349 372 349 372 333 292 c 0,11,12
 309 175 309 175 254.5 66 c 128,-1,13
 200 -43 200 -43 121 -125 c 1,14,-1
 -63 -125 l 1,15,0
 14 -24 14 -24 70 90 c 128,-1,1
EndSplineSet
Substitution2: "'rtla' Right to Left Alternates lookup 0 subtable" parenleft
EndChar

StartChar: asterisk
Encoding: 42 42 14
Width: 411
Flags: W
LayerCount: 2
Fore
SplineSet
386 413 m 1,0,-1
 307 461 l 1,1,-1
 310 370 l 1,2,-1
 210 370 l 1,3,-1
 213 462 l 1,4,-1
 134 415 l 1,5,-1
 84 500 l 1,6,-1
 164 545 l 1,7,-1
 84 588 l 1,8,-1
 134 676 l 1,9,-1
 212 627 l 1,10,-1
 210 719 l 1,11,-1
 310 719 l 1,12,-1
 308 627 l 1,13,-1
 386 674 l 1,14,-1
 435 588 l 1,15,-1
 354 545 l 1,16,-1
 435 500 l 1,17,-1
 386 413 l 1,0,-1
EndSplineSet
EndChar

StartChar: plus
Encoding: 43 43 15
Width: 515
Flags: W
LayerCount: 2
Fore
SplineSet
508 391 m 1,0,-1
 483 265 l 1,1,-1
 320 265 l 1,2,-1
 287 101 l 1,3,-1
 160 101 l 1,4,-1
 193 265 l 1,5,-1
 30 265 l 1,6,-1
 55 391 l 1,7,-1
 218 391 l 1,8,-1
 251 555 l 1,9,-1
 377 555 l 1,10,-1
 344 391 l 1,11,-1
 508 391 l 1,0,-1
EndSplineSet
EndChar

StartChar: comma
Encoding: 44 44 16
Width: 246
Flags: W
LayerCount: 2
Fore
SplineSet
152 158 m 128,-1,1
 176 136 176 136 176 95 c 0,2,3
 176 56 176 56 144 13 c 2,4,-1
 44 -126 l 1,5,-1
 -51 -126 l 1,6,-1
 18 14 l 1,7,8
 -13 36 -13 36 -13 75 c 0,9,10
 -13 120 -13 120 16.5 150 c 128,-1,11
 46 180 46 180 90 180 c 0,12,0
 128 180 128 180 152 158 c 128,-1,1
EndSplineSet
EndChar

StartChar: hyphen
Encoding: 45 45 17
Width: 378
Flags: W
LayerCount: 2
Fore
SplineSet
345 371 m 1,0,-1
 320 245 l 1,1,-1
 47 245 l 1,2,-1
 72 371 l 1,3,-1
 345 371 l 1,0,-1
EndSplineSet
EndChar

StartChar: period
Encoding: 46 46 18
Width: 260
Flags: W
LayerCount: 2
Fore
SplineSet
163.5 157 m 128,-1,1
 187 134 187 134 187 96 c 0,2,3
 187 51 187 51 158 21.5 c 128,-1,4
 129 -8 129 -8 84 -8 c 0,5,6
 46 -8 46 -8 22.5 15.5 c 128,-1,7
 -1 39 -1 39 -1 77 c 0,8,9
 -1 123 -1 123 28 151.5 c 128,-1,10
 57 180 57 180 101 180 c 0,11,0
 140 180 140 180 163.5 157 c 128,-1,1
EndSplineSet
Substitution2: "<3,3> Small Caps in Latin lookup 11 subtable" period.sc
EndChar

StartChar: slash
Encoding: 47 47 19
Width: 405
Flags: W
LayerCount: 2
Fore
SplineSet
503 808 m 1,0,-1
 103 -107 l 1,1,-1
 -66 -107 l 1,2,-1
 334 808 l 1,3,-1
 503 808 l 1,0,-1
EndSplineSet
Substitution2: "<11,2> Diagonal Fractions lookup 3 subtable" fraction
EndChar

StartChar: zero
Encoding: 48 48 20
Width: 753
Flags: W
LayerCount: 2
Fore
SplineSet
654 638 m 128,-1,1
 720 569 720 569 720 440 c 0,2,3
 720 306 720 306 672.5 205 c 128,-1,4
 625 104 625 104 536 48.5 c 128,-1,5
 447 -7 447 -7 324 -7 c 0,6,7
 197 -7 197 -7 131 63 c 128,-1,8
 65 133 65 133 65 262 c 0,9,10
 65 396 65 396 112 496.5 c 128,-1,11
 159 597 159 597 248.5 652 c 128,-1,12
 338 707 338 707 463 707 c 256,13,0
 588 707 588 707 654 638 c 128,-1,1
319 487 m 128,-1,15
 276 418 276 418 276 259 c 0,16,17
 276 199 276 199 294.5 172 c 128,-1,18
 313 145 313 145 353 145 c 0,19,20
 423 145 423 145 466 214 c 128,-1,21
 509 283 509 283 509 442 c 0,22,23
 509 501 509 501 490.5 528.5 c 128,-1,24
 472 556 472 556 433 556 c 0,25,14
 362 556 362 556 319 487 c 128,-1,15
EndSplineSet
Substitution2: "<21,0> Lower Case Numbers lookup 10 subtable" zero.osf
Substitution2: "<6,0> Monospaced Numbers lookup 9 subtable" zero.tf
Substitution2: "<11,2> Diagonal Fractions lookup 4 subtable" zero.numr
Substitution2: "<10,1> Superiors lookup 2 subtable" uni2070
Substitution2: "<10,2> Inferiors lookup 1 subtable" uni2080
EndChar

StartChar: one
Encoding: 49 49 21
Width: 463
Flags: W
LayerCount: 2
Fore
SplineSet
117 701 m 1,0,-1
 453 701 l 1,1,-1
 317 0 l 1,2,-1
 109 0 l 1,3,-1
 213 535 l 1,4,-1
 85 535 l 1,5,-1
 117 701 l 1,0,-1
EndSplineSet
Substitution2: "<21,0> Lower Case Numbers lookup 10 subtable" one.osf
Substitution2: "<6,0> Monospaced Numbers lookup 9 subtable" one.tf
Substitution2: "<11,2> Diagonal Fractions lookup 4 subtable" one.numr
Substitution2: "<10,1> Superiors lookup 2 subtable" uni00B9
Substitution2: "<10,2> Inferiors lookup 1 subtable" uni2081
EndChar

StartChar: two
Encoding: 50 50 22
Width: 658
Flags: W
LayerCount: 2
Fore
SplineSet
594 426.5 m 128,-1,1
 546 364 546 364 456 288 c 2,2,-1
 306 162 l 1,3,-1
 584 162 l 1,4,-1
 552 0 l 1,5,-1
 10 0 l 1,6,-1
 35 133 l 1,7,-1
 335 391 l 2,8,9
 370 421 370 421 392.5 449.5 c 128,-1,10
 415 478 415 478 416 499 c 0,11,12
 418 519 418 519 403.5 530.5 c 128,-1,13
 389 542 389 542 361 542 c 0,14,15
 320 542 320 542 264.5 518.5 c 128,-1,16
 209 495 209 495 152 453 c 1,17,-1
 103 603 l 1,18,19
 278 710 278 710 425 710 c 0,20,21
 523 710 523 710 582.5 666.5 c 128,-1,22
 642 623 642 623 642 551 c 0,23,0
 642 489 642 489 594 426.5 c 128,-1,1
EndSplineSet
Substitution2: "<21,0> Lower Case Numbers lookup 10 subtable" two.osf
Substitution2: "<6,0> Monospaced Numbers lookup 9 subtable" two.tf
Substitution2: "<11,2> Diagonal Fractions lookup 4 subtable" two.numr
Substitution2: "<10,1> Superiors lookup 2 subtable" uni00B2
Substitution2: "<10,2> Inferiors lookup 1 subtable" uni2082
EndChar

StartChar: three
Encoding: 51 51 23
Width: 655
Flags: W
LayerCount: 2
Fore
SplineSet
633 583 m 1,0,-1
 424 423 l 1,1,-1
 458 416 l 2,2,3
 524 404 524 404 563 361.5 c 128,-1,4
 602 319 602 319 602 255 c 0,5,6
 602 181 602 181 558.5 120.5 c 128,-1,7
 515 60 515 60 438 25.5 c 128,-1,8
 361 -9 361 -9 264 -9 c 0,9,10
 186 -9 186 -9 114 15.5 c 128,-1,11
 42 40 42 40 -3 80 c 1,12,-1
 99 222 l 1,13,14
 177 146 177 146 277 146 c 0,15,16
 334 146 334 146 365 169.5 c 128,-1,17
 396 193 396 193 396 235 c 0,18,19
 396 264 396 264 373 280 c 128,-1,20
 350 296 350 296 307 296 c 2,21,-1
 182 296 l 1,22,-1
 203 405 l 1,23,-1
 380 549 l 1,24,-1
 125 549 l 1,25,-1
 154 702 l 1,26,-1
 656 702 l 1,27,-1
 633 583 l 1,0,-1
EndSplineSet
Substitution2: "<21,0> Lower Case Numbers lookup 10 subtable" three.osf
Substitution2: "<6,0> Monospaced Numbers lookup 9 subtable" three.tf
Substitution2: "<11,2> Diagonal Fractions lookup 4 subtable" three.numr
Substitution2: "<10,1> Superiors lookup 2 subtable" uni00B3
Substitution2: "<10,2> Inferiors lookup 1 subtable" uni2083
EndChar

StartChar: four
Encoding: 52 52 24
Width: 660
Flags: W
LayerCount: 2
Fore
SplineSet
628 295 m 1,0,-1
 598 143 l 1,1,-1
 514 143 l 1,2,-1
 486 0 l 1,3,-1
 296 0 l 1,4,-1
 324 143 l 1,5,-1
 16 143 l 1,6,-1
 43 280 l 1,7,-1
 308 701 l 1,8,-1
 505 701 l 1,9,-1
 253 295 l 1,10,-1
 353 295 l 1,11,-1
 381 437 l 1,12,-1
 571 437 l 1,13,-1
 543 295 l 1,14,-1
 628 295 l 1,0,-1
EndSplineSet
Substitution2: "<21,0> Lower Case Numbers lookup 10 subtable" four.osf
Substitution2: "<6,0> Monospaced Numbers lookup 9 subtable" four.tf
Substitution2: "<11,2> Diagonal Fractions lookup 4 subtable" four.numr
Substitution2: "<10,1> Superiors lookup 2 subtable" uni2074
Substitution2: "<10,2> Inferiors lookup 1 subtable" uni2084
EndChar

StartChar: five
Encoding: 53 53 25
Width: 668
Flags: W
LayerCount: 2
Fore
SplineSet
343 539 m 1,0,-1
 326 448 l 1,1,-1
 372 448 l 2,2,3
 483 448 483 448 547 399 c 128,-1,4
 611 350 611 350 611 268 c 0,5,6
 611 189 611 189 567 126 c 128,-1,7
 523 63 523 63 445 27 c 128,-1,8
 367 -9 367 -9 268 -9 c 0,9,10
 196 -9 196 -9 123.5 15.5 c 128,-1,11
 51 40 51 40 1 81 c 1,12,-1
 105 225 l 1,13,14
 186 146 186 146 274 146 c 0,15,16
 325 146 325 146 354 170 c 128,-1,17
 383 194 383 194 383 235 c 0,18,19
 383 293 383 293 300 293 c 0,20,21
 190 293 190 293 104 291 c 1,22,-1
 184 701 l 1,23,-1
 665 701 l 1,24,-1
 634 539 l 1,25,-1
 343 539 l 1,0,-1
EndSplineSet
Substitution2: "<21,0> Lower Case Numbers lookup 10 subtable" five.osf
Substitution2: "<6,0> Monospaced Numbers lookup 9 subtable" five.tf
Substitution2: "<11,2> Diagonal Fractions lookup 4 subtable" five.numr
Substitution2: "<10,1> Superiors lookup 2 subtable" uni2075
Substitution2: "<10,2> Inferiors lookup 1 subtable" uni2085
EndChar

StartChar: six
Encoding: 54 54 26
Width: 675
Flags: W
LayerCount: 2
Fore
SplineSet
125 62.5 m 128,-1,1
 61 134 61 134 61 259 c 0,2,3
 61 388 61 388 114 490.5 c 128,-1,4
 167 593 167 593 260 651.5 c 128,-1,5
 353 710 353 710 468 710 c 0,6,7
 529 710 529 710 588 694 c 128,-1,8
 647 678 647 678 685 650 c 1,9,-1
 581 511 l 1,10,11
 532 557 532 557 450 557 c 0,12,13
 377 557 377 557 331.5 515 c 128,-1,14
 286 473 286 473 272 397 c 1,15,16
 302 429 302 429 344 446.5 c 128,-1,17
 386 464 386 464 438 464 c 0,18,19
 524 464 524 464 573 414 c 128,-1,20
 622 364 622 364 622 280 c 256,21,22
 622 196 622 196 581 130 c 128,-1,23
 540 64 540 64 467.5 27.5 c 128,-1,24
 395 -9 395 -9 306 -9 c 0,25,0
 189 -9 189 -9 125 62.5 c 128,-1,1
405.5 178 m 128,-1,27
 433 206 433 206 433 254 c 0,28,29
 433 285 433 285 415.5 302 c 128,-1,30
 398 319 398 319 365 319 c 0,31,32
 317 319 317 319 289 292 c 128,-1,33
 261 265 261 265 259 221 c 0,34,35
 257 189 257 189 274.5 169.5 c 128,-1,36
 292 150 292 150 329 150 c 0,37,26
 378 150 378 150 405.5 178 c 128,-1,27
EndSplineSet
Substitution2: "<21,0> Lower Case Numbers lookup 10 subtable" six.osf
Substitution2: "<6,0> Monospaced Numbers lookup 9 subtable" six.tf
Substitution2: "<11,2> Diagonal Fractions lookup 4 subtable" six.numr
Substitution2: "<10,1> Superiors lookup 2 subtable" uni2076
Substitution2: "<10,2> Inferiors lookup 1 subtable" uni2086
EndChar

StartChar: seven
Encoding: 55 55 27
Width: 648
Flags: W
LayerCount: 2
Fore
SplineSet
129 701 m 1,0,-1
 698 701 l 1,1,-1
 671 561 l 1,2,-1
 310 0 l 1,3,-1
 90 0 l 1,4,-1
 437 539 l 1,5,-1
 281 539 l 1,6,-1
 262 441 l 1,7,-1
 79 441 l 1,8,-1
 129 701 l 1,0,-1
EndSplineSet
Substitution2: "<21,0> Lower Case Numbers lookup 10 subtable" seven.osf
Substitution2: "<6,0> Monospaced Numbers lookup 9 subtable" seven.tf
Substitution2: "<11,2> Diagonal Fractions lookup 4 subtable" seven.numr
Substitution2: "<10,1> Superiors lookup 2 subtable" uni2077
Substitution2: "<10,2> Inferiors lookup 1 subtable" uni2087
EndChar

StartChar: eight
Encoding: 56 56 28
Width: 671
Flags: W
LayerCount: 2
Fore
SplineSet
580.5 666 m 128,-1,1
 639 622 639 622 639 547 c 0,2,3
 639 496 639 496 609 450 c 128,-1,4
 579 404 579 404 531 375 c 1,5,6
 569 354 569 354 591 314 c 128,-1,7
 613 274 613 274 613 228 c 0,8,9
 613 158 613 158 571 104.5 c 128,-1,10
 529 51 529 51 453.5 21 c 128,-1,11
 378 -9 378 -9 281 -9 c 0,12,13
 164 -9 164 -9 96.5 38.5 c 128,-1,14
 29 86 29 86 29 165 c 0,15,16
 29 231 29 231 74 288 c 128,-1,17
 119 345 119 345 191 375 c 1,18,19
 162 396 162 396 146 429.5 c 128,-1,20
 130 463 130 463 130 500 c 0,21,22
 130 561 130 561 167 608.5 c 128,-1,23
 204 656 204 656 270 683 c 128,-1,24
 336 710 336 710 419 710 c 0,25,0
 522 710 522 710 580.5 666 c 128,-1,1
325 552.5 m 128,-1,27
 301 531 301 531 301 493 c 0,28,29
 301 441 301 441 368 441 c 0,30,31
 413 441 413 441 437 461.5 c 128,-1,32
 461 482 461 482 461 520 c 0,33,34
 461 574 461 574 394 574 c 0,35,26
 349 574 349 574 325 552.5 c 128,-1,27
258.5 268.5 m 128,-1,37
 230 244 230 244 230 201 c 0,38,39
 230 171 230 171 250.5 155.5 c 128,-1,40
 271 140 271 140 310 140 c 0,41,42
 363 140 363 140 392 164 c 128,-1,43
 421 188 421 188 421 231 c 0,44,45
 421 260 421 260 400 276.5 c 128,-1,46
 379 293 379 293 340 293 c 0,47,36
 287 293 287 293 258.5 268.5 c 128,-1,37
EndSplineSet
Substitution2: "<21,0> Lower Case Numbers lookup 10 subtable" eight.osf
Substitution2: "<6,0> Monospaced Numbers lookup 9 subtable" eight.tf
Substitution2: "<11,2> Diagonal Fractions lookup 4 subtable" eight.numr
Substitution2: "<10,1> Superiors lookup 2 subtable" uni2078
Substitution2: "<10,2> Inferiors lookup 1 subtable" uni2088
EndChar

StartChar: nine
Encoding: 57 57 29
Width: 674
Flags: W
LayerCount: 2
Fore
SplineSet
255 145 m 0,1,2
 328 145 328 145 374 186 c 128,-1,3
 420 227 420 227 434 304 c 1,4,5
 367 237 367 237 267 237 c 0,6,7
 183 237 183 237 134.5 287 c 128,-1,8
 86 337 86 337 86 421 c 0,9,10
 86 506 86 506 126.5 571.5 c 128,-1,11
 167 637 167 637 238.5 673.5 c 128,-1,12
 310 710 310 710 400 710 c 0,13,14
 517 710 517 710 581 638.5 c 128,-1,15
 645 567 645 567 645 442 c 0,16,17
 645 313 645 313 592 210.5 c 128,-1,18
 539 108 539 108 446 49.5 c 128,-1,19
 353 -9 353 -9 237 -9 c 0,20,21
 177 -9 177 -9 118.5 7 c 128,-1,22
 60 23 60 23 21 51 c 1,23,-1
 124 190 l 1,24,0
 172 145 172 145 255 145 c 0,1,2
301 523 m 128,-1,26
 274 495 274 495 274 447 c 0,27,28
 274 383 274 383 342 383 c 0,29,30
 390 383 390 383 417.5 410 c 128,-1,31
 445 437 445 437 447 481 c 0,32,33
 449 512 449 512 431.5 531.5 c 128,-1,34
 414 551 414 551 376 551 c 0,35,25
 328 551 328 551 301 523 c 128,-1,26
EndSplineSet
Substitution2: "<21,0> Lower Case Numbers lookup 10 subtable" nine.osf
Substitution2: "<6,0> Monospaced Numbers lookup 9 subtable" nine.tf
Substitution2: "<11,2> Diagonal Fractions lookup 4 subtable" nine.numr
Substitution2: "<10,1> Superiors lookup 2 subtable" uni2079
Substitution2: "<10,2> Inferiors lookup 1 subtable" uni2089
EndChar

StartChar: less
Encoding: 60 60 32
Width: 518
Flags: W
LayerCount: 2
Fore
SplineSet
548 589 m 1,0,-1
 520 439 l 1,1,-1
 172 318 l 1,2,-1
 469 189 l 1,3,-1
 444 58 l 1,4,-1
 28 243 l 1,5,-1
 58 404 l 1,6,-1
 548 589 l 1,0,-1
EndSplineSet
Substitution2: "'rtla' Right to Left Alternates lookup 0 subtable" greater
EndChar

StartChar: equal
Encoding: 61 61 33
Width: 516
Flags: W
LayerCount: 2
Fore
SplineSet
530 500 m 1,0,-1
 505 374 l 1,1,-1
 52 374 l 1,2,-1
 77 500 l 1,3,-1
 530 500 l 1,0,-1
487 282 m 1,4,-1
 461 156 l 1,5,-1
 8 156 l 1,6,-1
 33 282 l 1,7,-1
 487 282 l 1,4,-1
EndSplineSet
EndChar

StartChar: greater
Encoding: 62 62 34
Width: 518
Flags: W
LayerCount: 2
Fore
SplineSet
-7 67 m 1,0,-1
 21 217 l 1,1,-1
 369 338 l 1,2,-1
 72 467 l 1,3,-1
 97 598 l 1,4,-1
 513 413 l 1,5,-1
 483 252 l 1,6,-1
 -7 67 l 1,0,-1
EndSplineSet
Substitution2: "'rtla' Right to Left Alternates lookup 0 subtable" less
EndChar

StartChar: question
Encoding: 63 63 35
Width: 484
Flags: W
LayerCount: 2
Fore
SplineSet
125.5 643 m 128,-1,1
 196 707 196 707 308 707 c 0,2,3
 405 707 405 707 459 665 c 128,-1,4
 513 623 513 623 513 547 c 0,5,6
 513 505 513 505 498.5 472.5 c 128,-1,7
 484 440 484 440 463.5 416.5 c 128,-1,8
 443 393 443 393 409 363 c 0,9,10
 370 327 370 327 350 302.5 c 128,-1,11
 330 278 330 278 326 245 c 1,12,-1
 176 245 l 1,13,14
 183 303 183 303 206 338.5 c 128,-1,15
 229 374 229 374 267 410 c 0,16,17
 295 437 295 437 308.5 457 c 128,-1,18
 322 477 322 477 322 504 c 0,19,20
 322 548 322 548 272 548 c 0,21,22
 239 548 239 548 220.5 527.5 c 128,-1,23
 202 507 202 507 196 464 c 1,24,-1
 41 464 l 1,25,0
 55 579 55 579 125.5 643 c 128,-1,1
305.5 157 m 128,-1,27
 329 134 329 134 329 96 c 0,28,29
 329 51 329 51 300 21.5 c 128,-1,30
 271 -8 271 -8 226 -8 c 0,31,32
 188 -8 188 -8 164.5 15.5 c 128,-1,33
 141 39 141 39 141 77 c 0,34,35
 141 123 141 123 170 151.5 c 128,-1,36
 199 180 199 180 243 180 c 0,37,26
 282 180 282 180 305.5 157 c 128,-1,27
EndSplineSet
Substitution2: "<3,3> Small Caps in Latin lookup 11 subtable" question.sc
EndChar

StartChar: at
Encoding: 64 64 36
Width: 892
Flags: W
LayerCount: 2
Fore
SplineSet
701.5 651.5 m 128,-1,1
 784 604 784 604 830 520 c 128,-1,2
 876 436 876 436 876 330 c 0,3,4
 876 242 876 242 845 174 c 128,-1,5
 814 106 814 106 761.5 68.5 c 128,-1,6
 709 31 709 31 646 31 c 0,7,8
 599 31 599 31 571 49.5 c 128,-1,9
 543 68 543 68 539 106 c 2,10,-1
 538 116 l 1,11,12
 506 77 506 77 467 59 c 128,-1,13
 428 41 428 41 387 41 c 0,14,15
 338 41 338 41 296 66 c 128,-1,16
 254 91 254 91 229 136.5 c 128,-1,17
 204 182 204 182 204 241 c 0,18,19
 204 309 204 309 234.5 369.5 c 128,-1,20
 265 430 265 430 319 467 c 128,-1,21
 373 504 373 504 438 504 c 0,22,23
 472 504 472 504 497.5 492 c 128,-1,24
 523 480 523 480 537.5 466 c 128,-1,25
 552 452 552 452 554 446 c 1,26,-1
 561 492 l 1,27,-1
 690 492 l 1,28,-1
 643 162 l 2,29,30
 642 157 642 157 642 148 c 0,31,32
 642 116 642 116 670 116 c 0,33,34
 693 116 693 116 717 142.5 c 128,-1,35
 741 169 741 169 757 216 c 128,-1,36
 773 263 773 263 773 321 c 0,37,38
 773 402 773 402 741.5 466 c 128,-1,39
 710 530 710 530 648 567 c 128,-1,40
 586 604 586 604 499 604 c 0,41,42
 402 604 402 604 314.5 552.5 c 128,-1,43
 227 501 227 501 174 414.5 c 128,-1,44
 121 328 121 328 121 228 c 0,45,46
 121 148 121 148 155.5 84.5 c 128,-1,47
 190 21 190 21 252.5 -15 c 128,-1,48
 315 -51 315 -51 395 -51 c 0,49,50
 441 -51 441 -51 493.5 -35.5 c 128,-1,51
 546 -20 546 -20 590 11 c 1,52,-1
 627 -72 l 1,53,54
 580 -106 580 -106 510.5 -126.5 c 128,-1,55
 441 -147 441 -147 381 -147 c 0,56,57
 275 -147 275 -147 192 -100 c 128,-1,58
 109 -53 109 -53 62.5 29.5 c 128,-1,59
 16 112 16 112 16 216 c 0,60,61
 16 346 16 346 85.5 457.5 c 128,-1,62
 155 569 155 569 269.5 634 c 128,-1,63
 384 699 384 699 513 699 c 0,64,0
 619 699 619 699 701.5 651.5 c 128,-1,1
377 346.5 m 128,-1,66
 348 308 348 308 348 255 c 0,67,68
 348 213 348 213 366.5 185 c 128,-1,69
 385 157 385 157 417 157 c 0,70,71
 463 157 463 157 493 198 c 128,-1,72
 523 239 523 239 523 294 c 0,73,74
 523 334 523 334 503.5 359.5 c 128,-1,75
 484 385 484 385 448 385 c 0,76,65
 406 385 406 385 377 346.5 c 128,-1,66
EndSplineSet
EndChar

StartChar: A
Encoding: 65 65 37
Width: 786
Flags: W
LayerCount: 2
Fore
SplineSet
516 0 m 1,0,-1
 494 112 l 1,1,-1
 211 112 l 1,2,-1
 150 0 l 1,3,-1
 -62 0 l 1,4,-1
 352 701 l 1,5,-1
 566 701 l 1,6,-1
 739 0 l 1,7,-1
 516 0 l 1,0,-1
294 264 m 1,8,-1
 464 264 l 1,9,-1
 419 495 l 1,10,-1
 294 264 l 1,8,-1
EndSplineSet
Substitution2: "<11,2> Diagonal Fractions lookup 7 nested-substitutions 0 subtable" ordfeminine
Substitution2: "<11,2> Diagonal Fractions lookup 5 nested-substitutions 0 subtable" ordfeminine
EndChar

StartChar: B
Encoding: 66 66 38
Width: 721
Flags: W
LayerCount: 2
Fore
SplineSet
654 322 m 128,-1,1
 683 283 683 283 683 228 c 0,2,3
 683 160 683 160 642.5 108.5 c 128,-1,4
 602 57 602 57 529 28.5 c 128,-1,5
 456 0 456 0 363 0 c 2,6,-1
 4 0 l 1,7,-1
 144 701 l 1,8,-1
 489 701 l 2,9,10
 599 701 599 701 662.5 660 c 128,-1,11
 726 619 726 619 726 549 c 0,12,13
 726 489 726 489 683.5 440 c 128,-1,14
 641 391 641 391 573 373 c 1,15,0
 625 361 625 361 654 322 c 128,-1,1
479.5 446 m 128,-1,17
 502 466 502 466 502 498 c 0,18,19
 502 521 502 521 487.5 533 c 128,-1,20
 473 545 473 545 446 545 c 2,21,-1
 320 545 l 1,22,-1
 297 426 l 1,23,-1
 422 426 l 2,24,16
 457 426 457 426 479.5 446 c 128,-1,17
441 176.5 m 128,-1,26
 469 197 469 197 469 231 c 0,27,28
 469 255 469 255 449 269 c 128,-1,29
 429 283 429 283 393 283 c 2,30,-1
 268 283 l 1,31,-1
 243 156 l 1,32,-1
 368 156 l 2,33,25
 413 156 413 156 441 176.5 c 128,-1,26
EndSplineSet
EndChar

StartChar: C
Encoding: 67 67 39
Width: 716
Flags: W
LayerCount: 2
Fore
SplineSet
607 680 m 128,-1,1
 682 646 682 646 731 589 c 1,2,-1
 595 446 l 1,3,4
 566 490 566 490 523.5 515.5 c 128,-1,5
 481 541 481 541 438 541 c 0,6,7
 388 541 388 541 345 514 c 128,-1,8
 302 487 302 487 276.5 440 c 128,-1,9
 251 393 251 393 251 336 c 0,10,11
 251 288 251 288 270 250 c 128,-1,12
 289 212 289 212 323.5 190 c 128,-1,13
 358 168 358 168 401 168 c 0,14,15
 442 168 442 168 489.5 190.5 c 128,-1,16
 537 213 537 213 576 250 c 1,17,-1
 683 122 l 1,18,19
 620 60 620 60 535.5 23 c 128,-1,20
 451 -14 451 -14 372 -14 c 0,21,22
 274 -14 274 -14 198 29 c 128,-1,23
 122 72 122 72 79.5 147.5 c 128,-1,24
 37 223 37 223 37 319 c 0,25,26
 37 430 37 430 92.5 520.5 c 128,-1,27
 148 611 148 611 243.5 662.5 c 128,-1,28
 339 714 339 714 453 714 c 0,29,0
 532 714 532 714 607 680 c 128,-1,1
EndSplineSet
EndChar

StartChar: D
Encoding: 68 68 40
Width: 764
Flags: W
LayerCount: 2
Fore
SplineSet
616 661.5 m 128,-1,1
 692 622 692 622 730.5 550.5 c 128,-1,2
 769 479 769 479 764 385 c 0,3,4
 758 272 758 272 699.5 184.5 c 128,-1,5
 641 97 641 97 542.5 48.5 c 128,-1,6
 444 0 444 0 322 0 c 2,7,-1
 5 0 l 1,8,-1
 144 701 l 1,9,-1
 436 701 l 2,10,0
 540 701 540 701 616 661.5 c 128,-1,1
514.5 491 m 128,-1,12
 475 537 475 537 406 537 c 2,13,-1
 320 537 l 1,14,-1
 246 163 l 1,15,-1
 360 163 l 2,16,17
 411 163 411 163 453 189 c 128,-1,18
 495 215 495 215 521 262 c 128,-1,19
 547 309 547 309 550 370 c 0,20,11
 554 445 554 445 514.5 491 c 128,-1,12
EndSplineSet
EndChar

StartChar: E
Encoding: 69 69 41
Width: 683
Flags: W
LayerCount: 2
Fore
SplineSet
686 541 m 1,0,-1
 320 541 l 1,1,-1
 298 431 l 1,2,-1
 630 431 l 1,3,-1
 598 271 l 1,4,-1
 266 271 l 1,5,-1
 243 160 l 1,6,-1
 619 160 l 1,7,-1
 587 0 l 1,8,-1
 4 0 l 1,9,-1
 144 701 l 1,10,-1
 718 701 l 1,11,-1
 686 541 l 1,0,-1
EndSplineSet
EndChar

StartChar: F
Encoding: 70 70 42
Width: 619
Flags: W
LayerCount: 2
Fore
SplineSet
656 541 m 1,0,-1
 320 541 l 1,1,-1
 292 401 l 1,2,-1
 605 401 l 1,3,-1
 573 241 l 1,4,-1
 260 241 l 1,5,-1
 212 0 l 1,6,-1
 4 0 l 1,7,-1
 144 701 l 1,8,-1
 688 701 l 1,9,-1
 656 541 l 1,0,-1
EndSplineSet
EndChar

StartChar: G
Encoding: 71 71 43
Width: 748
Flags: W
LayerCount: 2
Fore
SplineSet
456 420 m 1,0,-1
 754 420 l 1,1,-1
 685 78 l 1,2,3
 622 37 622 37 537.5 11.5 c 128,-1,4
 453 -14 453 -14 380 -14 c 0,5,6
 280 -14 280 -14 202 29 c 128,-1,7
 124 72 124 72 80.5 147.5 c 128,-1,8
 37 223 37 223 37 318 c 0,9,10
 37 429 37 429 94 519.5 c 128,-1,11
 151 610 151 610 249.5 662 c 128,-1,12
 348 714 348 714 467 714 c 0,13,14
 547 714 547 714 619 685 c 128,-1,15
 691 656 691 656 742 606 c 1,16,-1
 610 464 l 1,17,18
 577 499 577 499 535.5 520 c 128,-1,19
 494 541 494 541 448 541 c 0,20,21
 395 541 395 541 349.5 513.5 c 128,-1,22
 304 486 304 486 277.5 438 c 128,-1,23
 251 390 251 390 251 333 c 0,24,25
 251 284 251 284 271.5 244 c 128,-1,26
 292 204 292 204 329 181.5 c 128,-1,27
 366 159 366 159 412 159 c 0,28,29
 456 159 456 159 518 186 c 1,30,-1
 527 232 l 1,31,-1
 419 232 l 1,32,-1
 456 420 l 1,0,-1
EndSplineSet
EndChar

StartChar: H
Encoding: 72 72 44
Width: 860
Flags: W
LayerCount: 2
Fore
SplineSet
640 701 m 1,0,-1
 848 701 l 1,1,-1
 708 0 l 1,2,-1
 500 0 l 1,3,-1
 552 261 l 1,4,-1
 303 261 l 1,5,-1
 251 0 l 1,6,-1
 43 0 l 1,7,-1
 183 701 l 1,8,-1
 391 701 l 1,9,-1
 335 421 l 1,10,-1
 584 421 l 1,11,-1
 640 701 l 1,0,-1
EndSplineSet
EndChar

StartChar: I
Encoding: 73 73 45
Width: 326
Flags: W
LayerCount: 2
Fore
SplineSet
352 701 m 1,0,-1
 212 0 l 1,1,-1
 4 0 l 1,2,-1
 144 701 l 1,3,-1
 352 701 l 1,0,-1
EndSplineSet
EndChar

StartChar: J
Encoding: 74 74 46
Width: 555
Flags: W
LayerCount: 2
Fore
SplineSet
593 701 m 1,0,-1
 499 232 l 2,1,2
 477 118 477 118 395.5 54.5 c 128,-1,3
 314 -9 314 -9 197 -9 c 0,4,5
 42 -9 42 -9 -39 108 c 1,6,-1
 83 245 l 1,7,8
 113 206 113 206 148.5 186 c 128,-1,9
 184 166 184 166 214 166 c 0,10,11
 243 166 243 166 263.5 184 c 128,-1,12
 284 202 284 202 291 237 c 2,13,-1
 350 535 l 1,14,-1
 111 535 l 1,15,-1
 145 701 l 1,16,-1
 593 701 l 1,0,-1
EndSplineSet
EndChar

StartChar: K
Encoding: 75 75 47
Width: 758
Flags: W
LayerCount: 2
Fore
SplineSet
832 701 m 1,0,-1
 517 407 l 1,1,-1
 700 0 l 1,2,-1
 458 0 l 1,3,-1
 349 250 l 1,4,-1
 242 150 l 1,5,-1
 212 0 l 1,6,-1
 4 0 l 1,7,-1
 144 701 l 1,8,-1
 352 701 l 1,9,-1
 296 421 l 1,10,-1
 583 701 l 1,11,-1
 832 701 l 1,0,-1
EndSplineSet
EndChar

StartChar: L
Encoding: 76 76 48
Width: 574
Flags: W
LayerCount: 2
Fore
SplineSet
247 174 m 1,0,-1
 542 174 l 1,1,-1
 507 0 l 1,2,-1
 4 0 l 1,3,-1
 144 701 l 1,4,-1
 352 701 l 1,5,-1
 247 174 l 1,0,-1
EndSplineSet
EndChar

StartChar: M
Encoding: 77 77 49
Width: 942
Flags: W
LayerCount: 2
Fore
SplineSet
743 701 m 1,0,-1
 965 701 l 1,1,-1
 829 0 l 1,2,-1
 647 0 l 1,3,-1
 728 417 l 1,4,-1
 499 69 l 1,5,-1
 365 69 l 1,6,-1
 272 418 l 1,7,-1
 191 0 l 1,8,-1
 8 0 l 1,9,-1
 144 701 l 1,10,-1
 366 701 l 1,11,-1
 479 310 l 1,12,-1
 743 701 l 1,0,-1
EndSplineSet
EndChar

StartChar: N
Encoding: 78 78 50
Width: 783
Flags: W
LayerCount: 2
Fore
SplineSet
619 701 m 1,0,-1
 810 701 l 1,1,-1
 670 0 l 1,2,-1
 492 0 l 1,3,-1
 274 389 l 1,4,-1
 196 0 l 1,5,-1
 4 0 l 1,6,-1
 144 701 l 1,7,-1
 322 701 l 1,8,-1
 541 309 l 1,9,-1
 619 701 l 1,0,-1
EndSplineSet
EndChar

StartChar: O
Encoding: 79 79 51
Width: 809
Flags: W
LayerCount: 2
Fore
SplineSet
638 671.5 m 128,-1,1
 717 629 717 629 761 554 c 128,-1,2
 805 479 805 479 805 384 c 0,3,4
 805 273 805 273 749 182 c 128,-1,5
 693 91 693 91 596.5 38.5 c 128,-1,6
 500 -14 500 -14 384 -14 c 0,7,8
 283 -14 283 -14 204 29 c 128,-1,9
 125 72 125 72 81 147.5 c 128,-1,10
 37 223 37 223 37 319 c 0,11,12
 37 430 37 430 93 520.5 c 128,-1,13
 149 611 149 611 245.5 662.5 c 128,-1,14
 342 714 342 714 458 714 c 0,15,0
 559 714 559 714 638 671.5 c 128,-1,1
349.5 513.5 m 128,-1,17
 305 486 305 486 278 438 c 128,-1,18
 251 390 251 390 251 333 c 0,19,20
 251 284 251 284 271.5 244.5 c 128,-1,21
 292 205 292 205 327 182 c 128,-1,22
 362 159 362 159 404 159 c 0,23,24
 454 159 454 159 497 187 c 128,-1,25
 540 215 540 215 565.5 263.5 c 128,-1,26
 591 312 591 312 591 370 c 0,27,28
 591 418 591 418 572 457 c 128,-1,29
 553 496 553 496 519 518.5 c 128,-1,30
 485 541 485 541 443 541 c 0,31,16
 394 541 394 541 349.5 513.5 c 128,-1,17
EndSplineSet
Substitution2: "<11,2> Diagonal Fractions lookup 7 nested-substitutions 0 subtable" ordmasculine
Substitution2: "<11,2> Diagonal Fractions lookup 5 nested-substitutions 0 subtable" ordmasculine
EndChar

StartChar: P
Encoding: 80 80 52
Width: 696
Flags: W
LayerCount: 2
Fore
SplineSet
641.5 649 m 128,-1,1
 704 597 704 597 704 502 c 0,2,3
 704 408 704 408 662.5 337 c 128,-1,4
 621 266 621 266 543 227 c 128,-1,5
 465 188 465 188 360 188 c 2,6,-1
 250 188 l 1,7,-1
 212 0 l 1,8,-1
 4 0 l 1,9,-1
 144 701 l 1,10,-1
 463 701 l 2,11,0
 579 701 579 701 641.5 649 c 128,-1,1
469.5 381 m 128,-1,13
 502 413 502 413 502 467 c 0,14,15
 502 503 502 503 481 522 c 128,-1,16
 460 541 460 541 420 541 c 2,17,-1
 320 541 l 1,18,-1
 282 349 l 1,19,-1
 382 349 l 2,20,12
 437 349 437 349 469.5 381 c 128,-1,13
EndSplineSet
EndChar

StartChar: Q
Encoding: 81 81 53
Width: 812
Flags: W
LayerCount: 2
Fore
SplineSet
677.5 -6.5 m 128,-1,1
 708 6 708 6 750 31 c 1,2,-1
 800 -94 l 1,3,4
 754 -129 754 -129 693 -150.5 c 128,-1,5
 632 -172 632 -172 579 -172 c 0,6,7
 505 -172 505 -172 452 -129.5 c 128,-1,8
 399 -87 399 -87 379 -14 c 1,9,10
 279 -13 279 -13 201 30 c 128,-1,11
 123 73 123 73 80 148.5 c 128,-1,12
 37 224 37 224 37 319 c 0,13,14
 37 430 37 430 93 520.5 c 128,-1,15
 149 611 149 611 245.5 662.5 c 128,-1,16
 342 714 342 714 458 714 c 0,17,18
 559 714 559 714 638 671.5 c 128,-1,19
 717 629 717 629 761 554 c 128,-1,20
 805 479 805 479 805 384 c 0,21,22
 805 261 805 261 737.5 163.5 c 128,-1,23
 670 66 670 66 558 20 c 1,24,25
 567 2 567 2 583.5 -8.5 c 128,-1,26
 600 -19 600 -19 619 -19 c 0,27,0
 647 -19 647 -19 677.5 -6.5 c 128,-1,1
271.5 244.5 m 128,-1,29
 292 205 292 205 327 182 c 128,-1,30
 362 159 362 159 404 159 c 0,31,32
 454 159 454 159 497 187 c 128,-1,33
 540 215 540 215 565.5 263.5 c 128,-1,34
 591 312 591 312 591 370 c 0,35,36
 591 418 591 418 572 457 c 128,-1,37
 553 496 553 496 519 518.5 c 128,-1,38
 485 541 485 541 443 541 c 0,39,40
 394 541 394 541 349.5 513.5 c 128,-1,41
 305 486 305 486 278 438 c 128,-1,42
 251 390 251 390 251 333 c 0,43,28
 251 284 251 284 271.5 244.5 c 128,-1,29
EndSplineSet
EndChar

StartChar: R
Encoding: 82 82 54
Width: 725
Flags: W
LayerCount: 2
Fore
SplineSet
680.5 335.5 m 128,-1,1
 637 264 637 264 556 226 c 1,2,-1
 651 0 l 1,3,-1
 416 0 l 1,4,-1
 360 188 l 1,5,-1
 250 188 l 1,6,-1
 212 0 l 1,7,-1
 4 0 l 1,8,-1
 144 701 l 1,9,-1
 472 701 l 2,10,11
 594 701 594 701 659 649 c 128,-1,12
 724 597 724 597 724 501 c 0,13,0
 724 407 724 407 680.5 335.5 c 128,-1,1
282 349 m 1,14,-1
 402 349 l 2,15,16
 457 349 457 349 489.5 381 c 128,-1,17
 522 413 522 413 522 467 c 0,18,19
 522 503 522 503 501 522 c 128,-1,20
 480 541 480 541 440 541 c 2,21,-1
 320 541 l 1,22,-1
 282 349 l 1,14,-1
EndSplineSet
EndChar

StartChar: S
Encoding: 83 83 55
Width: 642
Flags: W
LayerCount: 2
Fore
SplineSet
535 694 m 128,-1,1
 611 672 611 672 666 635 c 1,2,-1
 572 474 l 1,3,4
 520 506 520 506 455 529.5 c 128,-1,5
 390 553 390 553 347 553 c 0,6,7
 318 553 318 553 301.5 542 c 128,-1,8
 285 531 285 531 285 510 c 0,9,10
 285 483 285 483 313 468 c 128,-1,11
 341 453 341 453 401 435 c 0,12,13
 468 414 468 414 510.5 395 c 128,-1,14
 553 376 553 376 584.5 336.5 c 128,-1,15
 616 297 616 297 616 233 c 0,16,17
 616 153 616 153 574 97.5 c 128,-1,18
 532 42 532 42 461.5 14.5 c 128,-1,19
 391 -13 391 -13 305 -13 c 0,20,21
 215 -13 215 -13 127 17.5 c 128,-1,22
 39 48 39 48 -22 101 c 1,23,-1
 73 260 l 1,24,25
 121 214 121 214 194 182 c 128,-1,26
 267 150 267 150 322 150 c 0,27,28
 358 150 358 150 378.5 164 c 128,-1,29
 399 178 399 178 399 204 c 0,30,31
 399 231 399 231 371 245.5 c 128,-1,32
 343 260 343 260 282 277 c 0,33,34
 216 296 216 296 173 315 c 128,-1,35
 130 334 130 334 98.5 372 c 128,-1,36
 67 410 67 410 67 472 c 0,37,38
 67 546 67 546 106.5 601 c 128,-1,39
 146 656 146 656 217 686 c 128,-1,40
 288 716 288 716 381 716 c 0,41,0
 459 716 459 716 535 694 c 128,-1,1
EndSplineSet
EndChar

StartChar: T
Encoding: 84 84 56
Width: 629
Flags: W
LayerCount: 2
Fore
SplineSet
708 701 m 1,0,-1
 675 535 l 1,1,-1
 470 535 l 1,2,-1
 363 0 l 1,3,-1
 155 0 l 1,4,-1
 262 535 l 1,5,-1
 59 535 l 1,6,-1
 92 701 l 1,7,-1
 708 701 l 1,0,-1
EndSplineSet
EndChar

StartChar: U
Encoding: 85 85 57
Width: 756
Flags: W
LayerCount: 2
Fore
SplineSet
713 296 m 2,0,1
 695 203 695 203 643 134.5 c 128,-1,2
 591 66 591 66 512 28.5 c 128,-1,3
 433 -9 433 -9 334 -9 c 0,4,5
 247 -9 247 -9 181.5 20 c 128,-1,6
 116 49 116 49 81 103 c 128,-1,7
 46 157 46 157 46 230 c 0,8,9
 46 264 46 264 53 296 c 2,10,-1
 134 701 l 1,11,-1
 342 701 l 1,12,-1
 261 296 l 2,13,14
 258 280 258 280 258 265 c 0,15,16
 258 218 258 218 285.5 191.5 c 128,-1,17
 313 165 313 165 359 165 c 0,18,19
 412 165 412 165 452 200.5 c 128,-1,20
 492 236 492 236 504 296 c 2,21,-1
 586 701 l 1,22,-1
 794 701 l 1,23,-1
 713 296 l 2,0,1
EndSplineSet
EndChar

StartChar: V
Encoding: 86 86 58
Width: 748
Flags: W
LayerCount: 2
Fore
SplineSet
624 701 m 1,0,-1
 837 701 l 1,1,-1
 450 0 l 1,2,-1
 235 0 l 1,3,-1
 82 701 l 1,4,-1
 305 701 l 1,5,-1
 385 215 l 1,6,-1
 624 701 l 1,0,-1
EndSplineSet
EndChar

StartChar: W
Encoding: 87 87 59
Width: 1103
Flags: W
LayerCount: 2
Fore
SplineSet
982 701 m 1,0,-1
 1195 701 l 1,1,-1
 849 0 l 1,2,-1
 634 0 l 1,3,-1
 597 449 l 1,4,-1
 409 0 l 1,5,-1
 194 0 l 1,6,-1
 82 701 l 1,7,-1
 305 701 l 1,8,-1
 344 215 l 1,9,-1
 542 700 l 1,10,-1
 745 701 l 1,11,-1
 784 215 l 1,12,-1
 982 701 l 1,0,-1
EndSplineSet
EndChar

StartChar: X
Encoding: 88 88 60
Width: 765
Flags: W
LayerCount: 2
Fore
SplineSet
805 701 m 1,0,-1
 520 366 l 1,1,-1
 710 0 l 1,2,-1
 460 0 l 1,3,-1
 361 200 l 1,4,-1
 197 0 l 1,5,-1
 -47 0 l 1,6,-1
 260 357 l 1,7,-1
 85 701 l 1,8,-1
 327 701 l 1,9,-1
 413 518 l 1,10,-1
 560 701 l 1,11,-1
 805 701 l 1,0,-1
EndSplineSet
EndChar

StartChar: Y
Encoding: 89 89 61
Width: 702
Flags: W
LayerCount: 2
Fore
SplineSet
795 701 m 1,0,-1
 463 220 l 1,1,-1
 427 0 l 1,2,-1
 219 0 l 1,3,-1
 255 218 l 1,4,-1
 78 701 l 1,5,-1
 285 701 l 1,6,-1
 391 414 l 1,7,-1
 587 701 l 1,8,-1
 795 701 l 1,0,-1
EndSplineSet
EndChar

StartChar: Z
Encoding: 90 90 62
Width: 691
Flags: W
LayerCount: 2
Fore
SplineSet
722 701 m 1,0,-1
 701 569 l 1,1,-1
 286 162 l 1,2,-1
 640 162 l 1,3,-1
 613 0 l 1,4,-1
 -19 0 l 1,5,-1
 3 131 l 1,6,-1
 420 539 l 1,7,-1
 83 539 l 1,8,-1
 109 701 l 1,9,-1
 722 701 l 1,0,-1
EndSplineSet
EndChar

StartChar: bracketleft
Encoding: 91 91 63
Width: 370
Flags: W
LayerCount: 2
Fore
SplineSet
452 742 m 1,0,-1
 422 593 l 1,1,-1
 303 593 l 1,2,-1
 191 25 l 1,3,-1
 309 25 l 1,4,-1
 278 -124 l 1,5,-1
 -20 -124 l 1,6,-1
 154 742 l 1,7,-1
 452 742 l 1,0,-1
EndSplineSet
Substitution2: "'rtla' Right to Left Alternates lookup 0 subtable" bracketright
EndChar

StartChar: backslash
Encoding: 92 92 64
Width: 718
Flags: W
LayerCount: 2
Fore
SplineSet
71 808 m 1,0,-1
 240 808 l 1,1,-1
 640 -107 l 1,2,-1
 471 -107 l 1,3,-1
 71 808 l 1,0,-1
EndSplineSet
EndChar

StartChar: bracketright
Encoding: 93 93 65
Width: 385
Flags: W
LayerCount: 2
Fore
SplineSet
-44 -124 m 1,0,-1
 -14 25 l 1,1,-1
 105 25 l 1,2,-1
 217 593 l 1,3,-1
 99 593 l 1,4,-1
 130 742 l 1,5,-1
 428 742 l 1,6,-1
 254 -124 l 1,7,-1
 -44 -124 l 1,0,-1
EndSplineSet
Substitution2: "'rtla' Right to Left Alternates lookup 0 subtable" bracketleft
EndChar

StartChar: asciicircum
Encoding: 94 94 66
Width: 593
Flags: W
LayerCount: 2
Fore
SplineSet
536 141 m 1,0,-1
 399 141 l 1,1,-1
 331 415 l 1,2,-1
 150 141 l 1,3,-1
 5 141 l 1,4,-1
 267 524 l 1,5,-1
 428 524 l 1,6,-1
 536 141 l 1,0,-1
EndSplineSet
EndChar

StartChar: underscore
Encoding: 95 95 67
Width: 592
Flags: W
LayerCount: 2
Fore
SplineSet
519 -95 m 1,0,-1
 497 -204 l 1,1,-1
 -95 -204 l 1,2,-1
 -73 -95 l 1,3,-1
 519 -95 l 1,0,-1
EndSplineSet
EndChar

StartChar: a
Encoding: 97 97 69
Width: 688
Flags: W
LayerCount: 2
Fore
SplineSet
117 23 m 128,-1,1
 70 53 70 53 44 106.5 c 128,-1,2
 18 160 18 160 18 230 c 0,3,4
 18 319 18 319 55.5 392.5 c 128,-1,5
 93 466 93 466 158.5 508.5 c 128,-1,6
 224 551 224 551 302 551 c 0,7,8
 358 551 358 551 399 528.5 c 128,-1,9
 440 506 440 506 463 463 c 1,10,-1
 479 544 l 1,11,-1
 680 544 l 1,12,-1
 572 0 l 1,13,-1
 370 0 l 1,14,-1
 382 59 l 1,15,16
 313 -7 313 -7 224 -7 c 0,17,0
 164 -7 164 -7 117 23 c 128,-1,1
364.5 163.5 m 128,-1,19
 392 183 392 183 408 216 c 128,-1,20
 424 249 424 249 424 288 c 0,21,22
 424 332 424 332 401 359 c 128,-1,23
 378 386 378 386 339 386 c 0,24,25
 307 386 307 386 280.5 366.5 c 128,-1,26
 254 347 254 347 238 314.5 c 128,-1,27
 222 282 222 282 222 243 c 0,28,29
 222 197 222 197 244.5 170.5 c 128,-1,30
 267 144 267 144 305 144 c 0,31,18
 337 144 337 144 364.5 163.5 c 128,-1,19
EndSplineSet
Substitution2: "<3,3> Small Caps in Latin lookup 11 subtable" a.sc
Substitution2: "<11,2> Diagonal Fractions lookup 7 nested-substitutions 0 subtable" ordfeminine
Substitution2: "<11,2> Diagonal Fractions lookup 5 nested-substitutions 0 subtable" ordfeminine
EndChar

StartChar: b
Encoding: 98 98 70
Width: 694
Flags: W
LayerCount: 2
Fore
SplineSet
576 521 m 128,-1,1
 623 491 623 491 649 437 c 128,-1,2
 675 383 675 383 675 313 c 0,3,4
 675 224 675 224 637.5 150.5 c 128,-1,5
 600 77 600 77 535 34.5 c 128,-1,6
 470 -8 470 -8 392 -8 c 0,7,8
 336 -8 336 -8 295 14.5 c 128,-1,9
 254 37 254 37 231 81 c 1,10,-1
 215 0 l 1,11,-1
 13 0 l 1,12,-1
 160 742 l 1,13,-1
 362 742 l 1,14,-1
 311 484 l 1,15,16
 345 516 345 516 385 533.5 c 128,-1,17
 425 551 425 551 469 551 c 0,18,0
 529 551 529 551 576 521 c 128,-1,1
329 379.5 m 128,-1,20
 302 360 302 360 286 327 c 128,-1,21
 270 294 270 294 270 256 c 0,22,23
 270 211 270 211 293 184.5 c 128,-1,24
 316 158 316 158 355 158 c 0,25,26
 386 158 386 158 413 177 c 128,-1,27
 440 196 440 196 456 229 c 128,-1,28
 472 262 472 262 472 300 c 0,29,30
 472 346 472 346 449.5 372.5 c 128,-1,31
 427 399 427 399 388 399 c 0,32,19
 356 399 356 399 329 379.5 c 128,-1,20
EndSplineSet
Substitution2: "<3,3> Small Caps in Latin lookup 11 subtable" b.sc
EndChar

StartChar: c
Encoding: 99 99 71
Width: 578
Flags: W
LayerCount: 2
Fore
SplineSet
141 23.5 m 128,-1,1
 83 54 83 54 51.5 110 c 128,-1,2
 20 166 20 166 20 241 c 0,3,4
 20 332 20 332 60 402.5 c 128,-1,5
 100 473 100 473 171.5 512 c 128,-1,6
 243 551 243 551 335 551 c 0,7,8
 420 551 420 551 481.5 514 c 128,-1,9
 543 477 543 477 571 409 c 1,10,-1
 409 333 l 1,11,12
 398 359 398 359 377 373 c 128,-1,13
 356 387 356 387 327 387 c 0,14,15
 283 387 283 387 254 350 c 128,-1,16
 225 313 225 313 225 255 c 0,17,18
 225 208 225 208 246 180.5 c 128,-1,19
 267 153 267 153 304 153 c 0,20,21
 365 153 365 153 396 213 c 1,22,-1
 545 134 l 1,23,24
 508 67 508 67 437.5 30 c 128,-1,25
 367 -7 367 -7 277 -7 c 0,26,0
 199 -7 199 -7 141 23.5 c 128,-1,1
EndSplineSet
Substitution2: "<3,3> Small Caps in Latin lookup 11 subtable" c.sc
EndChar

StartChar: d
Encoding: 100 100 72
Width: 693
Flags: W
LayerCount: 2
Fore
SplineSet
117 23 m 128,-1,1
 70 53 70 53 44 106.5 c 128,-1,2
 18 160 18 160 18 230 c 0,3,4
 18 319 18 319 55.5 392.5 c 128,-1,5
 93 466 93 466 158.5 508.5 c 128,-1,6
 224 551 224 551 302 551 c 0,7,8
 358 551 358 551 399 528.5 c 128,-1,9
 440 506 440 506 463 463 c 1,10,-1
 518 742 l 1,11,-1
 720 742 l 1,12,-1
 572 0 l 1,13,-1
 370 0 l 1,14,-1
 382 59 l 1,15,16
 313 -7 313 -7 224 -7 c 0,17,0
 164 -7 164 -7 117 23 c 128,-1,1
364.5 163.5 m 128,-1,19
 392 183 392 183 408 216 c 128,-1,20
 424 249 424 249 424 288 c 0,21,22
 424 332 424 332 401 359 c 128,-1,23
 378 386 378 386 339 386 c 0,24,25
 307 386 307 386 280.5 366.5 c 128,-1,26
 254 347 254 347 238 314.5 c 128,-1,27
 222 282 222 282 222 243 c 0,28,29
 222 197 222 197 244.5 170.5 c 128,-1,30
 267 144 267 144 305 144 c 0,31,18
 337 144 337 144 364.5 163.5 c 128,-1,19
EndSplineSet
Substitution2: "<3,3> Small Caps in Latin lookup 11 subtable" d.sc
EndChar

StartChar: e
Encoding: 101 101 73
Width: 619
Flags: W
LayerCount: 2
Fore
SplineSet
472 519 m 128,-1,1
 534 488 534 488 567 432 c 128,-1,2
 600 376 600 376 600 302 c 0,3,4
 600 264 600 264 591 223 c 1,5,-1
 218 223 l 1,6,7
 223 183 223 183 249 162 c 128,-1,8
 275 141 275 141 318 141 c 0,9,10
 381 141 381 141 436 184 c 1,11,-1
 538 79 l 1,12,13
 443 -7 443 -7 311 -7 c 0,14,15
 223 -7 223 -7 157 23 c 128,-1,16
 91 53 91 53 55 109 c 128,-1,17
 19 165 19 165 19 239 c 0,18,19
 19 328 19 328 59 399 c 128,-1,20
 99 470 99 470 169 510 c 128,-1,21
 239 550 239 550 327 550 c 0,22,0
 410 550 410 550 472 519 c 128,-1,1
409 344 m 0,24,25
 409 374 409 374 390 392.5 c 128,-1,26
 371 411 371 411 340 411 c 0,27,28
 306 411 306 411 277 386.5 c 128,-1,29
 248 362 248 362 232 322 c 1,30,-1
 406 322 l 1,31,23
 409 334 409 334 409 344 c 0,24,25
EndSplineSet
Substitution2: "<3,3> Small Caps in Latin lookup 11 subtable" e.sc
EndChar

StartChar: f
Encoding: 102 102 74
Width: 406
Flags: W
LayerCount: 2
Fore
SplineSet
379.5 576.5 m 128,-1,1
 357 559 357 559 352 533 c 2,2,-1
 349 516 l 1,3,-1
 460 516 l 1,4,-1
 435 387 l 1,5,-1
 323 387 l 1,6,-1
 245 0 l 1,7,-1
 44 0 l 1,8,-1
 122 387 l 1,9,-1
 47 387 l 1,10,-1
 73 516 l 1,11,-1
 147 516 l 1,12,-1
 159 574 l 2,13,14
 176 659 176 659 240 705 c 128,-1,15
 304 751 304 751 397 751 c 0,16,17
 464 751 464 751 526 728 c 1,18,-1
 477 583 l 1,19,20
 467 587 467 587 453 590.5 c 128,-1,21
 439 594 439 594 431 594 c 0,22,0
 402 594 402 594 379.5 576.5 c 128,-1,1
EndSplineSet
Substitution2: "<3,3> Small Caps in Latin lookup 11 subtable" f.sc
EndChar

StartChar: g
Encoding: 103 103 75
Width: 656
Flags: W
LayerCount: 2
Fore
SplineSet
85 -182 m 128,-1,1
 20 -161 20 -161 -28 -127 c 1,2,-1
 55 0 l 1,3,4
 87 -23 87 -23 130.5 -34.5 c 128,-1,5
 174 -46 174 -46 216 -46 c 0,6,7
 272 -46 272 -46 308.5 -19.5 c 128,-1,8
 345 7 345 7 354 52 c 2,9,-1
 360 83 l 1,10,11
 295 31 295 31 214 31 c 0,12,13
 158 31 158 31 114 58.5 c 128,-1,14
 70 86 70 86 45.5 134.5 c 128,-1,15
 21 183 21 183 21 246 c 0,16,17
 21 331 21 331 56.5 400.5 c 128,-1,18
 92 470 92 470 153.5 510.5 c 128,-1,19
 215 551 215 551 288 551 c 0,20,21
 339 551 339 551 377 531 c 128,-1,22
 415 511 415 511 437 472 c 1,23,-1
 452 544 l 1,24,-1
 653 544 l 1,25,-1
 551 32 l 2,26,27
 530 -79 530 -79 442 -141 c 128,-1,28
 354 -203 354 -203 225 -203 c 0,29,0
 150 -203 150 -203 85 -182 c 128,-1,1
369.5 217 m 128,-1,31
 400 252 400 252 400 301 c 0,32,33
 400 340 400 340 380 363 c 128,-1,34
 360 386 360 386 327 386 c 0,35,36
 285 386 285 386 255 348.5 c 128,-1,37
 225 311 225 311 225 259 c 0,38,39
 225 223 225 223 244 202.5 c 128,-1,40
 263 182 263 182 296 182 c 0,41,30
 339 182 339 182 369.5 217 c 128,-1,31
EndSplineSet
Substitution2: "<3,3> Small Caps in Latin lookup 11 subtable" g.sc
EndChar

StartChar: h
Encoding: 104 104 76
Width: 687
Flags: W
LayerCount: 2
Fore
SplineSet
606 501 m 128,-1,1
 656 451 656 451 656 372 c 0,2,3
 656 350 656 350 651 322 c 2,4,-1
 586 0 l 1,5,-1
 384 0 l 1,6,-1
 442 292 l 2,7,8
 445 306 445 306 445 316 c 0,9,10
 445 347 445 347 427.5 365 c 128,-1,11
 410 383 410 383 380 383 c 0,12,13
 341 383 341 383 310 351.5 c 128,-1,14
 279 320 279 320 270 271 c 2,15,-1
 216 0 l 1,16,-1
 14 0 l 1,17,-1
 160 742 l 1,18,-1
 363 742 l 1,19,-1
 310 474 l 1,20,21
 376 551 376 551 474 551 c 0,22,0
 556 551 556 551 606 501 c 128,-1,1
EndSplineSet
Substitution2: "<3,3> Small Caps in Latin lookup 11 subtable" h.sc
EndChar

StartChar: k
Encoding: 107 107 79
Width: 669
Flags: W
LayerCount: 2
Fore
SplineSet
722 544 m 1,0,-1
 466 322 l 1,1,-1
 602 0 l 1,2,-1
 368 0 l 1,3,-1
 307 185 l 1,4,-1
 239 125 l 1,5,-1
 214 0 l 1,6,-1
 12 0 l 1,7,-1
 160 742 l 1,8,-1
 362 742 l 1,9,-1
 290 382 l 1,10,-1
 471 544 l 1,11,-1
 722 544 l 1,0,-1
EndSplineSet
Substitution2: "<3,3> Small Caps in Latin lookup 11 subtable" k.sc
EndChar

StartChar: l
Encoding: 108 108 80
Width: 335
Flags: W
LayerCount: 2
Fore
SplineSet
362 742 m 1,0,-1
 214 0 l 1,1,-1
 12 0 l 1,2,-1
 160 742 l 1,3,-1
 362 742 l 1,0,-1
EndSplineSet
Substitution2: "<3,3> Small Caps in Latin lookup 11 subtable" l.sc
EndChar

StartChar: m
Encoding: 109 109 81
Width: 1052
Flags: W
LayerCount: 2
Fore
SplineSet
971 501 m 128,-1,1
 1021 451 1021 451 1021 372 c 0,2,3
 1021 350 1021 350 1016 322 c 2,4,-1
 951 0 l 1,5,-1
 749 0 l 1,6,-1
 807 292 l 2,7,8
 810 306 810 306 810 316 c 0,9,10
 810 347 810 347 792.5 365 c 128,-1,11
 775 383 775 383 745 383 c 0,12,13
 706 383 706 383 675 351.5 c 128,-1,14
 644 320 644 320 635 271 c 2,15,-1
 581 0 l 1,16,-1
 379 0 l 1,17,-1
 437 292 l 2,18,19
 440 306 440 306 440 316 c 0,20,21
 440 347 440 347 422.5 365 c 128,-1,22
 405 383 405 383 375 383 c 0,23,24
 337 383 337 383 305.5 351.5 c 128,-1,25
 274 320 274 320 264 271 c 2,26,-1
 210 0 l 1,27,-1
 8 0 l 1,28,-1
 116 544 l 1,29,-1
 318 544 l 1,30,-1
 305 474 l 1,31,32
 370 551 370 551 469 551 c 0,33,34
 533 551 533 551 578.5 519.5 c 128,-1,35
 624 488 624 488 642 434 c 1,36,37
 724 551 724 551 839 551 c 0,38,0
 921 551 921 551 971 501 c 128,-1,1
EndSplineSet
Substitution2: "<3,3> Small Caps in Latin lookup 11 subtable" m.sc
EndChar

StartChar: n
Encoding: 110 110 82
Width: 682
Flags: W
LayerCount: 2
Fore
SplineSet
600.5 501.5 m 128,-1,1
 650 452 650 452 650 373 c 0,2,3
 650 345 650 345 645 322 c 2,4,-1
 581 0 l 1,5,-1
 379 0 l 1,6,-1
 437 292 l 2,7,8
 440 306 440 306 440 316 c 0,9,10
 440 347 440 347 422.5 365 c 128,-1,11
 405 383 405 383 375 383 c 0,12,13
 337 383 337 383 305.5 351.5 c 128,-1,14
 274 320 274 320 264 271 c 2,15,-1
 210 0 l 1,16,-1
 8 0 l 1,17,-1
 116 544 l 1,18,-1
 318 544 l 1,19,-1
 305 474 l 1,20,21
 370 551 370 551 469 551 c 0,22,0
 551 551 551 551 600.5 501.5 c 128,-1,1
EndSplineSet
Substitution2: "<3,3> Small Caps in Latin lookup 11 subtable" n.sc
EndChar

StartChar: o
Encoding: 111 111 83
Width: 649
Flags: W
LayerCount: 2
Fore
SplineSet
499.5 520 m 128,-1,1
 562 489 562 489 595.5 432.5 c 128,-1,2
 629 376 629 376 629 300 c 0,3,4
 629 209 629 209 587 139.5 c 128,-1,5
 545 70 545 70 469.5 31.5 c 128,-1,6
 394 -7 394 -7 297 -7 c 0,7,8
 213 -7 213 -7 150.5 24 c 128,-1,9
 88 55 88 55 54.5 112 c 128,-1,10
 21 169 21 169 21 245 c 0,11,12
 21 335 21 335 63 404.5 c 128,-1,13
 105 474 105 474 180.5 512.5 c 128,-1,14
 256 551 256 551 353 551 c 0,15,0
 437 551 437 551 499.5 520 c 128,-1,1
257 353 m 128,-1,17
 226 315 226 315 226 254 c 0,18,19
 226 206 226 206 249.5 177.5 c 128,-1,20
 273 149 273 149 313 149 c 0,21,22
 362 149 362 149 393 186.5 c 128,-1,23
 424 224 424 224 424 285 c 0,24,25
 424 333 424 333 400.5 362 c 128,-1,26
 377 391 377 391 337 391 c 0,27,16
 288 391 288 391 257 353 c 128,-1,17
EndSplineSet
Substitution2: "<3,3> Small Caps in Latin lookup 11 subtable" o.sc
Substitution2: "<11,2> Diagonal Fractions lookup 7 nested-substitutions 0 subtable" ordmasculine
Substitution2: "<11,2> Diagonal Fractions lookup 5 nested-substitutions 0 subtable" ordmasculine
EndChar

StartChar: p
Encoding: 112 112 84
Width: 693
Flags: W
LayerCount: 2
Fore
SplineSet
576 521 m 128,-1,1
 623 491 623 491 649 437 c 128,-1,2
 675 383 675 383 675 314 c 0,3,4
 675 225 675 225 637.5 151.5 c 128,-1,5
 600 78 600 78 534.5 35.5 c 128,-1,6
 469 -7 469 -7 391 -7 c 0,7,8
 335 -7 335 -7 294 15.5 c 128,-1,9
 253 38 253 38 230 81 c 1,10,-1
 175 -194 l 1,11,-1
 -27 -194 l 1,12,-1
 121 544 l 1,13,-1
 323 544 l 1,14,-1
 311 485 l 1,15,16
 382 551 382 551 469 551 c 0,17,0
 529 551 529 551 576 521 c 128,-1,1
328.5 380.5 m 128,-1,19
 301 361 301 361 285 328 c 128,-1,20
 269 295 269 295 269 256 c 0,21,22
 269 211 269 211 292 184.5 c 128,-1,23
 315 158 315 158 354 158 c 0,24,25
 386 158 386 158 412.5 177.5 c 128,-1,26
 439 197 439 197 455 229.5 c 128,-1,27
 471 262 471 262 471 301 c 0,28,29
 471 347 471 347 448.5 373.5 c 128,-1,30
 426 400 426 400 388 400 c 0,31,18
 356 400 356 400 328.5 380.5 c 128,-1,19
EndSplineSet
Substitution2: "<3,3> Small Caps in Latin lookup 11 subtable" p.sc
EndChar

StartChar: q
Encoding: 113 113 85
Width: 692
Flags: W
LayerCount: 2
Fore
SplineSet
117 23 m 128,-1,1
 70 53 70 53 44 106.5 c 128,-1,2
 18 160 18 160 18 230 c 0,3,4
 18 319 18 319 55.5 392.5 c 128,-1,5
 93 466 93 466 158.5 508.5 c 128,-1,6
 224 551 224 551 302 551 c 0,7,8
 358 551 358 551 399 528.5 c 128,-1,9
 440 506 440 506 463 463 c 1,10,-1
 479 544 l 1,11,-1
 680 544 l 1,12,-1
 533 -194 l 1,13,-1
 331 -194 l 1,14,-1
 382 59 l 1,15,16
 313 -7 313 -7 224 -7 c 0,17,0
 164 -7 164 -7 117 23 c 128,-1,1
364.5 163.5 m 128,-1,19
 392 183 392 183 408 216 c 128,-1,20
 424 249 424 249 424 288 c 0,21,22
 424 332 424 332 401 359 c 128,-1,23
 378 386 378 386 339 386 c 0,24,25
 307 386 307 386 280.5 366.5 c 128,-1,26
 254 347 254 347 238 314.5 c 128,-1,27
 222 282 222 282 222 243 c 0,28,29
 222 197 222 197 244.5 170.5 c 128,-1,30
 267 144 267 144 305 144 c 0,31,18
 337 144 337 144 364.5 163.5 c 128,-1,19
EndSplineSet
Substitution2: "<3,3> Small Caps in Latin lookup 11 subtable" q.sc
EndChar

StartChar: r
Encoding: 114 114 86
Width: 451
Flags: W
LayerCount: 2
Fore
SplineSet
484 552 m 1,1,-1
 460 371 l 1,2,3
 440 373 440 373 430 373 c 0,4,5
 365 373 365 373 317.5 339 c 128,-1,6
 270 305 270 305 260 252 c 2,7,-1
 209 0 l 1,8,-1
 7 0 l 1,9,-1
 116 544 l 1,10,-1
 318 544 l 1,11,-1
 303 467 l 1,12,0
 376 552 376 552 484 552 c 1,1,-1
EndSplineSet
Substitution2: "<3,3> Small Caps in Latin lookup 11 subtable" r.sc
EndChar

StartChar: s
Encoding: 115 115 87
Width: 540
Flags: W
LayerCount: 2
Fore
SplineSet
108.5 19.5 m 128,-1,1
 33 47 33 47 -21 97 c 1,2,-1
 61 214 l 1,3,4
 108 175 108 175 158.5 152 c 128,-1,5
 209 129 209 129 251 129 c 0,6,7
 274 129 274 129 286.5 137.5 c 128,-1,8
 299 146 299 146 299 161 c 0,9,10
 299 173 299 173 282 182.5 c 128,-1,11
 265 192 265 192 228 206 c 0,12,13
 177 226 177 226 144.5 243 c 128,-1,14
 112 260 112 260 87 291.5 c 128,-1,15
 62 323 62 323 62 369 c 0,16,17
 62 422 62 422 90 463.5 c 128,-1,18
 118 505 118 505 168.5 528 c 128,-1,19
 219 551 219 551 285 551 c 0,20,21
 354 551 354 551 424.5 526.5 c 128,-1,22
 495 502 495 502 554 458 c 1,23,-1
 466 343 l 1,24,25
 417 376 417 376 370.5 395.5 c 128,-1,26
 324 415 324 415 293 415 c 0,27,28
 275 415 275 415 263 406.5 c 128,-1,29
 251 398 251 398 251 385 c 256,30,31
 251 372 251 372 268.5 361.5 c 128,-1,32
 286 351 286 351 325 336 c 0,33,34
 376 316 376 316 409 298 c 128,-1,35
 442 280 442 280 467 249 c 128,-1,36
 492 218 492 218 492 172 c 0,37,38
 492 119 492 119 463.5 78 c 128,-1,39
 435 37 435 37 383.5 14.5 c 128,-1,40
 332 -8 332 -8 265 -8 c 0,41,0
 184 -8 184 -8 108.5 19.5 c 128,-1,1
EndSplineSet
Substitution2: "<3,3> Small Caps in Latin lookup 11 subtable" s.sc
EndChar

StartChar: t
Encoding: 116 116 88
Width: 455
Flags: W
LayerCount: 2
Fore
SplineSet
273 193 m 2,0,1
 271 179 271 179 271 175 c 0,2,3
 271 161 271 161 278.5 155 c 128,-1,4
 286 149 286 149 300 149 c 256,5,6
 314 149 314 149 329.5 154 c 128,-1,7
 345 159 345 159 369 168 c 1,8,-1
 389 23 l 1,9,10
 358 7 358 7 317 -1 c 128,-1,11
 276 -9 276 -9 236 -9 c 0,12,13
 157 -9 157 -9 111.5 30.5 c 128,-1,14
 66 70 66 70 66 137 c 0,15,16
 66 159 66 159 70 178 c 2,17,-1
 111 387 l 1,18,-1
 36 387 l 1,19,-1
 62 516 l 1,20,-1
 137 516 l 1,21,-1
 167 667 l 1,22,-1
 368 667 l 1,23,-1
 338 516 l 1,24,-1
 472 516 l 1,25,-1
 446 387 l 1,26,-1
 312 387 l 1,27,-1
 273 193 l 2,0,1
EndSplineSet
Substitution2: "<3,3> Small Caps in Latin lookup 11 subtable" t.sc
EndChar

StartChar: u
Encoding: 117 117 89
Width: 682
Flags: W
LayerCount: 2
Fore
SplineSet
81.5 42.5 m 128,-1,1
 32 92 32 92 32 171 c 0,2,3
 32 200 32 200 37 222 c 2,4,-1
 101 544 l 1,5,-1
 303 544 l 1,6,-1
 245 252 l 2,7,8
 242 239 242 239 242 228 c 0,9,10
 242 197 242 197 259.5 179 c 128,-1,11
 277 161 277 161 307 161 c 0,12,13
 346 161 346 161 377 192.5 c 128,-1,14
 408 224 408 224 418 273 c 2,15,-1
 472 544 l 1,16,-1
 674 544 l 1,17,-1
 566 0 l 1,18,-1
 364 0 l 1,19,-1
 377 70 l 1,20,21
 312 -7 312 -7 213 -7 c 0,22,0
 131 -7 131 -7 81.5 42.5 c 128,-1,1
EndSplineSet
Substitution2: "<3,3> Small Caps in Latin lookup 11 subtable" u.sc
EndChar

StartChar: v
Encoding: 118 118 90
Width: 594
Flags: W
LayerCount: 2
Fore
SplineSet
657 544 m 1,0,-1
 347 0 l 1,1,-1
 140 0 l 1,2,-1
 47 544 l 1,3,-1
 252 544 l 1,4,-1
 278 183 l 1,5,-1
 452 544 l 1,6,-1
 657 544 l 1,0,-1
EndSplineSet
Substitution2: "<3,3> Small Caps in Latin lookup 11 subtable" v.sc
EndChar

StartChar: w
Encoding: 119 119 91
Width: 959
Flags: W
LayerCount: 2
Fore
SplineSet
1023 544 m 1,0,-1
 716 0 l 1,1,-1
 517 0 l 1,2,-1
 491 312 l 1,3,-1
 335 0 l 1,4,-1
 136 0 l 1,5,-1
 47 544 l 1,6,-1
 248 544 l 1,7,-1
 276 197 l 1,8,-1
 440 544 l 1,9,-1
 630 544 l 1,10,-1
 657 197 l 1,11,-1
 823 544 l 1,12,-1
 1023 544 l 1,0,-1
EndSplineSet
Substitution2: "<3,3> Small Caps in Latin lookup 11 subtable" w.sc
EndChar

StartChar: x
Encoding: 120 120 92
Width: 633
Flags: W
LayerCount: 2
Fore
SplineSet
297 544 m 1,0,-1
 341 403 l 1,1,-1
 455 544 l 1,2,-1
 680 544 l 1,3,-1
 455 279 l 1,4,-1
 579 0 l 1,5,-1
 351 0 l 1,6,-1
 300 154 l 1,7,-1
 172 0 l 1,8,-1
 -56 0 l 1,9,-1
 185 278 l 1,10,-1
 69 544 l 1,11,-1
 297 544 l 1,0,-1
EndSplineSet
Substitution2: "<3,3> Small Caps in Latin lookup 11 subtable" x.sc
EndChar

StartChar: y
Encoding: 121 121 93
Width: 603
Flags: W
LayerCount: 2
Fore
SplineSet
666 544 m 1,0,-1
 319 -53 l 2,1,2
 273 -132 273 -132 212.5 -167.5 c 128,-1,3
 152 -203 152 -203 73 -203 c 0,4,5
 20 -203 20 -203 -20 -187 c 128,-1,6
 -60 -171 -60 -171 -98 -139 c 1,7,-1
 3 -14 l 1,8,9
 18 -29 18 -29 32 -34 c 128,-1,10
 46 -39 46 -39 64 -39 c 0,11,12
 106 -39 106 -39 140 -3 c 2,13,-1
 156 15 l 1,14,-1
 38 544 l 1,15,-1
 242 544 l 1,16,-1
 292 209 l 1,17,-1
 462 544 l 1,18,-1
 666 544 l 1,0,-1
EndSplineSet
Substitution2: "<3,3> Small Caps in Latin lookup 11 subtable" y.sc
EndChar

StartChar: z
Encoding: 122 122 94
Width: 564
Flags: W
LayerCount: 2
Fore
SplineSet
584 543 m 1,0,-1
 562 424 l 1,1,-1
 264 151 l 1,2,-1
 516 151 l 1,3,-1
 485 0 l 1,4,-1
 -23 0 l 1,5,-1
 -1 119 l 1,6,-1
 298 392 l 1,7,-1
 66 392 l 1,8,-1
 95 544 l 1,9,-1
 584 543 l 1,0,-1
EndSplineSet
Substitution2: "<3,3> Small Caps in Latin lookup 11 subtable" z.sc
EndChar

StartChar: braceleft
Encoding: 123 123 95
Width: 371
Flags: W
LayerCount: 2
Fore
SplineSet
269 349.5 m 128,-1,1
 242 320 242 320 191 309 c 1,2,3
 228 298 228 298 244.5 279.5 c 128,-1,4
 261 261 261 261 261 228 c 0,5,6
 261 208 261 208 255 181 c 2,7,-1
 236 84 l 2,8,9
 234 68 234 68 234 64 c 0,10,11
 234 41 234 41 250.5 32 c 128,-1,12
 267 23 267 23 308 23 c 1,13,-1
 278 -126 l 1,14,-1
 200 -126 l 2,15,16
 113 -126 113 -126 75.5 -104 c 128,-1,17
 38 -82 38 -82 38 -29 c 0,18,19
 38 -8 38 -8 44 21 c 2,20,-1
 78 194 l 1,21,-1
 80 210 l 2,22,23
 80 222 80 222 73.5 227 c 128,-1,24
 67 232 67 232 52 232 c 2,25,-1
 10 232 l 1,26,-1
 41 385 l 1,27,-1
 83 385 l 2,28,29
 102 385 102 385 111.5 393.5 c 128,-1,30
 121 402 121 402 125 424 c 2,31,-1
 159 596 l 2,32,33
 170 652 170 652 194 684 c 128,-1,34
 218 716 218 716 261 730 c 128,-1,35
 304 744 304 744 374 744 c 2,36,-1
 452 744 l 1,37,-1
 422 595 l 1,38,39
 373 595 373 595 353 582 c 128,-1,40
 333 569 333 569 326 534 c 2,41,-1
 307 437 l 2,42,0
 296 379 296 379 269 349.5 c 128,-1,1
EndSplineSet
Substitution2: "'rtla' Right to Left Alternates lookup 0 subtable" braceright
EndChar

StartChar: bar
Encoding: 124 124 96
Width: 315
Flags: W
LayerCount: 2
Fore
SplineSet
338 799 m 1,0,-1
 157 -106 l 1,1,-1
 7 -106 l 1,2,-1
 188 799 l 1,3,-1
 338 799 l 1,0,-1
EndSplineSet
EndChar

StartChar: braceright
Encoding: 125 125 97
Width: 414
Flags: W
LayerCount: 2
Fore
SplineSet
160 268.5 m 128,-1,1
 187 298 187 298 238 309 c 1,2,3
 201 320 201 320 184.5 338.5 c 128,-1,4
 168 357 168 357 168 390 c 0,5,6
 168 410 168 410 174 437 c 2,7,-1
 193 534 l 2,8,9
 195 550 195 550 195 554 c 0,10,11
 195 577 195 577 178.5 586 c 128,-1,12
 162 595 162 595 121 595 c 1,13,-1
 151 744 l 1,14,-1
 229 744 l 2,15,16
 316 744 316 744 353.5 722 c 128,-1,17
 391 700 391 700 391 647 c 0,18,19
 391 626 391 626 385 597 c 2,20,-1
 351 424 l 1,21,-1
 349 408 l 2,22,23
 349 396 349 396 355.5 391 c 128,-1,24
 362 386 362 386 377 386 c 2,25,-1
 419 386 l 1,26,-1
 388 233 l 1,27,-1
 346 233 l 2,28,29
 327 233 327 233 317.5 224.5 c 128,-1,30
 308 216 308 216 304 194 c 2,31,-1
 270 22 l 2,32,33
 259 -34 259 -34 235 -66 c 128,-1,34
 211 -98 211 -98 168 -112 c 128,-1,35
 125 -126 125 -126 55 -126 c 2,36,-1
 -23 -126 l 1,37,-1
 7 23 l 1,38,39
 56 23 56 23 76 36 c 128,-1,40
 96 49 96 49 103 84 c 2,41,-1
 122 181 l 2,42,0
 133 239 133 239 160 268.5 c 128,-1,1
EndSplineSet
Substitution2: "'rtla' Right to Left Alternates lookup 0 subtable" braceleft
EndChar

StartChar: asciitilde
Encoding: 126 126 98
Width: 516
Flags: W
LayerCount: 2
Fore
SplineSet
243.5 415 m 128,-1,1
 262 407 262 407 284 393 c 0,2,3
 307 377 307 377 319 377 c 0,4,5
 334 377 334 377 345 388 c 128,-1,6
 356 399 356 399 361 420 c 1,7,-1
 494 420 l 1,8,9
 474 324 474 324 435.5 278 c 128,-1,10
 397 232 397 232 336 232 c 0,11,12
 308 232 308 232 288.5 240.5 c 128,-1,13
 269 249 269 249 250 263 c 0,14,15
 227 279 227 279 215 279 c 0,16,17
 187 279 187 279 178 236 c 1,18,-1
 44 236 l 1,19,20
 63 332 63 332 100 377.5 c 128,-1,21
 137 423 137 423 198 423 c 0,22,0
 225 423 225 423 243.5 415 c 128,-1,1
EndSplineSet
EndChar

StartChar: exclamdown
Encoding: 161 161 100
Width: 279
Flags: W
LayerCount: 2
Fore
SplineSet
104.5 386 m 128,-1,1
 81 409 81 409 81 447 c 0,2,3
 81 492 81 492 110.5 521.5 c 128,-1,4
 140 551 140 551 184 551 c 0,5,6
 223 551 223 551 246.5 527.5 c 128,-1,7
 270 504 270 504 270 466 c 0,8,9
 270 420 270 420 240.5 391.5 c 128,-1,10
 211 363 211 363 167 363 c 0,11,0
 128 363 128 363 104.5 386 c 128,-1,1
-39 -156 m 1,12,-1
 -2 26 l 1,13,-1
 86 293 l 1,14,-1
 207 293 l 1,15,-1
 190 26 l 1,16,-1
 153 -156 l 1,17,-1
 -39 -156 l 1,12,-1
EndSplineSet
Substitution2: "<3,3> Small Caps in Latin lookup 11 subtable" exclamdown.sc
EndChar

StartChar: cent
Encoding: 162 162 101
Width: 578
Flags: W
LayerCount: 2
Fore
SplineSet
396 213 m 1,1,-1
 545 134 l 1,2,3
 513 77 513 77 457 41.5 c 128,-1,4
 401 6 401 6 328 -4 c 1,5,-1
 297 -160 l 1,6,-1
 147 -160 l 1,7,-1
 180 7 l 1,8,9
 105 32 105 32 62.5 93.5 c 128,-1,10
 20 155 20 155 20 241 c 0,11,12
 20 324 20 324 53.5 390 c 128,-1,13
 87 456 87 456 147.5 497 c 128,-1,14
 208 538 208 538 287 548 c 1,15,-1
 319 707 l 1,16,-1
 468 707 l 1,17,-1
 434 536 l 1,18,19
 482 519 482 519 517 487 c 128,-1,20
 552 455 552 455 571 409 c 1,21,-1
 409 333 l 1,22,23
 398 359 398 359 377 373 c 128,-1,24
 356 387 356 387 327 387 c 0,25,26
 283 387 283 387 254 350 c 128,-1,27
 225 313 225 313 225 255 c 0,28,29
 225 208 225 208 246 180.5 c 128,-1,30
 267 153 267 153 304 153 c 0,31,0
 365 153 365 153 396 213 c 1,1,-1
EndSplineSet
EndChar

StartChar: sterling
Encoding: 163 163 102
Width: 562
Flags: W
LayerCount: 2
Fore
SplineSet
343 464 m 2,1,-1
 325 375 l 1,2,-1
 488 375 l 1,3,-1
 475 307 l 1,4,-1
 312 307 l 1,5,-1
 282 156 l 1,6,-1
 529 156 l 1,7,-1
 497 0 l 1,8,-1
 -31 0 l 1,9,-1
 0 156 l 1,10,-1
 73 156 l 1,11,-1
 103 307 l 1,12,-1
 31 307 l 1,13,-1
 44 375 l 1,14,-1
 117 375 l 1,15,-1
 136 468 l 2,16,17
 158 583 158 583 236.5 646.5 c 128,-1,18
 315 710 315 710 434 710 c 0,19,20
 497 710 497 710 550 688 c 128,-1,21
 603 666 603 666 637 626 c 1,22,-1
 531 473 l 1,23,24
 478 536 478 536 422 536 c 0,25,0
 358 536 358 536 343 464 c 2,1,-1
EndSplineSet
EndChar

StartChar: currency
Encoding: 164 164 103
Width: 783
Flags: W
LayerCount: 2
Fore
SplineSet
628 202 m 1,1,-1
 730 101 l 1,2,-1
 617 -12 l 1,3,-1
 514 92 l 1,4,5
 460 66 460 66 400 66 c 256,6,7
 340 66 340 66 288 92 c 1,8,-1
 184 -12 l 1,9,-1
 71 101 l 1,10,-1
 173 202 l 1,11,12
 143 259 143 259 143 322 c 0,13,14
 143 382 143 382 170 436 c 1,15,-1
 71 534 l 1,16,-1
 184 647 l 1,17,-1
 282 549 l 1,18,19
 335 578 335 578 400 578 c 0,20,21
 462 578 462 578 520 549 c 1,22,-1
 617 647 l 1,23,-1
 730 534 l 1,24,-1
 631 436 l 1,25,26
 658 382 658 382 658 322 c 0,27,0
 658 259 658 259 628 202 c 1,1,-1
471.5 252.5 m 128,-1,29
 501 281 501 281 501 322 c 256,30,31
 501 363 501 363 471.5 392.5 c 128,-1,32
 442 422 442 422 400 422 c 0,33,34
 359 422 359 422 330 392.5 c 128,-1,35
 301 363 301 363 301 322 c 256,36,37
 301 281 301 281 330 252.5 c 128,-1,38
 359 224 359 224 400 224 c 0,39,28
 442 224 442 224 471.5 252.5 c 128,-1,29
EndSplineSet
EndChar

StartChar: yen
Encoding: 165 165 104
Width: 684
Flags: W
LayerCount: 2
Fore
SplineSet
795 701 m 1,0,-1
 542 335 l 1,1,-1
 667 335 l 1,2,-1
 654 267 l 1,3,-1
 495 267 l 1,4,-1
 464 223 l 1,5,-1
 464 219 l 1,6,-1
 645 219 l 1,7,-1
 632 151 l 1,8,-1
 453 151 l 1,9,-1
 428 0 l 1,10,-1
 220 0 l 1,11,-1
 245 151 l 1,12,-1
 58 151 l 1,13,-1
 72 219 l 1,14,-1
 256 219 l 1,15,-1
 256 221 l 1,16,-1
 239 267 l 1,17,-1
 80 267 l 1,18,-1
 94 335 l 1,19,-1
 214 335 l 1,20,-1
 80 701 l 1,21,-1
 287 701 l 1,22,-1
 393 416 l 1,23,-1
 587 701 l 1,24,-1
 795 701 l 1,0,-1
EndSplineSet
EndChar

StartChar: brokenbar
Encoding: 166 166 105
Width: 315
Flags: W
LayerCount: 2
Fore
SplineSet
338 799 m 1,0,-1
 270 459 l 1,1,-1
 120 459 l 1,2,-1
 188 799 l 1,3,-1
 338 799 l 1,0,-1
225 235 m 1,4,-1
 157 -106 l 1,5,-1
 7 -106 l 1,6,-1
 75 235 l 1,7,-1
 225 235 l 1,4,-1
EndSplineSet
EndChar

StartChar: section
Encoding: 167 167 106
Width: 576
Flags: W
LayerCount: 2
Fore
SplineSet
92.5 -57.5 m 128,-1,1
 18 -30 18 -30 -37 19 c 1,2,-1
 43 136 l 1,3,4
 95 95 95 95 146.5 72.5 c 128,-1,5
 198 50 198 50 240 50 c 0,6,7
 260 50 260 50 271 56.5 c 128,-1,8
 282 63 282 63 282 75 c 0,9,10
 282 89 282 89 262.5 101 c 128,-1,11
 243 113 243 113 202 130 c 0,12,13
 149 153 149 153 116 172 c 128,-1,14
 83 191 83 191 58 222 c 128,-1,15
 33 253 33 253 33 295 c 0,16,17
 33 348 33 348 65 386.5 c 128,-1,18
 97 425 97 425 159 445 c 1,19,20
 119 485 119 485 119 530 c 0,21,22
 119 574 119 574 148.5 610 c 128,-1,23
 178 646 178 646 228 667 c 128,-1,24
 278 688 278 688 339 688 c 0,25,26
 408 688 408 688 476.5 665 c 128,-1,27
 545 642 545 642 606 598 c 1,28,-1
 522 482 l 1,29,30
 471 517 471 517 423.5 536.5 c 128,-1,31
 376 556 376 556 343 556 c 0,32,33
 325 556 325 556 314.5 549.5 c 128,-1,34
 304 543 304 543 304 531 c 0,35,36
 304 516 304 516 324.5 503.5 c 128,-1,37
 345 491 345 491 388 472 c 0,38,39
 439 450 439 450 473.5 430.5 c 128,-1,40
 508 411 508 411 533 380 c 128,-1,41
 558 349 558 349 558 307 c 0,42,43
 558 256 558 256 525.5 216.5 c 128,-1,44
 493 177 493 177 434 157 c 1,45,46
 472 119 472 119 472 72 c 0,47,48
 472 29 472 29 442 -7 c 128,-1,49
 412 -43 412 -43 360 -64 c 128,-1,50
 308 -85 308 -85 245 -85 c 0,51,0
 167 -85 167 -85 92.5 -57.5 c 128,-1,1
354 272.5 m 128,-1,53
 367 280 367 280 367 293 c 0,54,55
 367 312 367 312 337 326.5 c 128,-1,56
 307 341 307 341 267 341 c 0,57,58
 244 341 244 341 231.5 333 c 128,-1,59
 219 325 219 325 219 311 c 0,60,61
 219 293 219 293 249 279 c 128,-1,62
 279 265 279 265 317 265 c 0,63,52
 341 265 341 265 354 272.5 c 128,-1,53
EndSplineSet
EndChar

StartChar: copyright
Encoding: 169 169 108
Width: 728
Flags: W
LayerCount: 2
Fore
SplineSet
550.5 643.5 m 128,-1,1
 628 598 628 598 673 520 c 128,-1,2
 718 442 718 442 718 350 c 0,3,4
 718 259 718 259 673 180.5 c 128,-1,5
 628 102 628 102 550 55.5 c 128,-1,6
 472 9 472 9 378 9 c 0,7,8
 285 9 285 9 207.5 55 c 128,-1,9
 130 101 130 101 85.5 179 c 128,-1,10
 41 257 41 257 41 348 c 256,11,12
 41 439 41 439 86 517.5 c 128,-1,13
 131 596 131 596 208.5 642.5 c 128,-1,14
 286 689 286 689 380 689 c 0,15,0
 473 689 473 689 550.5 643.5 c 128,-1,1
254.5 564 m 128,-1,17
 198 530 198 530 165 472.5 c 128,-1,18
 132 415 132 415 132 348 c 256,19,20
 132 281 132 281 164.5 224 c 128,-1,21
 197 167 197 167 253.5 133.5 c 128,-1,22
 310 100 310 100 378 100 c 0,23,24
 447 100 447 100 504 134 c 128,-1,25
 561 168 561 168 594 225.5 c 128,-1,26
 627 283 627 283 627 350 c 256,27,28
 627 417 627 417 594 474 c 128,-1,29
 561 531 561 531 504.5 564.5 c 128,-1,30
 448 598 448 598 380 598 c 0,31,16
 311 598 311 598 254.5 564 c 128,-1,17
459 496.5 m 128,-1,33
 495 481 495 481 519 455 c 1,34,-1
 465 390 l 1,35,36
 449 410 449 410 428.5 421.5 c 128,-1,37
 408 433 408 433 389 433 c 0,38,39
 355 433 355 433 333 409.5 c 128,-1,40
 311 386 311 386 311 351 c 0,41,42
 311 315 311 315 333 291.5 c 128,-1,43
 355 268 355 268 389 268 c 0,44,45
 407 268 407 268 428 278 c 128,-1,46
 449 288 449 288 465 304 c 1,47,-1
 519 246 l 1,48,49
 493 217 493 217 456.5 200.5 c 128,-1,50
 420 184 420 184 383 184 c 0,51,52
 335 184 335 184 296.5 205.5 c 128,-1,53
 258 227 258 227 236 264.5 c 128,-1,54
 214 302 214 302 214 349 c 0,55,56
 214 395 214 395 236.5 432.5 c 128,-1,57
 259 470 259 470 298.5 491 c 128,-1,58
 338 512 338 512 387 512 c 0,59,32
 423 512 423 512 459 496.5 c 128,-1,33
EndSplineSet
EndChar

StartChar: ordfeminine
Encoding: 170 170 109
Width: 398
Flags: W
LayerCount: 2
Fore
SplineSet
407.5 765.5 m 128,-1,1
 447 741 447 741 447 694 c 0,2,3
 447 678 447 678 445 670 c 2,4,-1
 402 458 l 1,5,-1
 268 458 l 1,6,-1
 275 494 l 1,7,8
 239 452 239 452 185 452 c 0,9,10
 133 452 133 452 102 475.5 c 128,-1,11
 71 499 71 499 71 538 c 0,12,13
 71 550 71 550 74 562 c 0,14,15
 82 608 82 608 119.5 630.5 c 128,-1,16
 157 653 157 653 226 654 c 2,17,-1
 307 654 l 1,18,19
 315 692 315 692 249 692 c 0,20,21
 209 692 209 692 149 671 c 1,22,-1
 136 759 l 1,23,24
 226 790 226 790 293 790 c 0,25,0
 368 790 368 790 407.5 765.5 c 128,-1,1
289 562 m 1,27,-1
 295 593 l 1,28,-1
 243 593 l 2,29,30
 226 593 226 593 216 585.5 c 128,-1,31
 206 578 206 578 204 565 c 0,32,33
 201 551 201 551 208.5 543.5 c 128,-1,34
 216 536 216 536 232 536 c 0,35,26
 265 536 265 536 289 562 c 1,27,-1
EndSplineSet
EndChar

StartChar: logicalnot
Encoding: 172 172 111
Width: 590
Flags: W
LayerCount: 2
Fore
SplineSet
562 439 m 1,0,-1
 537 313 l 1,1,-1
 501 133 l 1,2,-1
 357 133 l 1,3,-1
 393 313 l 1,4,-1
 39 313 l 1,5,-1
 65 439 l 1,6,-1
 562 439 l 1,0,-1
EndSplineSet
EndChar

StartChar: registered
Encoding: 174 174 113
Width: 728
Flags: W
LayerCount: 2
Fore
SplineSet
550.5 643.5 m 128,-1,1
 628 598 628 598 673 520 c 128,-1,2
 718 442 718 442 718 350 c 0,3,4
 718 259 718 259 673 180.5 c 128,-1,5
 628 102 628 102 550 55.5 c 128,-1,6
 472 9 472 9 378 9 c 0,7,8
 285 9 285 9 207.5 55 c 128,-1,9
 130 101 130 101 85.5 179 c 128,-1,10
 41 257 41 257 41 348 c 256,11,12
 41 439 41 439 86 517.5 c 128,-1,13
 131 596 131 596 208.5 642.5 c 128,-1,14
 286 689 286 689 380 689 c 0,15,0
 473 689 473 689 550.5 643.5 c 128,-1,1
504 134 m 128,-1,17
 561 168 561 168 594 225.5 c 128,-1,18
 627 283 627 283 627 350 c 256,19,20
 627 417 627 417 594 474 c 128,-1,21
 561 531 561 531 504.5 564.5 c 128,-1,22
 448 598 448 598 380 598 c 0,23,24
 311 598 311 598 254.5 564 c 128,-1,25
 198 530 198 530 165 472.5 c 128,-1,26
 132 415 132 415 132 348 c 256,27,28
 132 281 132 281 164.5 224 c 128,-1,29
 197 167 197 167 253.5 133.5 c 128,-1,30
 310 100 310 100 378 100 c 0,31,16
 447 100 447 100 504 134 c 128,-1,17
469 307 m 1,33,-1
 532 206 l 1,34,-1
 429 206 l 1,35,-1
 387 290 l 1,36,-1
 341 290 l 1,37,-1
 341 206 l 1,38,-1
 250 206 l 1,39,-1
 250 516 l 1,40,-1
 390 516 l 2,41,42
 453 516 453 516 487 487.5 c 128,-1,43
 521 459 521 459 521 407 c 0,44,32
 521 336 521 336 469 307 c 1,33,-1
341 359 m 1,45,-1
 390 359 l 2,46,47
 412 359 412 359 423.5 370.5 c 128,-1,48
 435 382 435 382 435 403 c 256,49,50
 435 424 435 424 423.5 435.5 c 128,-1,51
 412 447 412 447 390 447 c 2,52,-1
 341 447 l 1,53,-1
 341 359 l 1,45,-1
EndSplineSet
EndChar

StartChar: degree
Encoding: 176 176 115
Width: 394
Flags: W
LayerCount: 2
Fore
SplineSet
378 786 m 128,-1,1
 413 751 413 751 413 701 c 0,2,3
 413 652 413 652 378 617 c 128,-1,4
 343 582 343 582 293 582 c 256,5,6
 243 582 243 582 208 617 c 128,-1,7
 173 652 173 652 173 701 c 0,8,9
 173 751 173 751 208.5 786 c 128,-1,10
 244 821 244 821 293 821 c 0,11,0
 343 821 343 821 378 786 c 128,-1,1
262 732 m 128,-1,13
 249 719 249 719 249 701 c 256,14,15
 249 683 249 683 262 670 c 128,-1,16
 275 657 275 657 293 657 c 256,17,18
 311 657 311 657 324 670 c 128,-1,19
 337 683 337 683 337 701 c 256,20,21
 337 719 337 719 324 732 c 128,-1,22
 311 745 311 745 293 745 c 256,23,12
 275 745 275 745 262 732 c 128,-1,13
EndSplineSet
EndChar

StartChar: plusminus
Encoding: 177 177 116
Width: 586
Flags: W
LayerCount: 2
Fore
SplineSet
176 190 m 1,0,-1
 209 346 l 1,1,-1
 46 346 l 1,2,-1
 71 467 l 1,3,-1
 234 467 l 1,4,-1
 267 623 l 1,5,-1
 393 623 l 1,6,-1
 361 467 l 1,7,-1
 524 467 l 1,8,-1
 499 346 l 1,9,-1
 335 346 l 1,10,-1
 303 190 l 1,11,-1
 176 190 l 1,0,-1
46 -8 m 1,12,-1
 71 118 l 1,13,-1
 524 118 l 1,14,-1
 499 -8 l 1,15,-1
 46 -8 l 1,12,-1
EndSplineSet
EndChar

StartChar: uni00B5
Encoding: 181 181 120
Width: 702
Flags: W
LayerCount: 2
Fore
SplineSet
693 544 m 1,0,-1
 586 0 l 1,1,-1
 384 0 l 1,2,-1
 397 70 l 1,3,4
 331 -8 331 -8 233 -8 c 0,5,6
 220 -8 220 -8 213 -7 c 1,7,-1
 176 -194 l 1,8,-1
 -26 -194 l 1,9,-1
 53 202 l 1,10,-1
 56 221 l 1,11,-1
 121 544 l 1,12,-1
 323 544 l 1,13,-1
 265 251 l 2,14,15
 262 239 262 239 262 227 c 0,16,17
 262 197 262 197 279.5 179 c 128,-1,18
 297 161 297 161 327 161 c 0,19,20
 366 161 366 161 397 192.5 c 128,-1,21
 428 224 428 224 437 272 c 2,22,-1
 491 544 l 1,23,-1
 693 544 l 1,0,-1
EndSplineSet
EndChar

StartChar: paragraph
Encoding: 182 182 121
Width: 668
Flags: W
LayerCount: 2
Fore
SplineSet
533 -106 m 1,0,-1
 384 -106 l 1,1,-1
 531 630 l 1,2,-1
 447 630 l 1,3,-1
 299 -106 l 1,4,-1
 150 -106 l 1,5,-1
 233 307 l 1,6,-1
 209 307 l 2,7,8
 116 307 116 307 76.5 354 c 128,-1,9
 37 401 37 401 37 469 c 0,10,11
 37 493 37 493 42 520 c 0,12,13
 54 580 54 580 90 630 c 128,-1,14
 126 680 126 680 188.5 711 c 128,-1,15
 251 742 251 742 338 742 c 2,16,-1
 703 742 l 1,17,-1
 533 -106 l 1,0,-1
EndSplineSet
EndChar

StartChar: ordmasculine
Encoding: 186 186 125
Width: 420
Flags: W
LayerCount: 2
Fore
SplineSet
426.5 748 m 128,-1,1
 474 707 474 707 474 637 c 0,2,3
 474 583 474 583 447.5 541.5 c 128,-1,4
 421 500 421 500 373 477 c 128,-1,5
 325 454 325 454 263 454 c 0,6,7
 182 454 182 454 134.5 495.5 c 128,-1,8
 87 537 87 537 87 606 c 0,9,10
 87 689 87 689 145 739 c 128,-1,11
 203 789 203 789 297 789 c 0,12,0
 379 789 379 789 426.5 748 c 128,-1,1
242.5 664.5 m 128,-1,14
 225 644 225 644 225 611 c 0,15,16
 225 586 225 586 238 570.5 c 128,-1,17
 251 555 251 555 273 555 c 0,18,19
 300 555 300 555 317 575.5 c 128,-1,20
 334 596 334 596 334 628 c 0,21,22
 334 654 334 654 321 669.5 c 128,-1,23
 308 685 308 685 286 685 c 0,24,13
 260 685 260 685 242.5 664.5 c 128,-1,14
EndSplineSet
EndChar

StartChar: questiondown
Encoding: 191 191 130
Width: 484
Flags: W
LayerCount: 2
Fore
SplineSet
178.5 386 m 128,-1,1
 155 409 155 409 155 447 c 0,2,3
 155 492 155 492 184 521.5 c 128,-1,4
 213 551 213 551 258 551 c 0,5,6
 296 551 296 551 319.5 527.5 c 128,-1,7
 343 504 343 504 343 466 c 0,8,9
 343 420 343 420 314 391.5 c 128,-1,10
 285 363 285 363 241 363 c 0,11,0
 202 363 202 363 178.5 386 c 128,-1,1
358.5 -100 m 128,-1,13
 288 -164 288 -164 176 -164 c 0,14,15
 79 -164 79 -164 25 -122 c 128,-1,16
 -29 -80 -29 -80 -29 -4 c 0,17,18
 -29 38 -29 38 -14.5 70.5 c 128,-1,19
 0 103 0 103 20.5 126.5 c 128,-1,20
 41 150 41 150 75 180 c 0,21,22
 114 216 114 216 134 240.5 c 128,-1,23
 154 265 154 265 158 298 c 1,24,-1
 308 298 l 1,25,26
 301 240 301 240 278 204.5 c 128,-1,27
 255 169 255 169 217 133 c 0,28,29
 189 106 189 106 175.5 86 c 128,-1,30
 162 66 162 66 162 39 c 0,31,32
 162 -5 162 -5 212 -5 c 0,33,34
 245 -5 245 -5 263.5 15.5 c 128,-1,35
 282 36 282 36 288 79 c 1,36,-1
 443 79 l 1,37,12
 429 -36 429 -36 358.5 -100 c 128,-1,13
EndSplineSet
Substitution2: "<3,3> Small Caps in Latin lookup 11 subtable" questiondown.sc
EndChar

StartChar: AE
Encoding: 198 198 137
Width: 1129
Flags: W
LayerCount: 2
Fore
SplineSet
1132 541 m 1,0,-1
 767 541 l 1,1,-1
 745 431 l 1,2,-1
 1076 431 l 1,3,-1
 1044 271 l 1,4,-1
 713 271 l 1,5,-1
 691 160 l 1,6,-1
 1066 160 l 1,7,-1
 1034 0 l 1,8,-1
 451 0 l 1,9,-1
 478 133 l 1,10,-1
 250 133 l 1,11,-1
 156 0 l 1,12,-1
 -62 0 l 1,13,-1
 471 701 l 1,14,-1
 1164 701 l 1,15,-1
 1132 541 l 1,0,-1
357 283 m 1,16,-1
 508 283 l 1,17,-1
 559 542 l 1,18,-1
 541 542 l 1,19,-1
 357 283 l 1,16,-1
EndSplineSet
EndChar

StartChar: Ccedilla
Encoding: 199 199 138
Width: 716
Flags: W
LayerCount: 2
Fore
SplineSet
553.5 31.5 m 128,-1,1
 480 -4 480 -4 407 -12 c 1,2,-1
 383 -53 l 1,3,4
 419 -62 419 -62 436 -81.5 c 128,-1,5
 453 -101 453 -101 453 -126 c 0,6,7
 453 -182 453 -182 408 -210.5 c 128,-1,8
 363 -239 363 -239 298 -239 c 0,9,10
 239 -239 239 -239 186 -218 c 1,11,-1
 232 -129 l 1,12,13
 255 -139 255 -139 281 -139 c 0,14,15
 301 -139 301 -139 314.5 -131.5 c 128,-1,16
 328 -124 328 -124 328 -114 c 0,17,18
 328 -103 328 -103 313 -97 c 128,-1,19
 298 -91 298 -91 276 -91 c 2,20,-1
 254 -91 l 1,21,-1
 296 -7 l 1,22,23
 218 8 218 8 159.5 53.5 c 128,-1,24
 101 99 101 99 69 167.5 c 128,-1,25
 37 236 37 236 37 319 c 0,26,27
 37 430 37 430 92.5 520.5 c 128,-1,28
 148 611 148 611 243.5 662.5 c 128,-1,29
 339 714 339 714 453 714 c 0,30,31
 532 714 532 714 607 680 c 128,-1,32
 682 646 682 646 731 589 c 1,33,-1
 595 446 l 1,34,35
 566 490 566 490 523.5 515.5 c 128,-1,36
 481 541 481 541 438 541 c 0,37,38
 388 541 388 541 345 514 c 128,-1,39
 302 487 302 487 276.5 440 c 128,-1,40
 251 393 251 393 251 336 c 0,41,42
 251 288 251 288 270 250 c 128,-1,43
 289 212 289 212 323.5 190 c 128,-1,44
 358 168 358 168 401 168 c 0,45,46
 442 168 442 168 489.5 190.5 c 128,-1,47
 537 213 537 213 576 250 c 1,48,-1
 683 122 l 1,49,0
 627 67 627 67 553.5 31.5 c 128,-1,1
EndSplineSet
EndChar

StartChar: multiply
Encoding: 215 215 154
Width: 561
Flags: W
LayerCount: 2
Fore
SplineSet
497 443 m 1,0,-1
 382 328 l 1,1,-1
 497 213 l 1,2,-1
 408 123 l 1,3,-1
 292 238 l 1,4,-1
 177 123 l 1,5,-1
 87 213 l 1,6,-1
 202 328 l 1,7,-1
 87 443 l 1,8,-1
 177 533 l 1,9,-1
 292 418 l 1,10,-1
 408 533 l 1,11,-1
 497 443 l 1,0,-1
EndSplineSet
EndChar

StartChar: Oslash
Encoding: 216 216 155
Width: 809
Flags: W
LayerCount: 2
Fore
SplineSet
776.5 524 m 128,-1,1
 805 460 805 460 805 384 c 0,2,3
 805 273 805 273 749 182 c 128,-1,4
 693 91 693 91 596.5 38.5 c 128,-1,5
 500 -14 500 -14 384 -14 c 0,6,7
 299 -14 299 -14 228 17 c 1,8,-1
 174 -55 l 1,9,-1
 53 -55 l 1,10,-1
 146 68 l 1,11,12
 94 113 94 113 65.5 178 c 128,-1,13
 37 243 37 243 37 319 c 0,14,15
 37 430 37 430 93 520.5 c 128,-1,16
 149 611 149 611 245.5 662.5 c 128,-1,17
 342 714 342 714 458 714 c 0,18,19
 540 714 540 714 613 684 c 1,20,-1
 667 755 l 1,21,-1
 788 755 l 1,22,-1
 695 633 l 1,23,0
 748 588 748 588 776.5 524 c 128,-1,1
275 238 m 1,25,-1
 497 530 l 1,26,27
 470 541 470 541 443 541 c 0,28,29
 394 541 394 541 349.5 513.5 c 128,-1,30
 305 486 305 486 278 438 c 128,-1,31
 251 390 251 390 251 333 c 0,32,24
 251 281 251 281 275 238 c 1,25,-1
497 187 m 128,-1,34
 540 215 540 215 565.5 263.5 c 128,-1,35
 591 312 591 312 591 370 c 0,36,37
 591 424 591 424 568 465 c 1,38,-1
 346 172 l 1,39,40
 372 159 372 159 404 159 c 0,41,33
 454 159 454 159 497 187 c 128,-1,34
EndSplineSet
EndChar

StartChar: Thorn
Encoding: 222 222 161
Width: 707
Flags: W
LayerCount: 2
Fore
SplineSet
630 558 m 128,-1,1
 697 504 697 504 697 410 c 0,2,3
 697 322 697 322 652.5 253 c 128,-1,4
 608 184 608 184 527.5 145.5 c 128,-1,5
 447 107 447 107 343 107 c 2,6,-1
 233 107 l 1,7,-1
 212 0 l 1,8,-1
 4 0 l 1,9,-1
 144 701 l 1,10,-1
 352 701 l 1,11,-1
 334 612 l 1,12,-1
 445 612 l 2,13,0
 563 612 563 612 630 558 c 128,-1,1
448.5 297.5 m 128,-1,15
 479 330 479 330 479 381 c 0,16,17
 479 415 479 415 459.5 434 c 128,-1,18
 440 453 440 453 404 453 c 2,19,-1
 302 453 l 1,20,-1
 265 265 l 1,21,-1
 367 265 l 2,22,14
 418 265 418 265 448.5 297.5 c 128,-1,15
EndSplineSet
EndChar

StartChar: germandbls
Encoding: 223 223 162
Width: 670
Flags: W
LayerCount: 2
Fore
SplineSet
539.5 728.5 m 128,-1,1
 595 706 595 706 625.5 665 c 128,-1,2
 656 624 656 624 656 571 c 0,3,4
 656 517 656 517 623 466 c 128,-1,5
 590 415 590 415 534 384 c 1,6,7
 580 367 580 367 606.5 327 c 128,-1,8
 633 287 633 287 633 235 c 0,9,10
 633 167 633 167 590.5 113.5 c 128,-1,11
 548 60 548 60 472.5 30 c 128,-1,12
 397 0 397 0 301 0 c 2,13,-1
 253 0 l 1,14,-1
 282 142 l 1,15,-1
 313 142 l 2,16,17
 373 142 373 142 404.5 165.5 c 128,-1,18
 436 189 436 189 436 233 c 0,19,20
 436 293 436 293 338 293 c 2,21,-1
 317 293 l 1,22,-1
 345 435 l 1,23,24
 399 435 399 435 427 462 c 128,-1,25
 455 489 455 489 455 541 c 0,26,27
 455 570 455 570 439.5 585.5 c 128,-1,28
 424 601 424 601 395 601 c 0,29,30
 315 601 315 601 297 509 c 2,31,-1
 195 0 l 1,32,-1
 -7 0 l 1,33,-1
 92 494 l 2,34,35
 115 613 115 613 201 682 c 128,-1,36
 287 751 287 751 412 751 c 0,37,0
 484 751 484 751 539.5 728.5 c 128,-1,1
EndSplineSet
Substitution2: "<3,3> Small Caps in Latin lookup 11 subtable" germandbls.sc
EndChar

StartChar: ae
Encoding: 230 230 169
Width: 957
Flags: W
LayerCount: 2
Fore
SplineSet
53.5 33.5 m 128,-1,1
 2 77 2 77 2 149 c 0,2,3
 2 234 2 234 59 279 c 128,-1,4
 116 324 116 324 225 324 c 2,5,-1
 362 324 l 1,6,-1
 363 341 l 2,7,8
 364 401 364 401 279 401 c 0,9,10
 243 401 243 401 196.5 390.5 c 128,-1,11
 150 380 150 380 104 361 c 1,12,-1
 64 498 l 1,13,14
 133 525 133 525 201.5 538.5 c 128,-1,15
 270 552 270 552 329 552 c 0,16,17
 445 552 445 552 503 500 c 1,18,19
 571 551 571 551 667 551 c 0,20,21
 792 551 792 551 863 480.5 c 128,-1,22
 934 410 934 410 934 290 c 0,23,24
 934 263 934 263 929 228 c 1,25,-1
 560 228 l 1,26,-1
 560 216 l 2,27,28
 559 182 559 182 587 162 c 128,-1,29
 615 142 615 142 654 142 c 0,30,31
 687 142 687 142 720 156.5 c 128,-1,32
 753 171 753 171 781 197 c 1,33,-1
 882 88 l 1,34,35
 787 -7 787 -7 634 -7 c 0,36,37
 557 -7 557 -7 502.5 21 c 128,-1,38
 448 49 448 49 419 99 c 1,39,40
 383 45 383 45 326 17.5 c 128,-1,41
 269 -10 269 -10 194 -10 c 0,42,0
 105 -10 105 -10 53.5 33.5 c 128,-1,1
736 324 m 1,43,44
 737 330 737 330 737 341 c 0,45,46
 737 376 737 376 718 395.5 c 128,-1,47
 699 415 699 415 667 415 c 0,48,49
 630 415 630 415 603 389.5 c 128,-1,50
 576 364 576 364 566 324 c 1,51,-1
 736 324 l 1,43,44
301.5 135 m 128,-1,53
 328 150 328 150 348 177 c 1,54,-1
 354 228 l 1,55,-1
 264 228 l 2,56,57
 232 230 232 230 212.5 212.5 c 128,-1,58
 193 195 193 195 193 164 c 0,59,60
 193 143 193 143 206.5 131.5 c 128,-1,61
 220 120 220 120 245 120 c 0,62,52
 275 120 275 120 301.5 135 c 128,-1,53
EndSplineSet
Substitution2: "<3,3> Small Caps in Latin lookup 11 subtable" ae.sc
EndChar

StartChar: ccedilla
Encoding: 231 231 170
Width: 578
Flags: W
LayerCount: 2
Fore
SplineSet
396 213 m 1,1,-1
 545 134 l 1,2,3
 511 73 511 73 449.5 36.5 c 128,-1,4
 388 0 388 0 309 -6 c 1,5,-1
 281 -53 l 1,6,7
 317 -62 317 -62 334 -81.5 c 128,-1,8
 351 -101 351 -101 351 -126 c 0,9,10
 351 -182 351 -182 306 -210.5 c 128,-1,11
 261 -239 261 -239 196 -239 c 0,12,13
 137 -239 137 -239 84 -218 c 1,14,-1
 130 -129 l 1,15,16
 153 -139 153 -139 179 -139 c 0,17,18
 199 -139 199 -139 212.5 -131.5 c 128,-1,19
 226 -124 226 -124 226 -114 c 0,20,21
 226 -103 226 -103 211 -97 c 128,-1,22
 196 -91 196 -91 174 -91 c 2,23,-1
 152 -91 l 1,24,-1
 199 2 l 1,25,26
 115 22 115 22 67.5 85.5 c 128,-1,27
 20 149 20 149 20 241 c 0,28,29
 20 332 20 332 60 402.5 c 128,-1,30
 100 473 100 473 171.5 512 c 128,-1,31
 243 551 243 551 335 551 c 0,32,33
 420 551 420 551 481.5 514 c 128,-1,34
 543 477 543 477 571 409 c 1,35,-1
 409 333 l 1,36,37
 398 359 398 359 377 373 c 128,-1,38
 356 387 356 387 327 387 c 0,39,40
 283 387 283 387 254 350 c 128,-1,41
 225 313 225 313 225 255 c 0,42,43
 225 208 225 208 246 180.5 c 128,-1,44
 267 153 267 153 304 153 c 0,45,0
 365 153 365 153 396 213 c 1,1,-1
EndSplineSet
Substitution2: "<3,3> Small Caps in Latin lookup 11 subtable" ccedilla.sc
EndChar

StartChar: eth
Encoding: 240 240 179
Width: 614
Flags: W
LayerCount: 2
Fore
SplineSet
483 619 m 1,0,1
 539 558 539 558 569 485 c 128,-1,2
 599 412 599 412 599 332 c 0,3,4
 599 233 599 233 557.5 156 c 128,-1,5
 516 79 516 79 441 36 c 128,-1,6
 366 -7 366 -7 268 -7 c 0,7,8
 188 -7 188 -7 129.5 19.5 c 128,-1,9
 71 46 71 46 39.5 94 c 128,-1,10
 8 142 8 142 8 207 c 0,11,12
 8 277 8 277 38 332 c 128,-1,13
 68 387 68 387 122.5 418 c 128,-1,14
 177 449 177 449 248 449 c 0,15,16
 296 449 296 449 341 434 c 128,-1,17
 386 419 386 419 410 397 c 1,18,19
 395 474 395 474 322 552 c 1,20,-1
 145 479 l 1,21,-1
 116 548 l 1,22,-1
 260 608 l 1,23,24
 208 648 208 648 148 677 c 1,25,-1
 290 751 l 1,26,27
 360 722 360 722 421 676 c 1,28,-1
 585 744 l 1,29,-1
 613 673 l 1,30,-1
 483 619 l 1,0,1
346 185.5 m 128,-1,32
 374 213 374 213 374 250 c 0,33,34
 374 279 374 279 355 296.5 c 128,-1,35
 336 314 336 314 300 314 c 0,36,37
 257 314 257 314 229 286.5 c 128,-1,38
 201 259 201 259 201 220 c 0,39,40
 201 192 201 192 220.5 175 c 128,-1,41
 240 158 240 158 273 158 c 0,42,31
 318 158 318 158 346 185.5 c 128,-1,32
EndSplineSet
Substitution2: "<3,3> Small Caps in Latin lookup 11 subtable" eth.sc
EndChar

StartChar: divide
Encoding: 247 247 186
Width: 515
Flags: W
LayerCount: 2
Fore
SplineSet
376 574.5 m 128,-1,1
 395 555 395 555 395 524 c 0,2,3
 395 481 395 481 365 451.5 c 128,-1,4
 335 422 335 422 291 422 c 0,5,6
 259 422 259 422 239.5 441.5 c 128,-1,7
 220 461 220 461 220 492 c 0,8,9
 220 535 220 535 250.5 564.5 c 128,-1,10
 281 594 281 594 325 594 c 0,11,0
 357 594 357 594 376 574.5 c 128,-1,1
508 391 m 1,12,-1
 483 265 l 1,13,-1
 30 265 l 1,14,-1
 55 391 l 1,15,-1
 508 391 l 1,12,-1
305 215.5 m 128,-1,17
 324 196 324 196 324 165 c 0,18,19
 324 122 324 122 294 92.5 c 128,-1,20
 264 63 264 63 220 63 c 0,21,22
 188 63 188 63 168.5 82.5 c 128,-1,23
 149 102 149 102 149 133 c 0,24,25
 149 176 149 176 179.5 205.5 c 128,-1,26
 210 235 210 235 254 235 c 0,27,16
 286 235 286 235 305 215.5 c 128,-1,17
EndSplineSet
EndChar

StartChar: oslash
Encoding: 248 248 187
Width: 649
Flags: W
LayerCount: 2
Fore
SplineSet
603.5 417.5 m 128,-1,1
 629 366 629 366 629 300 c 0,2,3
 629 209 629 209 587 139.5 c 128,-1,4
 545 70 545 70 469.5 31.5 c 128,-1,5
 394 -7 394 -7 297 -7 c 0,6,7
 241 -7 241 -7 188 9 c 1,8,-1
 124 -83 l 1,9,-1
 37 -83 l 1,10,-1
 123 40 l 1,11,12
 74 73 74 73 47.5 125.5 c 128,-1,13
 21 178 21 178 21 245 c 0,14,15
 21 335 21 335 63 404.5 c 128,-1,16
 105 474 105 474 180.5 512.5 c 128,-1,17
 256 551 256 551 353 551 c 0,18,19
 414 551 414 551 467 534 c 1,20,-1
 532 627 l 1,21,-1
 619 627 l 1,22,-1
 531 501 l 1,23,0
 578 469 578 469 603.5 417.5 c 128,-1,1
226 188 m 1,25,-1
 374 400 l 1,26,27
 358 406 358 406 339 406 c 0,28,29
 284 406 284 406 248.5 363 c 128,-1,30
 213 320 213 320 213 253 c 0,31,24
 213 214 213 214 226 188 c 1,25,-1
401.5 176 m 128,-1,33
 437 219 437 219 437 287 c 0,34,35
 437 324 437 324 425 349 c 1,36,-1
 278 138 l 1,37,38
 295 133 295 133 311 133 c 0,39,32
 366 133 366 133 401.5 176 c 128,-1,33
EndSplineSet
Substitution2: "<3,3> Small Caps in Latin lookup 11 subtable" oslash.sc
EndChar

StartChar: thorn
Encoding: 254 254 193
Width: 693
Flags: W
LayerCount: 2
Fore
SplineSet
576 521 m 128,-1,1
 623 491 623 491 649 437 c 128,-1,2
 675 383 675 383 675 314 c 0,3,4
 675 225 675 225 637.5 151.5 c 128,-1,5
 600 78 600 78 534.5 35.5 c 128,-1,6
 469 -7 469 -7 391 -7 c 0,7,8
 335 -7 335 -7 294 15.5 c 128,-1,9
 253 38 253 38 230 81 c 1,10,-1
 175 -194 l 1,11,-1
 -27 -194 l 1,12,-1
 160 742 l 1,13,-1
 362 742 l 1,14,-1
 311 485 l 1,15,16
 382 551 382 551 469 551 c 0,17,0
 529 551 529 551 576 521 c 128,-1,1
328.5 380.5 m 128,-1,19
 301 361 301 361 285 328 c 128,-1,20
 269 295 269 295 269 256 c 0,21,22
 269 211 269 211 292 184.5 c 128,-1,23
 315 158 315 158 354 158 c 0,24,25
 386 158 386 158 412.5 177.5 c 128,-1,26
 439 197 439 197 455 229.5 c 128,-1,27
 471 262 471 262 471 301 c 0,28,29
 471 347 471 347 448.5 373.5 c 128,-1,30
 426 400 426 400 388 400 c 0,31,18
 356 400 356 400 328.5 380.5 c 128,-1,19
EndSplineSet
Substitution2: "<3,3> Small Caps in Latin lookup 11 subtable" thorn.sc
EndChar

StartChar: Aogonek
Encoding: 260 260 199
Width: 786
Flags: W
LayerCount: 2
Fore
SplineSet
604.5 -52 m 128,-1,1
 581 -76 581 -76 581 -101 c 0,2,3
 581 -120 581 -120 598 -120 c 0,4,5
 609 -120 609 -120 627 -112 c 1,6,-1
 636 -215 l 1,7,8
 578 -238 578 -238 528 -238 c 0,9,10
 481 -238 481 -238 457.5 -214 c 128,-1,11
 434 -190 434 -190 434 -150 c 0,12,13
 434 -74 434 -74 516 1 c 1,14,-1
 494 112 l 1,15,-1
 211 112 l 1,16,-1
 150 0 l 1,17,-1
 -62 0 l 1,18,-1
 352 701 l 1,19,-1
 566 701 l 1,20,-1
 739 0 l 1,21,-1
 673 0 l 1,22,0
 628 -28 628 -28 604.5 -52 c 128,-1,1
294 264 m 1,23,-1
 464 264 l 1,24,-1
 419 495 l 1,25,-1
 294 264 l 1,23,-1
EndSplineSet
EndChar

StartChar: aogonek
Encoding: 261 261 200
Width: 688
Flags: W
LayerCount: 2
Fore
SplineSet
680 544 m 1,0,-1
 572 0 l 1,1,-1
 526 0 l 1,2,3
 481 -28 481 -28 457.5 -52 c 128,-1,4
 434 -76 434 -76 434 -101 c 0,5,6
 434 -120 434 -120 451 -120 c 0,7,8
 462 -120 462 -120 480 -112 c 1,9,-1
 489 -215 l 1,10,11
 431 -238 431 -238 381 -238 c 0,12,13
 334 -238 334 -238 310.5 -214 c 128,-1,14
 287 -190 287 -190 287 -150 c 0,15,16
 287 -74 287 -74 371 3 c 1,17,-1
 382 59 l 1,18,19
 313 -7 313 -7 224 -7 c 0,20,21
 164 -7 164 -7 117 23 c 128,-1,22
 70 53 70 53 44 106.5 c 128,-1,23
 18 160 18 160 18 230 c 0,24,25
 18 319 18 319 55.5 392.5 c 128,-1,26
 93 466 93 466 158.5 508.5 c 128,-1,27
 224 551 224 551 302 551 c 0,28,29
 358 551 358 551 399 528.5 c 128,-1,30
 440 506 440 506 463 463 c 1,31,-1
 479 544 l 1,32,-1
 680 544 l 1,0,-1
364.5 163.5 m 128,-1,34
 392 183 392 183 408 216 c 128,-1,35
 424 249 424 249 424 288 c 0,36,37
 424 332 424 332 401 359 c 128,-1,38
 378 386 378 386 339 386 c 0,39,40
 307 386 307 386 280.5 366.5 c 128,-1,41
 254 347 254 347 238 314.5 c 128,-1,42
 222 282 222 282 222 243 c 0,43,44
 222 197 222 197 244.5 170.5 c 128,-1,45
 267 144 267 144 305 144 c 0,46,33
 337 144 337 144 364.5 163.5 c 128,-1,34
EndSplineSet
Substitution2: "<3,3> Small Caps in Latin lookup 11 subtable" aogonek.sc
EndChar

StartChar: Dcroat
Encoding: 272 272 211
Width: 764
Flags: W
LayerCount: 2
Fore
SplineSet
616 661.5 m 128,-1,1
 692 622 692 622 730.5 550.5 c 128,-1,2
 769 479 769 479 764 385 c 0,3,4
 758 272 758 272 699.5 184.5 c 128,-1,5
 641 97 641 97 542.5 48.5 c 128,-1,6
 444 0 444 0 322 0 c 2,7,-1
 5 0 l 1,8,-1
 65 305 l 1,9,-1
 -3 305 l 1,10,-1
 15 396 l 1,11,-1
 84 396 l 1,12,-1
 144 701 l 1,13,-1
 436 701 l 2,14,0
 540 701 540 701 616 661.5 c 128,-1,1
514.5 491 m 128,-1,16
 475 537 475 537 406 537 c 2,17,-1
 320 537 l 1,18,-1
 292 396 l 1,19,-1
 421 396 l 1,20,-1
 403 305 l 1,21,-1
 274 305 l 1,22,-1
 246 163 l 1,23,-1
 360 163 l 2,24,25
 411 163 411 163 453 189 c 128,-1,26
 495 215 495 215 521 262 c 128,-1,27
 547 309 547 309 550 370 c 0,28,15
 554 445 554 445 514.5 491 c 128,-1,16
EndSplineSet
EndChar

StartChar: dcroat
Encoding: 273 273 212
Width: 683
Flags: W
LayerCount: 2
Fore
SplineSet
748 572 m 1,0,-1
 686 572 l 1,1,-1
 573 0 l 1,2,-1
 372 0 l 1,3,-1
 383 52 l 1,4,5
 313 -7 313 -7 226 -7 c 0,6,7
 165 -7 165 -7 117 21.5 c 128,-1,8
 69 50 69 50 42.5 101 c 128,-1,9
 16 152 16 152 16 218 c 0,10,11
 16 300 16 300 53 367.5 c 128,-1,12
 90 435 90 435 154 474.5 c 128,-1,13
 218 514 218 514 295 514 c 0,14,15
 351 514 351 514 392.5 494.5 c 128,-1,16
 434 475 434 475 457 437 c 1,17,-1
 484 572 l 1,18,-1
 323 572 l 1,19,-1
 342 665 l 1,20,-1
 503 665 l 1,21,-1
 519 742 l 1,22,-1
 720 742 l 1,23,-1
 705 665 l 1,24,-1
 767 665 l 1,25,-1
 748 572 l 1,0,-1
386.5 179.5 m 128,-1,27
 421 215 421 215 421 265 c 0,28,29
 421 303 421 303 398 325.5 c 128,-1,30
 375 348 375 348 335 348 c 0,31,32
 287 348 287 348 253.5 313 c 128,-1,33
 220 278 220 278 220 228 c 0,34,35
 220 188 220 188 242.5 166 c 128,-1,36
 265 144 265 144 304 144 c 0,37,26
 352 144 352 144 386.5 179.5 c 128,-1,27
EndSplineSet
Substitution2: "<3,3> Small Caps in Latin lookup 11 subtable" dcroat.sc
EndChar

StartChar: Eogonek
Encoding: 280 280 219
Width: 683
Flags: W
LayerCount: 2
Fore
SplineSet
320 541 m 1,0,-1
 298 431 l 1,1,-1
 630 431 l 1,2,-1
 598 271 l 1,3,-1
 266 271 l 1,4,-1
 243 160 l 1,5,-1
 619 160 l 1,6,-1
 587 0 l 1,7,8
 542 -28 542 -28 518.5 -52 c 128,-1,9
 495 -76 495 -76 495 -101 c 0,10,11
 495 -120 495 -120 512 -120 c 0,12,13
 523 -120 523 -120 541 -112 c 1,14,-1
 550 -215 l 1,15,16
 492 -238 492 -238 442 -238 c 0,17,18
 395 -238 395 -238 371.5 -214 c 128,-1,19
 348 -190 348 -190 348 -150 c 0,20,21
 348 -74 348 -74 429 0 c 1,22,-1
 4 0 l 1,23,-1
 144 701 l 1,24,-1
 718 701 l 1,25,-1
 686 541 l 1,26,-1
 320 541 l 1,0,-1
EndSplineSet
EndChar

StartChar: eogonek
Encoding: 281 281 220
Width: 619
Flags: W
LayerCount: 2
Fore
SplineSet
472 519 m 128,-1,1
 534 488 534 488 567 432 c 128,-1,2
 600 376 600 376 600 302 c 0,3,4
 600 264 600 264 591 223 c 1,5,-1
 218 223 l 1,6,7
 223 183 223 183 249 162 c 128,-1,8
 275 141 275 141 318 141 c 0,9,10
 381 141 381 141 436 184 c 1,11,-1
 538 79 l 1,12,13
 524 67 524 67 517 62 c 0,14,15
 464 21 464 21 431 -24 c 128,-1,16
 398 -69 398 -69 398 -100 c 0,17,18
 398 -120 398 -120 415 -120 c 0,19,20
 427 -120 427 -120 443 -112 c 1,21,-1
 452 -215 l 1,22,23
 395 -238 395 -238 348 -238 c 0,24,25
 303 -238 303 -238 276.5 -216.5 c 128,-1,26
 250 -195 250 -195 250 -152 c 0,27,28
 250 -112 250 -112 269.5 -77.5 c 128,-1,29
 289 -43 289 -43 331 -7 c 1,30,-1
 311 -7 l 2,31,32
 223 -7 223 -7 157 23 c 128,-1,33
 91 53 91 53 55 109 c 128,-1,34
 19 165 19 165 19 239 c 0,35,36
 19 328 19 328 59 399 c 128,-1,37
 99 470 99 470 169 510 c 128,-1,38
 239 550 239 550 327 550 c 0,39,0
 410 550 410 550 472 519 c 128,-1,1
409 344 m 0,41,42
 409 374 409 374 390 392.5 c 128,-1,43
 371 411 371 411 340 411 c 0,44,45
 306 411 306 411 277 386.5 c 128,-1,46
 248 362 248 362 232 322 c 1,47,-1
 406 322 l 1,48,40
 409 334 409 334 409 344 c 0,41,42
EndSplineSet
Substitution2: "<3,3> Small Caps in Latin lookup 11 subtable" eogonek.sc
EndChar

StartChar: Hbar
Encoding: 294 294 233
Width: 875
Flags: W
LayerCount: 2
Fore
SplineSet
919 606 m 1,0,-1
 901 515 l 1,1,-1
 819 515 l 1,2,-1
 716 0 l 1,3,-1
 507 0 l 1,4,-1
 559 261 l 1,5,-1
 310 261 l 1,6,-1
 258 0 l 1,7,-1
 50 0 l 1,8,-1
 153 515 l 1,9,-1
 71 515 l 1,10,-1
 89 607 l 1,11,-1
 171 607 l 1,12,-1
 190 701 l 1,13,-1
 398 701 l 1,14,-1
 379 607 l 1,15,-1
 628 606 l 1,16,-1
 647 701 l 1,17,-1
 856 701 l 1,18,-1
 837 606 l 1,19,-1
 919 606 l 1,0,-1
591 421 m 1,20,-1
 610 515 l 1,21,-1
 361 515 l 1,22,-1
 342 421 l 1,23,-1
 591 421 l 1,20,-1
EndSplineSet
EndChar

StartChar: hbar
Encoding: 295 295 234
Width: 682
Flags: W
LayerCount: 2
Fore
SplineSet
598.5 466.5 m 128,-1,1
 649 419 649 419 649 344 c 0,2,3
 649 321 649 321 645 301 c 2,4,-1
 586 0 l 1,5,-1
 384 0 l 1,6,-1
 438 270 l 2,7,8
 440 282 440 282 440 288 c 0,9,10
 440 314 440 314 422.5 329.5 c 128,-1,11
 405 345 405 345 374 345 c 0,12,13
 336 345 336 345 305.5 318 c 128,-1,14
 275 291 275 291 266 249 c 2,15,-1
 216 0 l 1,16,-1
 14 0 l 1,17,-1
 127 572 l 1,18,-1
 64 572 l 1,19,-1
 83 665 l 1,20,-1
 145 665 l 1,21,-1
 160 742 l 1,22,-1
 363 742 l 1,23,-1
 347 665 l 1,24,-1
 508 665 l 1,25,-1
 490 572 l 1,26,-1
 328 572 l 1,27,-1
 302 443 l 1,28,29
 368 514 368 514 465 514 c 0,30,0
 548 514 548 514 598.5 466.5 c 128,-1,1
EndSplineSet
Substitution2: "<3,3> Small Caps in Latin lookup 11 subtable" hbar.sc
EndChar

StartChar: Iogonek
Encoding: 302 302 241
Width: 326
Flags: W
LayerCount: 2
Fore
SplineSet
352 701 m 1,0,-1
 212 0 l 1,1,-1
 161 0 l 1,2,3
 116 -28 116 -28 92.5 -52 c 128,-1,4
 69 -76 69 -76 69 -101 c 0,5,6
 69 -120 69 -120 86 -120 c 0,7,8
 97 -120 97 -120 115 -112 c 1,9,-1
 124 -215 l 1,10,11
 66 -238 66 -238 16 -238 c 0,12,13
 -31 -238 -31 -238 -54.5 -214 c 128,-1,14
 -78 -190 -78 -190 -78 -150 c 0,15,16
 -78 -73 -78 -73 4 2 c 1,17,-1
 144 701 l 1,18,-1
 352 701 l 1,0,-1
EndSplineSet
EndChar

StartChar: iogonek
Encoding: 303 303 242
Width: 325
Flags: W
LayerCount: 2
Fore
SplineSet
163.5 618.5 m 128,-1,1
 140 642 140 642 140 680 c 0,2,3
 140 732 140 732 177 767.5 c 128,-1,4
 214 803 214 803 267 803 c 0,5,6
 306 803 306 803 329.5 779.5 c 128,-1,7
 353 756 353 756 353 718 c 0,8,9
 353 666 353 666 316 630.5 c 128,-1,10
 279 595 279 595 226 595 c 0,11,0
 187 595 187 595 163.5 618.5 c 128,-1,1
116 544 m 1,12,-1
 318 544 l 1,13,-1
 209 0 l 1,14,-1
 163 0 l 1,15,16
 118 -28 118 -28 94.5 -52 c 128,-1,17
 71 -76 71 -76 71 -101 c 0,18,19
 71 -120 71 -120 88 -120 c 0,20,21
 99 -120 99 -120 117 -112 c 1,22,-1
 126 -215 l 1,23,24
 68 -238 68 -238 18 -238 c 0,25,26
 -29 -238 -29 -238 -52.5 -214 c 128,-1,27
 -76 -190 -76 -190 -76 -150 c 0,28,29
 -76 -74 -76 -74 8 3 c 1,30,-1
 116 544 l 1,12,-1
EndSplineSet
Substitution2: "<3,3> Small Caps in Latin lookup 11 subtable" iogonek.sc
EndChar

StartChar: dotlessi
Encoding: 305 305 244
Width: 325
Flags: W
LayerCount: 2
Fore
SplineSet
318 544 m 1,0,-1
 209 0 l 1,1,-1
 7 0 l 1,2,-1
 116 544 l 1,3,-1
 318 544 l 1,0,-1
EndSplineSet
Substitution2: "<3,3> Small Caps in Latin lookup 11 subtable" dotlessi.sc
EndChar

StartChar: kgreenlandic
Encoding: 312 312 251
Width: 664
Flags: W
LayerCount: 2
Fore
SplineSet
717 544 m 1,0,-1
 461 322 l 1,1,-1
 597 0 l 1,2,-1
 363 0 l 1,3,-1
 302 185 l 1,4,-1
 234 126 l 1,5,-1
 209 0 l 1,6,-1
 7 0 l 1,7,-1
 116 544 l 1,8,-1
 318 544 l 1,9,-1
 286 382 l 1,10,-1
 466 544 l 1,11,-1
 717 544 l 1,0,-1
EndSplineSet
Substitution2: "<3,3> Small Caps in Latin lookup 11 subtable" kgreenlandic.sc
EndChar

StartChar: Lslash
Encoding: 321 321 260
Width: 611
Flags: W
LayerCount: 2
Fore
SplineSet
285 174 m 1,0,-1
 579 174 l 1,1,-1
 544 0 l 1,2,-1
 41 0 l 1,3,-1
 94 264 l 1,4,-1
 4 222 l 1,5,-1
 25 331 l 1,6,-1
 116 373 l 1,7,-1
 181 701 l 1,8,-1
 390 701 l 1,9,-1
 346 481 l 1,10,-1
 471 539 l 1,11,-1
 449 430 l 1,12,-1
 324 372 l 1,13,-1
 285 174 l 1,0,-1
EndSplineSet
EndChar

StartChar: lslash
Encoding: 322 322 261
Width: 434
Flags: W
LayerCount: 2
Fore
SplineSet
470 539 m 1,0,-1
 449 430 l 1,1,-1
 336 377 l 1,2,-1
 261 0 l 1,3,-1
 59 0 l 1,4,-1
 114 274 l 1,5,-1
 3 222 l 1,6,-1
 25 331 l 1,7,-1
 135 383 l 1,8,-1
 207 742 l 1,9,-1
 409 742 l 1,10,-1
 358 487 l 1,11,-1
 470 539 l 1,0,-1
EndSplineSet
Substitution2: "<3,3> Small Caps in Latin lookup 11 subtable" lslash.sc
EndChar

StartChar: Eng
Encoding: 330 330 269
Width: 783
Flags: W
LayerCount: 2
Fore
SplineSet
810 701 m 1,0,-1
 670 0 l 1,1,2
 643 -104 643 -104 563 -162 c 128,-1,3
 483 -220 483 -220 371 -220 c 0,4,5
 274 -220 274 -220 206 -172 c 1,6,-1
 309 -16 l 1,7,8
 364 -45 364 -45 406 -45 c 0,9,10
 466 -45 466 -45 484 14 c 1,11,-1
 274 390 l 1,12,-1
 196 0 l 1,13,-1
 4 0 l 1,14,-1
 144 701 l 1,15,-1
 322 701 l 1,16,-1
 541 309 l 1,17,-1
 619 701 l 1,18,-1
 810 701 l 1,0,-1
EndSplineSet
EndChar

StartChar: eng
Encoding: 331 331 270
Width: 679
Flags: W
LayerCount: 2
Fore
SplineSet
609.5 510.5 m 128,-1,1
 652 469 652 469 652 397 c 0,2,3
 652 368 652 368 647 345 c 2,4,-1
 574 -21 l 2,5,6
 557 -105 557 -105 490 -153.5 c 128,-1,7
 423 -202 423 -202 330 -202 c 0,8,9
 246 -202 246 -202 189 -168 c 1,10,-1
 265 -28 l 1,11,12
 291 -45 291 -45 319 -45 c 0,13,14
 367 -45 367 -45 377 7 c 2,15,-1
 434 287 l 2,16,17
 437 301 437 301 437 312 c 0,18,19
 437 341 437 341 420 358 c 128,-1,20
 403 375 403 375 373 375 c 0,21,22
 333 375 333 375 303 347 c 128,-1,23
 273 319 273 319 264 274 c 2,24,-1
 209 0 l 1,25,-1
 7 0 l 1,26,-1
 116 544 l 1,27,-1
 318 544 l 1,28,-1
 302 461 l 1,29,30
 339 506 339 506 387 529 c 128,-1,31
 435 552 435 552 492 552 c 0,32,0
 567 552 567 552 609.5 510.5 c 128,-1,1
EndSplineSet
Substitution2: "<3,3> Small Caps in Latin lookup 11 subtable" eng.sc
EndChar

StartChar: OE
Encoding: 338 338 277
Width: 1127
Flags: W
LayerCount: 2
Fore
SplineSet
764 541 m 1,0,-1
 743 431 l 1,1,-1
 1073 431 l 1,2,-1
 1041 271 l 1,3,-1
 711 271 l 1,4,-1
 689 160 l 1,5,-1
 1064 160 l 1,6,-1
 1031 0 l 1,7,-1
 386 0 l 2,8,9
 287 0 287 0 207.5 41.5 c 128,-1,10
 128 83 128 83 82.5 158 c 128,-1,11
 37 233 37 233 37 328 c 0,12,13
 37 431 37 431 93 516.5 c 128,-1,14
 149 602 149 602 245 651.5 c 128,-1,15
 341 701 341 701 457 701 c 2,16,-1
 1162 701 l 1,17,-1
 1130 541 l 1,18,-1
 764 541 l 1,0,-1
481 166 m 1,19,-1
 555 532 l 1,20,-1
 440 532 l 2,21,22
 388 532 388 532 345 506 c 128,-1,23
 302 480 302 480 276.5 435 c 128,-1,24
 251 390 251 390 251 335 c 0,25,26
 251 262 251 262 293.5 214 c 128,-1,27
 336 166 336 166 404 166 c 2,28,-1
 481 166 l 1,19,-1
EndSplineSet
EndChar

StartChar: oe
Encoding: 339 339 278
Width: 1015
Flags: W
LayerCount: 2
Fore
SplineSet
923.5 482 m 128,-1,1
 992 413 992 413 992 294 c 0,2,3
 992 256 992 256 987 227 c 1,4,-1
 614 227 l 1,5,6
 622 186 622 186 648.5 164 c 128,-1,7
 675 142 675 142 714 142 c 0,8,9
 778 142 778 142 841 194 c 1,10,-1
 936 91 l 1,11,12
 836 -7 836 -7 682 -7 c 0,13,14
 561 -7 561 -7 502 71 c 1,15,16
 424 -7 424 -7 298 -7 c 0,17,18
 214 -7 214 -7 151 24 c 128,-1,19
 88 55 88 55 54.5 112 c 128,-1,20
 21 169 21 169 21 245 c 0,21,22
 21 335 21 335 63 404.5 c 128,-1,23
 105 474 105 474 180.5 512.5 c 128,-1,24
 256 551 256 551 353 551 c 0,25,26
 476 551 476 551 537 471 c 1,27,28
 611 551 611 551 732 551 c 0,29,0
 855 551 855 551 923.5 482 c 128,-1,1
795 337 m 0,31,32
 795 372 795 372 774.5 393.5 c 128,-1,33
 754 415 754 415 721 415 c 0,34,35
 684 415 684 415 657.5 389.5 c 128,-1,36
 631 364 631 364 619 322 c 1,37,-1
 794 322 l 1,38,30
 795 327 795 327 795 337 c 0,31,32
393 186.5 m 128,-1,40
 424 224 424 224 424 285 c 0,41,42
 424 333 424 333 400.5 362 c 128,-1,43
 377 391 377 391 337 391 c 0,44,45
 288 391 288 391 257 353 c 128,-1,46
 226 315 226 315 226 254 c 0,47,48
 226 206 226 206 249.5 177.5 c 128,-1,49
 273 149 273 149 313 149 c 0,50,39
 362 149 362 149 393 186.5 c 128,-1,40
EndSplineSet
Substitution2: "<3,3> Small Caps in Latin lookup 11 subtable" oe.sc
EndChar

StartChar: Scedilla
Encoding: 350 350 289
Width: 642
Flags: W
LayerCount: 2
Fore
SplineSet
313 468 m 128,-1,1
 341 453 341 453 401 435 c 0,2,3
 468 414 468 414 510.5 395 c 128,-1,4
 553 376 553 376 584.5 336.5 c 128,-1,5
 616 297 616 297 616 233 c 0,6,7
 616 158 616 158 579 104.5 c 128,-1,8
 542 51 542 51 478.5 22 c 128,-1,9
 415 -7 415 -7 337 -12 c 1,10,-1
 313 -53 l 1,11,12
 349 -62 349 -62 366 -81.5 c 128,-1,13
 383 -101 383 -101 383 -126 c 0,14,15
 383 -182 383 -182 338 -210.5 c 128,-1,16
 293 -239 293 -239 228 -239 c 0,17,18
 169 -239 169 -239 116 -218 c 1,19,-1
 162 -129 l 1,20,21
 185 -139 185 -139 211 -139 c 0,22,23
 231 -139 231 -139 244.5 -131.5 c 128,-1,24
 258 -124 258 -124 258 -114 c 0,25,26
 258 -103 258 -103 243 -97 c 128,-1,27
 228 -91 228 -91 206 -91 c 2,28,-1
 184 -91 l 1,29,-1
 226 -7 l 1,30,31
 155 4 155 4 90 32 c 128,-1,32
 25 60 25 60 -22 101 c 1,33,-1
 73 260 l 1,34,35
 121 214 121 214 194 182 c 128,-1,36
 267 150 267 150 322 150 c 0,37,38
 358 150 358 150 378.5 164 c 128,-1,39
 399 178 399 178 399 204 c 0,40,41
 399 231 399 231 371 245.5 c 128,-1,42
 343 260 343 260 282 277 c 0,43,44
 216 296 216 296 173 315 c 128,-1,45
 130 334 130 334 98.5 372 c 128,-1,46
 67 410 67 410 67 472 c 0,47,48
 67 546 67 546 106.5 601 c 128,-1,49
 146 656 146 656 217 686 c 128,-1,50
 288 716 288 716 381 716 c 0,51,52
 459 716 459 716 535 694 c 128,-1,53
 611 672 611 672 666 635 c 1,54,-1
 572 474 l 1,55,56
 520 506 520 506 455 529.5 c 128,-1,57
 390 553 390 553 347 553 c 0,58,59
 318 553 318 553 301.5 542 c 128,-1,60
 285 531 285 531 285 510 c 0,61,0
 285 483 285 483 313 468 c 128,-1,1
EndSplineSet
EndChar

StartChar: scedilla
Encoding: 351 351 290
Width: 540
Flags: W
LayerCount: 2
Fore
SplineSet
268.5 361.5 m 128,-1,1
 286 351 286 351 325 336 c 0,2,3
 376 316 376 316 409 298 c 128,-1,4
 442 280 442 280 467 249 c 128,-1,5
 492 218 492 218 492 172 c 0,6,7
 492 120 492 120 464 79.5 c 128,-1,8
 436 39 436 39 385.5 16 c 128,-1,9
 335 -7 335 -7 270 -8 c 1,10,-1
 244 -53 l 1,11,12
 280 -62 280 -62 297 -81.5 c 128,-1,13
 314 -101 314 -101 314 -126 c 0,14,15
 314 -182 314 -182 269 -210.5 c 128,-1,16
 224 -239 224 -239 159 -239 c 0,17,18
 100 -239 100 -239 47 -218 c 1,19,-1
 93 -129 l 1,20,21
 116 -139 116 -139 142 -139 c 0,22,23
 162 -139 162 -139 175.5 -131.5 c 128,-1,24
 189 -124 189 -124 189 -114 c 0,25,26
 189 -103 189 -103 174 -97 c 128,-1,27
 159 -91 159 -91 137 -91 c 2,28,-1
 115 -91 l 1,29,-1
 163 4 l 1,30,31
 53 29 53 29 -21 97 c 1,32,-1
 61 214 l 1,33,34
 108 175 108 175 158.5 152 c 128,-1,35
 209 129 209 129 251 129 c 0,36,37
 274 129 274 129 286.5 137.5 c 128,-1,38
 299 146 299 146 299 161 c 0,39,40
 299 173 299 173 282 182.5 c 128,-1,41
 265 192 265 192 228 206 c 0,42,43
 177 226 177 226 144.5 243 c 128,-1,44
 112 260 112 260 87 291.5 c 128,-1,45
 62 323 62 323 62 369 c 0,46,47
 62 422 62 422 90 463.5 c 128,-1,48
 118 505 118 505 168.5 528 c 128,-1,49
 219 551 219 551 285 551 c 0,50,51
 354 551 354 551 424.5 526.5 c 128,-1,52
 495 502 495 502 554 458 c 1,53,-1
 466 343 l 1,54,55
 417 376 417 376 370.5 395.5 c 128,-1,56
 324 415 324 415 293 415 c 0,57,58
 275 415 275 415 263 406.5 c 128,-1,59
 251 398 251 398 251 385 c 256,60,0
 251 372 251 372 268.5 361.5 c 128,-1,1
EndSplineSet
Substitution2: "<3,3> Small Caps in Latin lookup 11 subtable" scedilla.sc
EndChar

StartChar: uni0162
Encoding: 354 354 293
Width: 629
Flags: W
LayerCount: 2
Fore
SplineSet
675 535 m 1,0,-1
 470 535 l 1,1,-1
 363 0 l 1,2,-1
 318 0 l 1,3,-1
 287 -53 l 1,4,5
 323 -62 323 -62 340 -81.5 c 128,-1,6
 357 -101 357 -101 357 -126 c 0,7,8
 357 -182 357 -182 312 -210.5 c 128,-1,9
 267 -239 267 -239 202 -239 c 0,10,11
 143 -239 143 -239 90 -218 c 1,12,-1
 136 -129 l 1,13,14
 159 -139 159 -139 185 -139 c 0,15,16
 205 -139 205 -139 218.5 -131.5 c 128,-1,17
 232 -124 232 -124 232 -114 c 0,18,19
 232 -103 232 -103 217 -97 c 128,-1,20
 202 -91 202 -91 180 -91 c 2,21,-1
 158 -91 l 1,22,-1
 204 0 l 1,23,-1
 155 0 l 1,24,-1
 262 535 l 1,25,-1
 59 535 l 1,26,-1
 92 701 l 1,27,-1
 708 701 l 1,28,-1
 675 535 l 1,0,-1
EndSplineSet
EndChar

StartChar: uni0163
Encoding: 355 355 294
Width: 455
Flags: W
LayerCount: 2
Fore
SplineSet
273 193 m 2,0,1
 271 179 271 179 271 175 c 0,2,3
 271 161 271 161 278.5 155 c 128,-1,4
 286 149 286 149 300 149 c 256,5,6
 314 149 314 149 329.5 154 c 128,-1,7
 345 159 345 159 369 168 c 1,8,-1
 389 23 l 1,9,10
 340 -3 340 -3 268 -8 c 1,11,-1
 242 -53 l 1,12,13
 278 -62 278 -62 295 -81.5 c 128,-1,14
 312 -101 312 -101 312 -126 c 0,15,16
 312 -182 312 -182 267 -210.5 c 128,-1,17
 222 -239 222 -239 157 -239 c 0,18,19
 98 -239 98 -239 45 -218 c 1,20,-1
 91 -129 l 1,21,22
 114 -139 114 -139 140 -139 c 0,23,24
 160 -139 160 -139 173.5 -131.5 c 128,-1,25
 187 -124 187 -124 187 -114 c 0,26,27
 187 -103 187 -103 172 -97 c 128,-1,28
 157 -91 157 -91 135 -91 c 2,29,-1
 113 -91 l 1,30,-1
 160 3 l 1,31,32
 115 19 115 19 90.5 54 c 128,-1,33
 66 89 66 89 66 137 c 0,34,35
 66 159 66 159 70 178 c 2,36,-1
 111 387 l 1,37,-1
 36 387 l 1,38,-1
 62 516 l 1,39,-1
 137 516 l 1,40,-1
 167 667 l 1,41,-1
 368 667 l 1,42,-1
 338 516 l 1,43,-1
 472 516 l 1,44,-1
 446 387 l 1,45,-1
 312 387 l 1,46,-1
 273 193 l 2,0,1
EndSplineSet
Substitution2: "<3,3> Small Caps in Latin lookup 11 subtable" uni0163.sc
EndChar

StartChar: Tbar
Encoding: 358 358 297
Width: 629
Flags: W
LayerCount: 2
Fore
SplineSet
675 535 m 1,0,-1
 470 535 l 1,1,-1
 435 359 l 1,2,-1
 555 359 l 1,3,-1
 534 251 l 1,4,-1
 413 251 l 1,5,-1
 363 0 l 1,6,-1
 155 0 l 1,7,-1
 205 251 l 1,8,-1
 87 251 l 1,9,-1
 108 359 l 1,10,-1
 227 359 l 1,11,-1
 262 535 l 1,12,-1
 59 535 l 1,13,-1
 92 701 l 1,14,-1
 708 701 l 1,15,-1
 675 535 l 1,0,-1
EndSplineSet
EndChar

StartChar: tbar
Encoding: 359 359 298
Width: 449
Flags: W
LayerCount: 2
Fore
SplineSet
316 406 m 1,0,-1
 304 345 l 1,1,-1
 437 345 l 1,2,-1
 416 236 l 1,3,-1
 282 236 l 1,4,-1
 275 201 l 2,5,6
 273 189 273 189 273 185 c 0,7,8
 273 149 273 149 311 149 c 0,9,10
 332 149 332 149 375 165 c 1,11,-1
 383 26 l 1,12,13
 352 10 352 10 309 0.5 c 128,-1,14
 266 -9 266 -9 223 -9 c 0,15,16
 149 -9 149 -9 106 27 c 128,-1,17
 63 63 63 63 63 127 c 0,18,19
 63 145 63 145 68 170 c 2,20,-1
 81 236 l 1,21,-1
 6 236 l 1,22,-1
 27 345 l 1,23,-1
 103 345 l 1,24,-1
 115 406 l 1,25,-1
 40 406 l 1,26,-1
 62 516 l 1,27,-1
 137 516 l 1,28,-1
 167 667 l 1,29,-1
 368 667 l 1,30,-1
 338 516 l 1,31,-1
 472 516 l 1,32,-1
 450 406 l 1,33,-1
 316 406 l 1,0,-1
EndSplineSet
Substitution2: "<3,3> Small Caps in Latin lookup 11 subtable" tbar.sc
EndChar

StartChar: Uogonek
Encoding: 370 370 309
Width: 756
Flags: W
LayerCount: 2
Fore
SplineSet
794 701 m 1,0,-1
 713 296 l 2,1,2
 698 219 698 219 659.5 158.5 c 128,-1,3
 621 98 621 98 563 58 c 1,4,5
 512 17 512 17 480.5 -26.5 c 128,-1,6
 449 -70 449 -70 449 -100 c 0,7,8
 449 -120 449 -120 466 -120 c 0,9,10
 478 -120 478 -120 494 -112 c 1,11,-1
 503 -215 l 1,12,13
 446 -238 446 -238 399 -238 c 0,14,15
 354 -238 354 -238 327.5 -216.5 c 128,-1,16
 301 -195 301 -195 301 -152 c 0,17,18
 301 -113 301 -113 320 -78 c 128,-1,19
 339 -43 339 -43 381 -7 c 1,20,21
 351 -9 351 -9 334 -9 c 0,22,23
 247 -9 247 -9 181.5 20 c 128,-1,24
 116 49 116 49 81 103 c 128,-1,25
 46 157 46 157 46 230 c 0,26,27
 46 264 46 264 53 296 c 2,28,-1
 134 701 l 1,29,-1
 342 701 l 1,30,-1
 261 296 l 2,31,32
 258 280 258 280 258 265 c 0,33,34
 258 218 258 218 285.5 191.5 c 128,-1,35
 313 165 313 165 359 165 c 0,36,37
 412 165 412 165 452 200.5 c 128,-1,38
 492 236 492 236 504 296 c 2,39,-1
 586 701 l 1,40,-1
 794 701 l 1,0,-1
EndSplineSet
EndChar

StartChar: uogonek
Encoding: 371 371 310
Width: 682
Flags: W
LayerCount: 2
Fore
SplineSet
674 544 m 1,0,-1
 566 0 l 1,1,-1
 519 0 l 1,2,3
 474 -28 474 -28 450.5 -52 c 128,-1,4
 427 -76 427 -76 427 -101 c 0,5,6
 427 -120 427 -120 444 -120 c 0,7,8
 455 -120 455 -120 473 -112 c 1,9,-1
 482 -215 l 1,10,11
 424 -238 424 -238 374 -238 c 0,12,13
 327 -238 327 -238 303.5 -214 c 128,-1,14
 280 -190 280 -190 280 -150 c 0,15,16
 280 -72 280 -72 365 4 c 1,17,-1
 377 70 l 1,18,19
 312 -7 312 -7 213 -7 c 0,20,21
 131 -7 131 -7 81.5 42.5 c 128,-1,22
 32 92 32 92 32 171 c 0,23,24
 32 200 32 200 37 222 c 2,25,-1
 101 544 l 1,26,-1
 303 544 l 1,27,-1
 245 252 l 2,28,29
 242 239 242 239 242 228 c 0,30,31
 242 197 242 197 259.5 179 c 128,-1,32
 277 161 277 161 307 161 c 0,33,34
 346 161 346 161 377 192.5 c 128,-1,35
 408 224 408 224 418 273 c 2,36,-1
 472 544 l 1,37,-1
 674 544 l 1,0,-1
EndSplineSet
Substitution2: "<3,3> Small Caps in Latin lookup 11 subtable" uogonek.sc
EndChar

StartChar: uni018F
Encoding: 399 399 322
Width: 788
Flags: W
LayerCount: 2
Fore
SplineSet
621.5 672 m 128,-1,1
 699 630 699 630 742 555.5 c 128,-1,2
 785 481 785 481 785 387 c 0,3,4
 785 276 785 276 731 184 c 128,-1,5
 677 92 677 92 584.5 39 c 128,-1,6
 492 -14 492 -14 381 -14 c 0,7,8
 278 -14 278 -14 201.5 30 c 128,-1,9
 125 74 125 74 84 155 c 128,-1,10
 43 236 43 236 43 344 c 0,11,12
 43 360 43 360 45 394 c 1,13,-1
 571 394 l 1,14,15
 566 459 566 459 529 500 c 128,-1,16
 492 541 492 541 433 541 c 0,17,18
 388 541 388 541 347 517 c 128,-1,19
 306 493 306 493 279 452 c 1,20,-1
 149 598 l 1,21,22
 206 654 206 654 281.5 684 c 128,-1,23
 357 714 357 714 445 714 c 0,24,0
 544 714 544 714 621.5 672 c 128,-1,1
492.5 189.5 m 128,-1,26
 533 220 533 220 554 273 c 1,27,-1
 260 273 l 1,28,29
 273 220 273 220 309.5 189.5 c 128,-1,30
 346 159 346 159 398 159 c 0,31,25
 452 159 452 159 492.5 189.5 c 128,-1,26
EndSplineSet
EndChar

StartChar: florin
Encoding: 402 402 323
Width: 477
Flags: W
LayerCount: 2
Fore
SplineSet
393 579 m 128,-1,1
 374 563 374 563 369 537 c 2,2,-1
 355 466 l 1,3,-1
 468 466 l 1,4,-1
 443 337 l 1,5,-1
 330 337 l 1,6,-1
 261 -24 l 2,7,8
 244 -107 244 -107 182 -155 c 128,-1,9
 120 -203 120 -203 29 -203 c 0,10,11
 -8 -203 -8 -203 -44 -191.5 c 128,-1,12
 -80 -180 -80 -180 -103 -162 c 1,13,-1
 -48 -27 l 1,14,15
 -37 -37 -37 -37 -22 -41.5 c 128,-1,16
 -7 -46 -7 -46 5 -46 c 0,17,18
 29 -46 29 -46 44.5 -30 c 128,-1,19
 60 -14 60 -14 65 12 c 2,20,-1
 128 337 l 1,21,-1
 55 337 l 1,22,-1
 80 466 l 1,23,-1
 153 466 l 1,24,-1
 174 573 l 2,25,26
 190 655 190 655 254 703.5 c 128,-1,27
 318 752 318 752 408 752 c 0,28,29
 453 752 453 752 496.5 740.5 c 128,-1,30
 540 729 540 729 569 711 c 1,31,-1
 495 577 l 1,32,33
 483 586 483 586 468 590.5 c 128,-1,34
 453 595 453 595 440 595 c 0,35,0
 412 595 412 595 393 579 c 128,-1,1
EndSplineSet
EndChar

StartChar: Ohorn
Encoding: 416 416 324
Width: 849
Flags: W
LayerCount: 2
Fore
SplineSet
884 779 m 0,1,2
 884 712 884 712 845 660.5 c 128,-1,3
 806 609 806 609 740 586 c 1,4,5
 805 501 805 501 805 384 c 0,6,7
 805 273 805 273 749 182 c 128,-1,8
 693 91 693 91 596.5 38.5 c 128,-1,9
 500 -14 500 -14 384 -14 c 0,10,11
 283 -14 283 -14 204 29 c 128,-1,12
 125 72 125 72 81 147.5 c 128,-1,13
 37 223 37 223 37 319 c 0,14,15
 37 430 37 430 93 520.5 c 128,-1,16
 149 611 149 611 245.5 662.5 c 128,-1,17
 342 714 342 714 458 714 c 0,18,19
 544 714 544 714 618 681 c 1,20,-1
 618 682 l 1,21,-1
 620 681 l 1,22,-1
 630 676 l 2,23,24
 639 672 639 672 653 672 c 0,25,26
 685 672 685 672 705.5 697.5 c 128,-1,27
 726 723 726 723 726 757 c 0,28,29
 726 779 726 779 715 801 c 1,30,-1
 872 854 l 1,31,0
 884 815 884 815 884 779 c 0,1,2
497 187 m 128,-1,33
 540 215 540 215 565.5 263.5 c 128,-1,34
 591 312 591 312 591 370 c 0,35,36
 591 418 591 418 572 457 c 128,-1,37
 553 496 553 496 519 518.5 c 128,-1,38
 485 541 485 541 443 541 c 0,39,40
 394 541 394 541 349.5 513.5 c 128,-1,41
 305 486 305 486 278 438 c 128,-1,42
 251 390 251 390 251 333 c 0,43,44
 251 284 251 284 271.5 244.5 c 128,-1,45
 292 205 292 205 327 182 c 128,-1,46
 362 159 362 159 404 159 c 0,47,32
 454 159 454 159 497 187 c 128,-1,33
EndSplineSet
EndChar

StartChar: ohorn
Encoding: 417 417 325
Width: 691
Flags: W
LayerCount: 2
Fore
SplineSet
753 623 m 0,1,2
 753 552 753 552 711.5 499.5 c 128,-1,3
 670 447 670 447 599 426 c 1,4,5
 629 372 629 372 629 300 c 0,6,7
 629 209 629 209 587 139.5 c 128,-1,8
 545 70 545 70 469.5 31.5 c 128,-1,9
 394 -7 394 -7 297 -7 c 0,10,11
 213 -7 213 -7 150.5 24 c 128,-1,12
 88 55 88 55 54.5 112 c 128,-1,13
 21 169 21 169 21 245 c 0,14,15
 21 335 21 335 63 404.5 c 128,-1,16
 105 474 105 474 180.5 512.5 c 128,-1,17
 256 551 256 551 353 551 c 0,18,19
 441 551 441 551 506 517 c 0,20,21
 516 515 516 515 522 515 c 0,22,23
 554 515 554 515 574.5 540.5 c 128,-1,24
 595 566 595 566 595 600 c 0,25,26
 595 622 595 622 584 644 c 1,27,-1
 741 697 l 1,28,0
 753 658 753 658 753 623 c 0,1,2
393 186.5 m 128,-1,30
 424 224 424 224 424 285 c 0,31,32
 424 333 424 333 400.5 362 c 128,-1,33
 377 391 377 391 337 391 c 0,34,35
 288 391 288 391 257 353 c 128,-1,36
 226 315 226 315 226 254 c 0,37,38
 226 206 226 206 249.5 177.5 c 128,-1,39
 273 149 273 149 313 149 c 0,40,29
 362 149 362 149 393 186.5 c 128,-1,30
EndSplineSet
Substitution2: "<3,3> Small Caps in Latin lookup 11 subtable" ohorn.sc
EndChar

StartChar: Uhorn
Encoding: 431 431 326
Width: 844
Flags: W
LayerCount: 2
Fore
SplineSet
935 792 m 0,1,2
 935 720 935 720 894 673 c 128,-1,3
 853 626 853 626 776 609 c 1,4,-1
 713 296 l 2,5,6
 695 203 695 203 643 134.5 c 128,-1,7
 591 66 591 66 512 28.5 c 128,-1,8
 433 -9 433 -9 334 -9 c 0,9,10
 247 -9 247 -9 181.5 20 c 128,-1,11
 116 49 116 49 81 103 c 128,-1,12
 46 157 46 157 46 230 c 0,13,14
 46 264 46 264 53 296 c 2,15,-1
 134 701 l 1,16,-1
 342 701 l 1,17,-1
 261 296 l 2,18,19
 258 280 258 280 258 265 c 0,20,21
 258 218 258 218 285.5 191.5 c 128,-1,22
 313 165 313 165 359 165 c 0,23,24
 412 165 412 165 452 200.5 c 128,-1,25
 492 236 492 236 504 296 c 2,26,-1
 586 701 l 1,27,-1
 721 701 l 2,28,29
 753 701 753 701 769.5 720.5 c 128,-1,30
 786 740 786 740 786 768 c 0,31,32
 786 786 786 786 778 802 c 1,33,-1
 928 854 l 1,34,0
 935 823 935 823 935 792 c 0,1,2
EndSplineSet
EndChar

StartChar: uhorn
Encoding: 432 432 327
Width: 734
Flags: W
LayerCount: 2
Fore
SplineSet
814 635 m 0,1,2
 814 562 814 562 773.5 515.5 c 128,-1,3
 733 469 733 469 656 452 c 1,4,-1
 566 0 l 1,5,-1
 364 0 l 1,6,-1
 377 70 l 1,7,8
 312 -7 312 -7 213 -7 c 0,9,10
 131 -7 131 -7 81.5 42.5 c 128,-1,11
 32 92 32 92 32 171 c 0,12,13
 32 200 32 200 37 222 c 2,14,-1
 101 544 l 1,15,-1
 303 544 l 1,16,-1
 245 252 l 2,17,18
 242 239 242 239 242 228 c 0,19,20
 242 197 242 197 259.5 179 c 128,-1,21
 277 161 277 161 307 161 c 0,22,23
 346 161 346 161 377 192.5 c 128,-1,24
 408 224 408 224 418 273 c 2,25,-1
 472 544 l 1,26,-1
 600 544 l 2,27,28
 632 544 632 544 648.5 563.5 c 128,-1,29
 665 583 665 583 665 611 c 0,30,31
 665 629 665 629 657 645 c 1,32,-1
 807 697 l 1,33,0
 814 666 814 666 814 635 c 0,1,2
EndSplineSet
Substitution2: "<3,3> Small Caps in Latin lookup 11 subtable" uhorn.sc
EndChar

StartChar: uni01EA
Encoding: 490 490 339
Width: 809
Flags: W
LayerCount: 2
Fore
SplineSet
758.5 199 m 128,-1,1
 712 114 712 114 632 60 c 1,2,3
 580 19 580 19 547.5 -25.5 c 128,-1,4
 515 -70 515 -70 515 -100 c 0,5,6
 515 -120 515 -120 532 -120 c 0,7,8
 544 -120 544 -120 560 -112 c 1,9,-1
 569 -215 l 1,10,11
 512 -238 512 -238 465 -238 c 0,12,13
 420 -238 420 -238 393.5 -216.5 c 128,-1,14
 367 -195 367 -195 367 -152 c 0,15,16
 367 -113 367 -113 385.5 -79.5 c 128,-1,17
 404 -46 404 -46 443 -10 c 1,18,19
 418 -14 418 -14 384 -14 c 0,20,21
 283 -14 283 -14 204 29 c 128,-1,22
 125 72 125 72 81 147.5 c 128,-1,23
 37 223 37 223 37 319 c 0,24,25
 37 430 37 430 93 520.5 c 128,-1,26
 149 611 149 611 245.5 662.5 c 128,-1,27
 342 714 342 714 458 714 c 0,28,29
 559 714 559 714 638 671.5 c 128,-1,30
 717 629 717 629 761 554 c 128,-1,31
 805 479 805 479 805 384 c 0,32,0
 805 284 805 284 758.5 199 c 128,-1,1
271.5 244.5 m 128,-1,34
 292 205 292 205 327 182 c 128,-1,35
 362 159 362 159 404 159 c 0,36,37
 454 159 454 159 497 187 c 128,-1,38
 540 215 540 215 565.5 263.5 c 128,-1,39
 591 312 591 312 591 370 c 0,40,41
 591 418 591 418 572 457 c 128,-1,42
 553 496 553 496 519 518.5 c 128,-1,43
 485 541 485 541 443 541 c 0,44,45
 394 541 394 541 349.5 513.5 c 128,-1,46
 305 486 305 486 278 438 c 128,-1,47
 251 390 251 390 251 333 c 0,48,33
 251 284 251 284 271.5 244.5 c 128,-1,34
EndSplineSet
EndChar

StartChar: uni01EB
Encoding: 491 491 340
Width: 649
Flags: W
LayerCount: 2
Fore
SplineSet
598 159.5 m 128,-1,1
 567 97 567 97 511 56 c 0,2,3
 461 16 461 16 429.5 -27.5 c 128,-1,4
 398 -71 398 -71 398 -100 c 0,5,6
 398 -120 398 -120 415 -120 c 0,7,8
 427 -120 427 -120 443 -112 c 1,9,-1
 452 -215 l 1,10,11
 395 -238 395 -238 348 -238 c 0,12,13
 303 -238 303 -238 276.5 -216.5 c 128,-1,14
 250 -195 250 -195 250 -152 c 0,15,16
 250 -112 250 -112 269.5 -77 c 128,-1,17
 289 -42 289 -42 332 -6 c 1,18,19
 320 -7 320 -7 297 -7 c 0,20,21
 213 -7 213 -7 150.5 24 c 128,-1,22
 88 55 88 55 54.5 112 c 128,-1,23
 21 169 21 169 21 245 c 0,24,25
 21 335 21 335 63 404.5 c 128,-1,26
 105 474 105 474 180.5 512.5 c 128,-1,27
 256 551 256 551 353 551 c 0,28,29
 437 551 437 551 499.5 520 c 128,-1,30
 562 489 562 489 595.5 432.5 c 128,-1,31
 629 376 629 376 629 300 c 0,32,0
 629 222 629 222 598 159.5 c 128,-1,1
249.5 177.5 m 128,-1,34
 273 149 273 149 313 149 c 0,35,36
 362 149 362 149 393 186.5 c 128,-1,37
 424 224 424 224 424 285 c 0,38,39
 424 333 424 333 400.5 362 c 128,-1,40
 377 391 377 391 337 391 c 0,41,42
 288 391 288 391 257 353 c 128,-1,43
 226 315 226 315 226 254 c 0,44,33
 226 206 226 206 249.5 177.5 c 128,-1,34
EndSplineSet
Substitution2: "<3,3> Small Caps in Latin lookup 11 subtable" uni01EB.sc
EndChar

StartChar: uni0237
Encoding: 567 567 383
Width: 325
Flags: W
LayerCount: 2
Fore
SplineSet
-62 -45 m 0,1,2
 -35 -45 -35 -45 -15 -26.5 c 128,-1,3
 5 -8 5 -8 11 20 c 2,4,-1
 115 544 l 1,5,-1
 317 544 l 1,6,-1
 204 -27 l 2,7,8
 187 -111 187 -111 127 -156.5 c 128,-1,9
 67 -202 67 -202 -23 -202 c 0,10,11
 -88 -202 -88 -202 -148 -178 c 1,12,-1
 -92 -42 l 1,13,0
 -80 -45 -80 -45 -62 -45 c 0,1,2
EndSplineSet
EndChar

StartChar: uni0259
Encoding: 601 601 384
Width: 619
Flags: W
LayerCount: 2
Fore
SplineSet
463 520 m 128,-1,1
 529 490 529 490 564.5 434 c 128,-1,2
 600 378 600 378 600 304 c 0,3,4
 600 215 600 215 560.5 144 c 128,-1,5
 521 73 521 73 450.5 33 c 128,-1,6
 380 -7 380 -7 292 -7 c 0,7,8
 209 -7 209 -7 147.5 24 c 128,-1,9
 86 55 86 55 53 110.5 c 128,-1,10
 20 166 20 166 20 240 c 0,11,12
 20 278 20 278 29 320 c 1,13,-1
 401 320 l 1,14,15
 396 360 396 360 370 381 c 128,-1,16
 344 402 344 402 301 402 c 0,17,18
 239 402 239 402 184 359 c 1,19,-1
 81 464 l 1,20,21
 175 550 175 550 308 550 c 0,22,0
 397 550 397 550 463 520 c 128,-1,1
342 156.5 m 128,-1,24
 371 181 371 181 387 221 c 1,25,-1
 213 221 l 1,26,27
 210 209 210 209 210 199 c 0,28,29
 210 169 210 169 229 150.5 c 128,-1,30
 248 132 248 132 279 132 c 0,31,23
 313 132 313 132 342 156.5 c 128,-1,24
EndSplineSet
Substitution2: "<3,3> Small Caps in Latin lookup 11 subtable" uni0259.sc
EndChar

StartChar: uni02BB
Encoding: 699 699 385
Width: 325
Flags: W
LayerCount: 2
Fore
SplineSet
267 477 m 1,0,-1
 126 511 l 1,1,-1
 193 700 l 1,2,-1
 310 700 l 1,3,-1
 267 477 l 1,0,-1
EndSplineSet
EndChar

StartChar: uni02BC
Encoding: 700 700 386
Width: 177
Flags: W
LayerCount: 2
Fore
SplineSet
108 701 m 1,0,-1
 241 701 l 1,1,-1
 163 438 l 1,2,-1
 57 438 l 1,3,-1
 108 701 l 1,0,-1
EndSplineSet
EndChar

StartChar: uni02BE
Encoding: 702 702 387
Width: 257
Flags: W
LayerCount: 2
Fore
SplineSet
154 654 m 1,0,1
 173 654 173 654 188 667.5 c 128,-1,2
 203 681 203 681 204 700 c 0,3,4
 206 719 206 719 195 731.5 c 128,-1,5
 184 744 184 744 165 744 c 1,6,-1
 174 821 l 1,7,8
 222 821 222 821 252.5 790 c 128,-1,9
 283 759 283 759 283 713 c 0,10,11
 283 677 283 677 263.5 645.5 c 128,-1,12
 244 614 244 614 212 595.5 c 128,-1,13
 180 577 180 577 144 577 c 1,14,-1
 154 654 l 1,0,1
EndSplineSet
EndChar

StartChar: uni02BF
Encoding: 703 703 388
Width: 273
Flags: W
LayerCount: 2
Fore
SplineSet
256 654 m 1,0,1
 240 654 240 654 229.5 665 c 128,-1,2
 219 676 219 676 219 692 c 0,3,4
 219 713 219 713 235.5 728.5 c 128,-1,5
 252 744 252 744 274 744 c 1,6,-1
 289 821 l 1,7,8
 251 821 251 821 216.5 801.5 c 128,-1,9
 182 782 182 782 161 749.5 c 128,-1,10
 140 717 140 717 140 679 c 0,11,12
 140 636 140 636 168.5 606.5 c 128,-1,13
 197 577 197 577 241 577 c 1,14,-1
 256 654 l 1,0,1
EndSplineSet
EndChar

StartChar: caron
Encoding: 711 711 390
Width: 452
Flags: W
LayerCount: 2
Fore
SplineSet
377 765 m 1,0,-1
 511 765 l 1,1,-1
 371 608 l 1,2,-1
 198 608 l 1,3,-1
 118 765 l 1,4,-1
 252 765 l 1,5,-1
 301 696 l 1,6,-1
 377 765 l 1,0,-1
EndSplineSet
EndChar

StartChar: uni02C8
Encoding: 712 712 391
Width: 327
Flags: W
LayerCount: 2
Fore
SplineSet
144 503 m 1,0,-1
 183 701 l 1,1,-1
 314 701 l 1,2,-1
 275 503 l 1,3,-1
 144 503 l 1,0,-1
EndSplineSet
EndChar

StartChar: uni02C9
Encoding: 713 713 392
Width: 470
Flags: W
LayerCount: 2
Fore
SplineSet
186 752 m 1,0,-1
 476 752 l 1,1,-1
 454 637 l 1,2,-1
 163 637 l 1,3,-1
 186 752 l 1,0,-1
EndSplineSet
EndChar

StartChar: uni02CA
Encoding: 714 714 393
Width: 354
Flags: W
LayerCount: 2
Fore
SplineSet
263 775 m 1,0,-1
 409 717 l 1,1,-1
 232 595 l 1,2,-1
 102 605 l 1,3,-1
 263 775 l 1,0,-1
EndSplineSet
EndChar

StartChar: uni02CB
Encoding: 715 715 394
Width: 318
Flags: W
LayerCount: 2
Fore
SplineSet
287 775 m 1,0,-1
 363 605 l 1,1,-1
 228 595 l 1,2,-1
 117 717 l 1,3,-1
 287 775 l 1,0,-1
EndSplineSet
EndChar

StartChar: uni02CC
Encoding: 716 716 395
Width: 330
Flags: W
LayerCount: 2
Fore
SplineSet
-2 -228 m 1,0,-1
 37 -30 l 1,1,-1
 171 -30 l 1,2,-1
 132 -228 l 1,3,-1
 -2 -228 l 1,0,-1
EndSplineSet
EndChar

StartChar: gravecomb
Encoding: 768 768 402
Width: 0
Flags: W
LayerCount: 2
Fore
SplineSet
-42 775 m 1,0,-1
 66 605 l 1,1,-1
 -67 595 l 1,2,-1
 -201 717 l 1,3,-1
 -42 775 l 1,0,-1
EndSplineSet
Substitution2: "<3,3> Small Caps in Latin lookup 11 subtable" gravecomb.sc
EndChar

StartChar: acutecomb
Encoding: 769 769 403
Width: 0
Flags: W
LayerCount: 2
Fore
SplineSet
-125 775 m 1,0,-1
 34 717 l 1,1,-1
 -120 595 l 1,2,-1
 -252 605 l 1,3,-1
 -125 775 l 1,0,-1
EndSplineSet
Substitution2: "<3,3> Small Caps in Latin lookup 11 subtable" acutecomb.sc
EndChar

StartChar: uni0302
Encoding: 770 770 404
Width: 0
Flags: W
LayerCount: 2
Fore
SplineSet
48 609 m 1,0,-1
 -86 609 l 1,1,-1
 -135 678 l 1,2,-1
 -211 609 l 1,3,-1
 -345 609 l 1,4,-1
 -205 766 l 1,5,-1
 -32 766 l 1,6,-1
 48 609 l 1,0,-1
EndSplineSet
Substitution2: "<3,3> Small Caps in Latin lookup 11 subtable" uni0302.sc
EndChar

StartChar: tildecomb
Encoding: 771 771 405
Width: 0
Flags: W
LayerCount: 2
Fore
SplineSet
-29 637 m 128,-1,1
 -61 596 -61 596 -114 596 c 0,2,3
 -139 596 -139 596 -159 603.5 c 128,-1,4
 -179 611 -179 611 -201 624 c 0,5,6
 -227 639 -227 639 -239 639 c 0,7,8
 -267 639 -267 639 -276 599 c 1,9,-1
 -384 599 l 1,10,11
 -368 683 -368 683 -335 724.5 c 128,-1,12
 -302 766 -302 766 -249 766 c 0,13,14
 -225 766 -225 766 -206 759 c 128,-1,15
 -187 752 -187 752 -163 739 c 0,16,17
 -152 733 -152 733 -142 728.5 c 128,-1,18
 -132 724 -132 724 -125 724 c 0,19,20
 -110 724 -110 724 -101.5 733.5 c 128,-1,21
 -93 743 -93 743 -88 763 c 1,22,-1
 20 763 l 1,23,0
 3 678 3 678 -29 637 c 128,-1,1
EndSplineSet
Substitution2: "<3,3> Small Caps in Latin lookup 11 subtable" tildecomb.sc
EndChar

StartChar: uni0304
Encoding: 772 772 406
Width: 0
Flags: W
LayerCount: 2
Fore
SplineSet
-296 752 m 1,0,-1
 18 752 l 1,1,-1
 -4 637 l 1,2,-1
 -319 637 l 1,3,-1
 -296 752 l 1,0,-1
EndSplineSet
Substitution2: "<3,3> Small Caps in Latin lookup 11 subtable" uni0304.sc
EndChar

StartChar: uni0306
Encoding: 774 774 407
Width: 0
Flags: W
LayerCount: 2
Fore
SplineSet
-181.5 726 m 128,-1,1
 -170 711 -170 711 -149 711 c 0,2,3
 -127 711 -127 711 -110 726 c 128,-1,4
 -93 741 -93 741 -86 765 c 1,5,-1
 37 765 l 1,6,7
 18 689 18 689 -38 643.5 c 128,-1,8
 -94 598 -94 598 -171 598 c 0,9,10
 -238 598 -238 598 -277 634 c 128,-1,11
 -316 670 -316 670 -316 732 c 0,12,13
 -316 749 -316 749 -313 765 c 1,14,-1
 -190 765 l 1,15,0
 -193 741 -193 741 -181.5 726 c 128,-1,1
EndSplineSet
Substitution2: "<3,3> Small Caps in Latin lookup 11 subtable" uni0306.sc
EndChar

StartChar: uni0307
Encoding: 775 775 408
Width: 0
Flags: W
LayerCount: 2
Fore
SplineSet
1.5 779.5 m 128,-1,1
 25 756 25 756 25 718 c 0,2,3
 25 666 25 666 -12 630.5 c 128,-1,4
 -49 595 -49 595 -102 595 c 0,5,6
 -141 595 -141 595 -164.5 618.5 c 128,-1,7
 -188 642 -188 642 -188 680 c 0,8,9
 -188 732 -188 732 -151 767.5 c 128,-1,10
 -114 803 -114 803 -61 803 c 0,11,0
 -22 803 -22 803 1.5 779.5 c 128,-1,1
EndSplineSet
Substitution2: "<3,3> Small Caps in Latin lookup 11 subtable" uni0307.sc
EndChar

StartChar: uni0308
Encoding: 776 776 409
Width: 0
Flags: W
LayerCount: 2
Fore
SplineSet
-194.5 755 m 128,-1,1
 -176 736 -176 736 -176 705 c 0,2,3
 -176 665 -176 665 -205.5 636.5 c 128,-1,4
 -235 608 -235 608 -276 608 c 0,5,6
 -307 608 -307 608 -326 627 c 128,-1,7
 -345 646 -345 646 -345 676 c 0,8,9
 -345 717 -345 717 -315.5 745.5 c 128,-1,10
 -286 774 -286 774 -244 774 c 0,11,0
 -213 774 -213 774 -194.5 755 c 128,-1,1
2 755 m 128,-1,13
 20 736 20 736 20 705 c 0,14,15
 20 665 20 665 -9 636.5 c 128,-1,16
 -38 608 -38 608 -79 608 c 0,17,18
 -110 608 -110 608 -129 627 c 128,-1,19
 -148 646 -148 646 -148 676 c 0,20,21
 -148 717 -148 717 -118.5 745.5 c 128,-1,22
 -89 774 -89 774 -47 774 c 0,23,12
 -16 774 -16 774 2 755 c 128,-1,13
EndSplineSet
Substitution2: "<3,3> Small Caps in Latin lookup 11 subtable" uni0308.sc
EndChar

StartChar: hookabovecomb
Encoding: 777 777 410
Width: 0
Flags: W
LayerCount: 2
Fore
SplineSet
8.5 804 m 128,-1,1
 34 782 34 782 34 745 c 0,2,3
 34 665 34 665 -86 585 c 1,4,-1
 -165 620 l 1,5,6
 -136 641 -136 641 -120 662.5 c 128,-1,7
 -104 684 -104 684 -104 700 c 0,8,9
 -104 710 -104 710 -110 716 c 128,-1,10
 -116 722 -116 722 -127 722 c 0,11,12
 -147 722 -147 722 -168 707 c 1,13,-1
 -204 785 l 1,14,15
 -131 826 -131 826 -65 826 c 0,16,0
 -17 826 -17 826 8.5 804 c 128,-1,1
EndSplineSet
Substitution2: "<3,3> Small Caps in Latin lookup 11 subtable" hookabovecomb.sc
EndChar

StartChar: uni030A
Encoding: 778 778 411
Width: 0
Flags: W
LayerCount: 2
Fore
SplineSet
0.5 790 m 128,-1,1
 31 759 31 759 31 714 c 0,2,3
 31 678 31 678 12 647 c 128,-1,4
 -7 616 -7 616 -38.5 597.5 c 128,-1,5
 -70 579 -70 579 -106 579 c 0,6,7
 -153 579 -153 579 -183.5 609.5 c 128,-1,8
 -214 640 -214 640 -214 685 c 0,9,10
 -214 721 -214 721 -195 752.5 c 128,-1,11
 -176 784 -176 784 -144 802.5 c 128,-1,12
 -112 821 -112 821 -77 821 c 0,13,0
 -30 821 -30 821 0.5 790 c 128,-1,1
-119 727 m 128,-1,15
 -133 713 -133 713 -133 693 c 0,16,17
 -133 678 -133 678 -123 668 c 128,-1,18
 -113 658 -113 658 -97 658 c 0,19,20
 -78 658 -78 658 -64 672 c 128,-1,21
 -50 686 -50 686 -50 705 c 0,22,23
 -50 720 -50 720 -60 730.5 c 128,-1,24
 -70 741 -70 741 -86 741 c 0,25,14
 -105 741 -105 741 -119 727 c 128,-1,15
EndSplineSet
EndChar

StartChar: uni030B
Encoding: 779 779 412
Width: 0
Flags: W
LayerCount: 2
Fore
SplineSet
-329 776 m 1,0,-1
 -191 725 l 1,1,-1
 -282 595 l 1,2,-1
 -421 605 l 1,3,-1
 -329 776 l 1,0,-1
-120 776 m 1,4,-1
 18 725 l 1,5,-1
 -73 595 l 1,6,-1
 -212 605 l 1,7,-1
 -120 776 l 1,4,-1
EndSplineSet
Substitution2: "<3,3> Small Caps in Latin lookup 11 subtable" uni030B.sc
EndChar

StartChar: uni030C
Encoding: 780 780 413
Width: 0
Flags: W
LayerCount: 2
Fore
SplineSet
-75 765 m 1,0,-1
 59 765 l 1,1,-1
 -81 608 l 1,2,-1
 -254 608 l 1,3,-1
 -334 765 l 1,4,-1
 -200 765 l 1,5,-1
 -151 696 l 1,6,-1
 -75 765 l 1,0,-1
EndSplineSet
Substitution2: "<3,3> Small Caps in Latin lookup 11 subtable" uni030C.sc
EndChar

StartChar: uni030F
Encoding: 783 783 414
Width: 0
Flags: W
LayerCount: 2
Fore
SplineSet
-220 776 m 1,0,-1
 -172 605 l 1,1,-1
 -314 595 l 1,2,-1
 -379 725 l 1,3,-1
 -220 776 l 1,0,-1
-11 776 m 1,4,-1
 37 605 l 1,5,-1
 -105 595 l 1,6,-1
 -169 725 l 1,7,-1
 -11 776 l 1,4,-1
EndSplineSet
Substitution2: "<3,3> Small Caps in Latin lookup 11 subtable" uni030F.sc
EndChar

StartChar: uni0311
Encoding: 785 785 415
Width: 0
Flags: W
LayerCount: 2
Fore
SplineSet
-103.5 636 m 128,-1,1
 -115 651 -115 651 -136 651 c 0,2,3
 -158 651 -158 651 -175 636 c 128,-1,4
 -192 621 -192 621 -199 597 c 1,5,-1
 -322 597 l 1,6,7
 -303 673 -303 673 -247 718.5 c 128,-1,8
 -191 764 -191 764 -114 764 c 0,9,10
 -47 764 -47 764 -8 728 c 128,-1,11
 31 692 31 692 31 630 c 0,12,13
 31 614 31 614 28 597 c 1,14,-1
 -95 597 l 1,15,0
 -92 621 -92 621 -103.5 636 c 128,-1,1
EndSplineSet
Substitution2: "<3,3> Small Caps in Latin lookup 11 subtable" uni0311.sc
EndChar

StartChar: uni0312
Encoding: 786 786 416
Width: 0
Flags: W
LayerCount: 2
Fore
SplineSet
-42 609 m 1,0,-1
 -202 609 l 1,1,-1
 -91 788 l 1,2,-1
 21 788 l 1,3,-1
 -42 609 l 1,0,-1
EndSplineSet
EndChar

StartChar: uni031B
Encoding: 795 795 417
Width: 0
Flags: W
LayerCount: 2
Fore
SplineSet
-23 635 m 0,1,2
 -23 544 -23 544 -88 493.5 c 128,-1,3
 -153 443 -153 443 -272 443 c 1,4,-1
 -237 544 l 1,5,6
 -205 544 -205 544 -188.5 563.5 c 128,-1,7
 -172 583 -172 583 -172 611 c 0,8,9
 -172 629 -172 629 -180 645 c 1,10,-1
 -30 697 l 1,11,0
 -23 666 -23 666 -23 635 c 0,1,2
EndSplineSet
EndChar

StartChar: dotbelowcomb
Encoding: 803 803 418
Width: 0
Flags: W
LayerCount: 2
Fore
SplineSet
-171.5 -89.5 m 128,-1,1
 -148 -113 -148 -113 -148 -151 c 0,2,3
 -148 -203 -148 -203 -185 -238.5 c 128,-1,4
 -222 -274 -222 -274 -275 -274 c 0,5,6
 -314 -274 -314 -274 -337.5 -250.5 c 128,-1,7
 -361 -227 -361 -227 -361 -189 c 0,8,9
 -361 -137 -361 -137 -324 -101.5 c 128,-1,10
 -287 -66 -287 -66 -234 -66 c 0,11,0
 -195 -66 -195 -66 -171.5 -89.5 c 128,-1,1
EndSplineSet
Substitution2: "<3,3> Small Caps in Latin lookup 11 subtable" dotbelowcomb.sc
EndChar

StartChar: uni0324
Encoding: 804 804 419
Width: 0
Flags: W
LayerCount: 2
Fore
SplineSet
-362.5 -84 m 128,-1,1
 -344 -103 -344 -103 -344 -134 c 0,2,3
 -344 -174 -344 -174 -373.5 -202.5 c 128,-1,4
 -403 -231 -403 -231 -444 -231 c 0,5,6
 -475 -231 -475 -231 -494 -212 c 128,-1,7
 -513 -193 -513 -193 -513 -163 c 0,8,9
 -513 -122 -513 -122 -483.5 -93.5 c 128,-1,10
 -454 -65 -454 -65 -412 -65 c 0,11,0
 -381 -65 -381 -65 -362.5 -84 c 128,-1,1
-166 -84 m 128,-1,13
 -148 -103 -148 -103 -148 -134 c 0,14,15
 -148 -174 -148 -174 -177 -202.5 c 128,-1,16
 -206 -231 -206 -231 -247 -231 c 0,17,18
 -278 -231 -278 -231 -297 -212 c 128,-1,19
 -316 -193 -316 -193 -316 -163 c 0,20,21
 -316 -122 -316 -122 -286.5 -93.5 c 128,-1,22
 -257 -65 -257 -65 -215 -65 c 0,23,12
 -184 -65 -184 -65 -166 -84 c 128,-1,13
EndSplineSet
Substitution2: "<3,3> Small Caps in Latin lookup 11 subtable" uni0324.sc
EndChar

StartChar: uni0326
Encoding: 806 806 420
Width: 0
Flags: W
LayerCount: 2
Fore
SplineSet
-281 -60 m 1,0,-1
 -121 -60 l 1,1,-1
 -232 -239 l 1,2,-1
 -344 -239 l 1,3,-1
 -281 -60 l 1,0,-1
EndSplineSet
EndChar

StartChar: uni0327
Encoding: 807 807 421
Width: 0
Flags: W
LayerCount: 2
Fore
SplineSet
-179 0 m 1,0,-1
 -210 -53 l 1,1,2
 -174 -62 -174 -62 -157 -81.5 c 128,-1,3
 -140 -101 -140 -101 -140 -126 c 0,4,5
 -140 -182 -140 -182 -185 -210.5 c 128,-1,6
 -230 -239 -230 -239 -295 -239 c 0,7,8
 -354 -239 -354 -239 -407 -218 c 1,9,-1
 -361 -129 l 1,10,11
 -338 -139 -338 -139 -312 -139 c 0,12,13
 -292 -139 -292 -139 -278.5 -131.5 c 128,-1,14
 -265 -124 -265 -124 -265 -114 c 0,15,16
 -265 -103 -265 -103 -280 -97 c 128,-1,17
 -295 -91 -295 -91 -317 -91 c 2,18,-1
 -339 -91 l 1,19,-1
 -288 10 l 1,20,-1
 -179 0 l 1,0,-1
EndSplineSet
Substitution2: "<3,3> Small Caps in Latin lookup 11 subtable" uni0327.sc
EndChar

StartChar: uni0328
Encoding: 808 808 422
Width: 0
Flags: W
LayerCount: 2
Fore
SplineSet
-125 0 m 1,0,1
 -170 -28 -170 -28 -193.5 -52 c 128,-1,2
 -217 -76 -217 -76 -217 -101 c 0,3,4
 -217 -120 -217 -120 -200 -120 c 0,5,6
 -189 -120 -189 -120 -171 -112 c 1,7,-1
 -162 -215 l 1,8,9
 -220 -238 -220 -238 -270 -238 c 0,10,11
 -317 -238 -317 -238 -340.5 -214 c 128,-1,12
 -364 -190 -364 -190 -364 -150 c 0,13,14
 -364 -101 -364 -101 -330.5 -52.5 c 128,-1,15
 -297 -4 -297 -4 -230 42 c 1,16,-1
 -125 0 l 1,0,1
EndSplineSet
EndChar

StartChar: uni032E
Encoding: 814 814 423
Width: 0
Flags: W
LayerCount: 2
Fore
SplineSet
-346.5 -100 m 128,-1,1
 -335 -115 -335 -115 -314 -115 c 0,2,3
 -292 -115 -292 -115 -275 -100 c 128,-1,4
 -258 -85 -258 -85 -251 -61 c 1,5,-1
 -128 -61 l 1,6,7
 -147 -137 -147 -137 -203 -182.5 c 128,-1,8
 -259 -228 -259 -228 -336 -228 c 0,9,10
 -403 -228 -403 -228 -442 -192 c 128,-1,11
 -481 -156 -481 -156 -481 -94 c 0,12,13
 -481 -78 -481 -78 -478 -61 c 1,14,-1
 -355 -61 l 1,15,0
 -358 -85 -358 -85 -346.5 -100 c 128,-1,1
EndSplineSet
EndChar

StartChar: uni0331
Encoding: 817 817 424
Width: 0
Flags: W
LayerCount: 2
Fore
SplineSet
-449 -76 m 1,0,-1
 -159 -76 l 1,1,-1
 -182 -192 l 1,2,-1
 -472 -192 l 1,3,-1
 -449 -76 l 1,0,-1
EndSplineSet
EndChar

StartChar: uni0335
Encoding: 821 821 425
Width: 0
Flags: W
LayerCount: 2
Fore
SplineSet
-456 488 m 1,0,-1
 -46 488 l 1,1,-1
 -67 380 l 1,2,-1
 -477 380 l 1,3,-1
 -456 488 l 1,0,-1
EndSplineSet
EndChar

StartChar: uni0336
Encoding: 822 822 426
Width: 0
Flags: W
LayerCount: 2
Fore
SplineSet
-492 488 m 1,0,-1
 -45 488 l 1,1,-1
 -66 380 l 1,2,-1
 -513 380 l 1,3,-1
 -492 488 l 1,0,-1
EndSplineSet
EndChar

StartChar: uni0337
Encoding: 823 823 427
Width: 0
Flags: W
LayerCount: 2
Fore
SplineSet
17 567 m 1,0,-1
 -246 89 l 1,1,-1
 -415 89 l 1,2,-1
 -152 567 l 1,3,-1
 17 567 l 1,0,-1
EndSplineSet
EndChar

StartChar: uni0338
Encoding: 824 824 428
Width: 0
Flags: W
LayerCount: 2
Fore
SplineSet
-509 0 m 1,0,-1
 -100 742 l 1,1,-1
 69 742 l 1,2,-1
 -340 0 l 1,3,-1
 -509 0 l 1,0,-1
EndSplineSet
EndChar

StartChar: uni0394
Encoding: 916 916 429
Width: 786
Flags: W
LayerCount: 2
Fore
SplineSet
566 701 m 1,0,-1
 739 0 l 1,1,-1
 -62 0 l 1,2,-1
 352 701 l 1,3,-1
 566 701 l 1,0,-1
233 152 m 1,4,-1
 486 152 l 1,5,-1
 418 493 l 1,6,-1
 233 152 l 1,4,-1
EndSplineSet
EndChar

StartChar: uni03A9
Encoding: 937 937 430
Width: 843
Flags: W
LayerCount: 2
Fore
SplineSet
609.5 672 m 128,-1,1
 687 634 687 634 732 567.5 c 128,-1,2
 777 501 777 501 777 420 c 0,3,4
 777 347 777 347 739.5 280 c 128,-1,5
 702 213 702 213 634 162 c 1,6,-1
 815 162 l 1,7,-1
 783 0 l 1,8,-1
 429 0 l 1,9,-1
 447 184 l 1,10,11
 514 217 514 217 552 271.5 c 128,-1,12
 590 326 590 326 590 387 c 0,13,14
 590 454 590 454 546 497.5 c 128,-1,15
 502 541 502 541 428 541 c 0,16,17
 373 541 373 541 328.5 516.5 c 128,-1,18
 284 492 284 492 259 450 c 128,-1,19
 234 408 234 408 234 356 c 0,20,21
 234 303 234 303 262 257 c 128,-1,22
 290 211 290 211 340 184 c 1,23,-1
 322 0 l 1,24,-1
 -49 0 l 1,25,-1
 -16 162 l 1,26,-1
 150 162 l 1,27,28
 103 203 103 203 77.5 259 c 128,-1,29
 52 315 52 315 52 375 c 0,30,31
 52 467 52 467 103.5 544 c 128,-1,32
 155 621 155 621 243.5 665.5 c 128,-1,33
 332 710 332 710 437 710 c 0,34,0
 532 710 532 710 609.5 672 c 128,-1,1
EndSplineSet
EndChar

StartChar: uni03BC
Encoding: 956 956 431
Width: 682
Flags: W
LayerCount: 2
Fore
SplineSet
674 544 m 1,0,-1
 566 0 l 1,1,-1
 364 0 l 1,2,-1
 377 70 l 1,3,4
 312 -7 312 -7 213 -7 c 0,5,6
 200 -7 200 -7 193 -6 c 1,7,-1
 156 -194 l 1,8,-1
 -46 -194 l 1,9,-1
 100 544 l 1,10,-1
 303 544 l 1,11,-1
 245 252 l 2,12,13
 242 239 242 239 242 228 c 0,14,15
 242 197 242 197 259.5 179 c 128,-1,16
 277 161 277 161 307 161 c 0,17,18
 346 161 346 161 377 192.5 c 128,-1,19
 408 224 408 224 418 273 c 2,20,-1
 472 544 l 1,21,-1
 674 544 l 1,0,-1
EndSplineSet
EndChar

StartChar: pi
Encoding: 960 960 432
Width: 732
Flags: W
LayerCount: 2
Fore
SplineSet
745 403 m 1,0,-1
 630 403 l 1,1,-1
 550 0 l 1,2,-1
 383 0 l 1,3,-1
 464 403 l 1,4,-1
 405 403 l 1,5,-1
 282 0 l 1,6,-1
 114 0 l 1,7,-1
 237 403 l 1,8,-1
 230 403 l 2,9,10
 193 403 193 403 171 378.5 c 128,-1,11
 149 354 149 354 149 318 c 0,12,13
 149 298 149 298 156 280 c 1,14,-1
 16 247 l 1,15,16
 1 301 1 301 1 346 c 0,17,18
 1 437 1 437 56.5 490.5 c 128,-1,19
 112 544 112 544 211 544 c 2,20,-1
 772 544 l 1,21,-1
 745 403 l 1,0,-1
EndSplineSet
EndChar

StartChar: uni1E08
Encoding: 7688 7688 433
Width: 716
Flags: W
LayerCount: 2
Fore
SplineSet
666 870 m 1,0,-1
 512 748 l 1,1,-1
 380 758 l 1,2,-1
 507 928 l 1,3,-1
 666 870 l 1,0,-1
553.5 31.5 m 128,-1,5
 480 -4 480 -4 407 -12 c 1,6,-1
 383 -53 l 1,7,8
 419 -62 419 -62 436 -81.5 c 128,-1,9
 453 -101 453 -101 453 -126 c 0,10,11
 453 -182 453 -182 408 -210.5 c 128,-1,12
 363 -239 363 -239 298 -239 c 0,13,14
 239 -239 239 -239 186 -218 c 1,15,-1
 232 -129 l 1,16,17
 255 -139 255 -139 281 -139 c 0,18,19
 301 -139 301 -139 314.5 -131.5 c 128,-1,20
 328 -124 328 -124 328 -114 c 0,21,22
 328 -103 328 -103 313 -97 c 128,-1,23
 298 -91 298 -91 276 -91 c 2,24,-1
 254 -91 l 1,25,-1
 296 -7 l 1,26,27
 218 8 218 8 159.5 53.5 c 128,-1,28
 101 99 101 99 69 167.5 c 128,-1,29
 37 236 37 236 37 319 c 0,30,31
 37 430 37 430 92.5 520.5 c 128,-1,32
 148 611 148 611 243.5 662.5 c 128,-1,33
 339 714 339 714 453 714 c 0,34,35
 532 714 532 714 607 680 c 128,-1,36
 682 646 682 646 731 589 c 1,37,-1
 595 446 l 1,38,39
 566 490 566 490 523.5 515.5 c 128,-1,40
 481 541 481 541 438 541 c 0,41,42
 388 541 388 541 345 514 c 128,-1,43
 302 487 302 487 276.5 440 c 128,-1,44
 251 393 251 393 251 336 c 0,45,46
 251 288 251 288 270 250 c 128,-1,47
 289 212 289 212 323.5 190 c 128,-1,48
 358 168 358 168 401 168 c 0,49,50
 442 168 442 168 489.5 190.5 c 128,-1,51
 537 213 537 213 576 250 c 1,52,-1
 683 122 l 1,53,4
 627 67 627 67 553.5 31.5 c 128,-1,5
EndSplineSet
EndChar

StartChar: uni1E09
Encoding: 7689 7689 434
Width: 578
Flags: W
LayerCount: 2
Fore
SplineSet
548 717 m 1,0,-1
 394 595 l 1,1,-1
 262 605 l 1,2,-1
 389 775 l 1,3,-1
 548 717 l 1,0,-1
396 213 m 1,5,-1
 545 134 l 1,6,7
 511 73 511 73 449.5 36.5 c 128,-1,8
 388 0 388 0 309 -6 c 1,9,-1
 281 -53 l 1,10,11
 317 -62 317 -62 334 -81.5 c 128,-1,12
 351 -101 351 -101 351 -126 c 0,13,14
 351 -182 351 -182 306 -210.5 c 128,-1,15
 261 -239 261 -239 196 -239 c 0,16,17
 137 -239 137 -239 84 -218 c 1,18,-1
 130 -129 l 1,19,20
 153 -139 153 -139 179 -139 c 0,21,22
 199 -139 199 -139 212.5 -131.5 c 128,-1,23
 226 -124 226 -124 226 -114 c 0,24,25
 226 -103 226 -103 211 -97 c 128,-1,26
 196 -91 196 -91 174 -91 c 2,27,-1
 152 -91 l 1,28,-1
 199 2 l 1,29,30
 115 22 115 22 67.5 85.5 c 128,-1,31
 20 149 20 149 20 241 c 0,32,33
 20 332 20 332 60 402.5 c 128,-1,34
 100 473 100 473 171.5 512 c 128,-1,35
 243 551 243 551 335 551 c 0,36,37
 420 551 420 551 481.5 514 c 128,-1,38
 543 477 543 477 571 409 c 1,39,-1
 409 333 l 1,40,41
 398 359 398 359 377 373 c 128,-1,42
 356 387 356 387 327 387 c 0,43,44
 283 387 283 387 254 350 c 128,-1,45
 225 313 225 313 225 255 c 0,46,47
 225 208 225 208 246 180.5 c 128,-1,48
 267 153 267 153 304 153 c 0,49,4
 365 153 365 153 396 213 c 1,5,-1
EndSplineSet
Substitution2: "<3,3> Small Caps in Latin lookup 11 subtable" uni1E09.sc
EndChar

StartChar: uni1E1C
Encoding: 7708 7708 443
Width: 683
Flags: W
LayerCount: 2
Fore
SplineSet
329 786 m 128,-1,1
 290 822 290 822 290 884 c 0,2,3
 290 901 290 901 293 917 c 1,4,-1
 416 917 l 1,5,6
 413 893 413 893 424.5 878 c 128,-1,7
 436 863 436 863 457 863 c 0,8,9
 479 863 479 863 496 878 c 128,-1,10
 513 893 513 893 520 917 c 1,11,-1
 643 917 l 1,12,13
 624 841 624 841 568 795.5 c 128,-1,14
 512 750 512 750 435 750 c 0,15,0
 368 750 368 750 329 786 c 128,-1,1
320 541 m 1,16,-1
 298 431 l 1,17,-1
 630 431 l 1,18,-1
 598 271 l 1,19,-1
 266 271 l 1,20,-1
 243 160 l 1,21,-1
 619 160 l 1,22,-1
 587 0 l 1,23,-1
 370 0 l 1,24,-1
 339 -53 l 1,25,26
 375 -62 375 -62 392 -81.5 c 128,-1,27
 409 -101 409 -101 409 -126 c 0,28,29
 409 -182 409 -182 364 -210.5 c 128,-1,30
 319 -239 319 -239 254 -239 c 0,31,32
 195 -239 195 -239 142 -218 c 1,33,-1
 188 -129 l 1,34,35
 211 -139 211 -139 237 -139 c 0,36,37
 257 -139 257 -139 270.5 -131.5 c 128,-1,38
 284 -124 284 -124 284 -114 c 0,39,40
 284 -103 284 -103 269 -97 c 128,-1,41
 254 -91 254 -91 232 -91 c 2,42,-1
 210 -91 l 1,43,-1
 256 0 l 1,44,-1
 4 0 l 1,45,-1
 144 701 l 1,46,-1
 718 701 l 1,47,-1
 686 541 l 1,48,-1
 320 541 l 1,16,-1
EndSplineSet
EndChar

StartChar: uni1E1D
Encoding: 7709 7709 444
Width: 619
Flags: W
LayerCount: 2
Fore
SplineSet
281 634 m 128,-1,1
 242 670 242 670 242 732 c 0,2,3
 242 749 242 749 245 765 c 1,4,-1
 368 765 l 1,5,6
 365 741 365 741 376.5 726 c 128,-1,7
 388 711 388 711 409 711 c 0,8,9
 431 711 431 711 448 726 c 128,-1,10
 465 741 465 741 472 765 c 1,11,-1
 595 765 l 1,12,13
 576 689 576 689 520 643.5 c 128,-1,14
 464 598 464 598 387 598 c 0,15,0
 320 598 320 598 281 634 c 128,-1,1
472 519 m 128,-1,17
 534 488 534 488 567 432 c 128,-1,18
 600 376 600 376 600 302 c 0,19,20
 600 264 600 264 591 223 c 1,21,-1
 218 223 l 1,22,23
 223 183 223 183 249 162 c 128,-1,24
 275 141 275 141 318 141 c 0,25,26
 381 141 381 141 436 184 c 1,27,-1
 538 79 l 1,28,29
 451 1 451 1 334 -6 c 1,30,-1
 307 -53 l 1,31,32
 343 -62 343 -62 360 -81.5 c 128,-1,33
 377 -101 377 -101 377 -126 c 0,34,35
 377 -182 377 -182 332 -210.5 c 128,-1,36
 287 -239 287 -239 222 -239 c 0,37,38
 163 -239 163 -239 110 -218 c 1,39,-1
 156 -129 l 1,40,41
 179 -139 179 -139 205 -139 c 0,42,43
 225 -139 225 -139 238.5 -131.5 c 128,-1,44
 252 -124 252 -124 252 -114 c 0,45,46
 252 -103 252 -103 237 -97 c 128,-1,47
 222 -91 222 -91 200 -91 c 2,48,-1
 178 -91 l 1,49,-1
 225 1 l 1,50,51
 128 21 128 21 73.5 84 c 128,-1,52
 19 147 19 147 19 239 c 0,53,54
 19 328 19 328 59 399 c 128,-1,55
 99 470 99 470 169 510 c 128,-1,56
 239 550 239 550 327 550 c 0,57,16
 410 550 410 550 472 519 c 128,-1,17
409 344 m 0,59,60
 409 374 409 374 390 392.5 c 128,-1,61
 371 411 371 411 340 411 c 0,62,63
 306 411 306 411 277 386.5 c 128,-1,64
 248 362 248 362 232 322 c 1,65,-1
 406 322 l 1,66,58
 409 334 409 334 409 344 c 0,59,60
EndSplineSet
Substitution2: "<3,3> Small Caps in Latin lookup 11 subtable" uni1E1D.sc
EndChar

StartChar: uni1E9E
Encoding: 7838 7838 506
Width: 736
Flags: W
LayerCount: 2
Fore
SplineSet
673.5 340 m 128,-1,1
 701 303 701 303 701 251 c 0,2,3
 701 235 701 235 698 217 c 0,4,5
 684 118 684 118 600.5 59 c 128,-1,6
 517 0 517 0 380 0 c 2,7,-1
 298 0 l 1,8,-1
 328 155 l 1,9,-1
 378 155 l 2,10,11
 424 155 424 155 453 175.5 c 128,-1,12
 482 196 482 196 486 231 c 0,13,14
 487 234 487 234 487 241 c 0,15,16
 487 267 487 267 466 280.5 c 128,-1,17
 445 294 445 294 405 294 c 2,18,-1
 383 294 l 1,19,-1
 405 410 l 1,20,-1
 533 534 l 1,21,22
 501 544 501 544 465 544 c 0,23,24
 392 544 392 544 342 501 c 128,-1,25
 292 458 292 458 277 382 c 2,26,-1
 203 0 l 1,27,-1
 -4 0 l 1,28,-1
 67 366 l 2,29,30
 98 529 98 529 207.5 619.5 c 128,-1,31
 317 710 317 710 481 710 c 0,32,33
 625 710 625 710 720 638 c 1,34,-1
 692 493 l 1,35,-1
 595 395 l 1,36,0
 646 377 646 377 673.5 340 c 128,-1,1
EndSplineSet
EndChar

StartChar: figuredash
Encoding: 8210 8210 603
Width: 618
Flags: W
LayerCount: 2
Fore
SplineSet
20 370 m 1,0,-1
 637 370 l 1,1,-1
 612 245 l 1,2,-1
 -5 245 l 1,3,-1
 20 370 l 1,0,-1
EndSplineSet
EndChar

StartChar: endash
Encoding: 8211 8211 604
Width: 409
Flags: W
LayerCount: 2
Fore
SplineSet
429 371 m 1,0,-1
 404 245 l 1,1,-1
 -5 245 l 1,2,-1
 20 371 l 1,3,-1
 429 371 l 1,0,-1
EndSplineSet
EndChar

StartChar: emdash
Encoding: 8212 8212 605
Width: 627
Flags: W
LayerCount: 2
Fore
SplineSet
647 371 m 1,0,-1
 622 245 l 1,1,-1
 -5 245 l 1,2,-1
 20 371 l 1,3,-1
 647 371 l 1,0,-1
EndSplineSet
EndChar

StartChar: quoteleft
Encoding: 8216 8216 607
Width: 246
Flags: W
LayerCount: 2
Fore
SplineSet
265 541 m 0,1,2
 265 496 265 496 235.5 466 c 128,-1,3
 206 436 206 436 162 436 c 0,4,5
 124 436 124 436 100 458 c 128,-1,6
 76 480 76 480 76 521 c 0,7,8
 76 560 76 560 108 603 c 2,9,-1
 208 742 l 1,10,-1
 303 742 l 1,11,-1
 234 602 l 1,12,0
 265 580 265 580 265 541 c 0,1,2
EndSplineSet
Substitution2: "<3,3> Small Caps in Latin lookup 11 subtable" quoteleft.sc
EndChar

StartChar: quoteright
Encoding: 8217 8217 608
Width: 247
Flags: W
LayerCount: 2
Fore
SplineSet
265 720 m 128,-1,1
 289 698 289 698 289 657 c 0,2,3
 289 618 289 618 257 575 c 2,4,-1
 157 436 l 1,5,-1
 62 436 l 1,6,-1
 131 576 l 1,7,8
 100 598 100 598 100 637 c 0,9,10
 100 682 100 682 129.5 712 c 128,-1,11
 159 742 159 742 203 742 c 0,12,0
 241 742 241 742 265 720 c 128,-1,1
EndSplineSet
Substitution2: "<3,3> Small Caps in Latin lookup 11 subtable" quoteright.sc
EndChar

StartChar: quotesinglbase
Encoding: 8218 8218 609
Width: 246
Flags: W
LayerCount: 2
Fore
SplineSet
152 158 m 128,-1,1
 176 136 176 136 176 95 c 0,2,3
 176 56 176 56 144 13 c 2,4,-1
 44 -126 l 1,5,-1
 -51 -126 l 1,6,-1
 18 14 l 1,7,8
 -13 36 -13 36 -13 75 c 0,9,10
 -13 120 -13 120 16.5 150 c 128,-1,11
 46 180 46 180 90 180 c 0,12,0
 128 180 128 180 152 158 c 128,-1,1
EndSplineSet
EndChar

StartChar: dagger
Encoding: 8224 8224 613
Width: 594
Flags: W
LayerCount: 2
Fore
SplineSet
480 699 m 1,0,-1
 440 499 l 1,1,-1
 620 499 l 1,2,-1
 588 339 l 1,3,-1
 407 339 l 1,4,-1
 303 -186 l 1,5,-1
 102 -186 l 1,6,-1
 207 339 l 1,7,-1
 33 339 l 1,8,-1
 65 499 l 1,9,-1
 239 499 l 1,10,-1
 279 699 l 1,11,-1
 480 699 l 1,0,-1
EndSplineSet
EndChar

StartChar: daggerdbl
Encoding: 8225 8225 614
Width: 594
Flags: W
LayerCount: 2
Fore
SplineSet
588 339 m 1,0,-1
 407 339 l 1,1,-1
 376 183 l 1,2,-1
 557 183 l 1,3,-1
 524 23 l 1,4,-1
 344 23 l 1,5,-1
 303 -186 l 1,6,-1
 102 -186 l 1,7,-1
 144 23 l 1,8,-1
 -31 23 l 1,9,-1
 2 183 l 1,10,-1
 176 183 l 1,11,-1
 207 339 l 1,12,-1
 33 339 l 1,13,-1
 65 499 l 1,14,-1
 239 499 l 1,15,-1
 279 699 l 1,16,-1
 480 699 l 1,17,-1
 440 499 l 1,18,-1
 620 499 l 1,19,-1
 588 339 l 1,0,-1
EndSplineSet
EndChar

StartChar: bullet
Encoding: 8226 8226 615
Width: 361
Flags: W
LayerCount: 2
Fore
SplineSet
283.5 381.5 m 128,-1,1
 323 342 323 342 323 280 c 0,2,3
 323 217 323 217 283.5 177.5 c 128,-1,4
 244 138 244 138 181 138 c 0,5,6
 119 138 119 138 79.5 177.5 c 128,-1,7
 40 217 40 217 40 280 c 0,8,9
 40 342 40 342 79.5 381.5 c 128,-1,10
 119 421 119 421 181 421 c 0,11,0
 244 421 244 421 283.5 381.5 c 128,-1,1
EndSplineSet
EndChar

StartChar: ellipsis
Encoding: 8230 8230 616
Width: 721
Flags: W
LayerCount: 2
Fore
SplineSet
162 155.5 m 128,-1,1
 185 133 185 133 185 95 c 0,2,3
 185 50 185 50 156.5 21 c 128,-1,4
 128 -8 128 -8 83 -8 c 0,5,6
 46 -8 46 -8 22.5 15.5 c 128,-1,7
 -1 39 -1 39 -1 76 c 0,8,9
 -1 122 -1 122 28 150 c 128,-1,10
 57 178 57 178 100 178 c 0,11,0
 139 178 139 178 162 155.5 c 128,-1,1
393 155.5 m 128,-1,13
 416 133 416 133 416 95 c 0,14,15
 416 50 416 50 387.5 21 c 128,-1,16
 359 -8 359 -8 314 -8 c 0,17,18
 277 -8 277 -8 253.5 15.5 c 128,-1,19
 230 39 230 39 230 76 c 0,20,21
 230 122 230 122 259 150 c 128,-1,22
 288 178 288 178 331 178 c 0,23,12
 370 178 370 178 393 155.5 c 128,-1,13
624 155.5 m 128,-1,25
 647 133 647 133 647 95 c 0,26,27
 647 50 647 50 618.5 21 c 128,-1,28
 590 -8 590 -8 545 -8 c 0,29,30
 508 -8 508 -8 484.5 15.5 c 128,-1,31
 461 39 461 39 461 76 c 0,32,33
 461 122 461 122 490 150 c 128,-1,34
 519 178 519 178 562 178 c 0,35,24
 601 178 601 178 624 155.5 c 128,-1,25
EndSplineSet
EndChar

StartChar: minute
Encoding: 8242 8242 618
Width: 225
Flags: W
LayerCount: 2
Fore
SplineSet
134 701 m 1,0,-1
 278 701 l 1,1,-1
 183 456 l 1,2,-1
 69 456 l 1,3,-1
 134 701 l 1,0,-1
EndSplineSet
EndChar

StartChar: guilsinglleft
Encoding: 8249 8249 620
Width: 284
Flags: W
LayerCount: 2
Fore
SplineSet
314 459 m 1,0,-1
 159 263 l 1,1,-1
 238 80 l 1,2,-1
 76 80 l 1,3,-1
 -9 270 l 1,4,-1
 151 459 l 1,5,-1
 314 459 l 1,0,-1
EndSplineSet
Substitution2: "<3,3> Small Caps in Latin lookup 11 subtable" guilsinglleft.sc
Substitution2: "'rtla' Right to Left Alternates lookup 0 subtable" guilsinglright
EndChar

StartChar: guilsinglright
Encoding: 8250 8250 621
Width: 286
Flags: W
LayerCount: 2
Fore
SplineSet
-24 80 m 1,0,-1
 131 276 l 1,1,-1
 52 459 l 1,2,-1
 214 459 l 1,3,-1
 299 269 l 1,4,-1
 139 80 l 1,5,-1
 -24 80 l 1,0,-1
EndSplineSet
Substitution2: "<3,3> Small Caps in Latin lookup 11 subtable" guilsinglright.sc
Substitution2: "'rtla' Right to Left Alternates lookup 0 subtable" guilsinglleft
EndChar

StartChar: fraction
Encoding: 8260 8260 622
Width: 251
Flags: W
LayerCount: 2
Fore
SplineSet
-34 0 m 1,0,-1
 -177 0 l 1,1,-1
 316 701 l 1,2,-1
 458 701 l 1,3,-1
 -34 0 l 1,0,-1
EndSplineSet
EndChar

StartChar: colonmonetary
Encoding: 8353 8353 640
Width: 716
Flags: W
LayerCount: 2
Fore
SplineSet
683 126 m 1,0,1
 635 79 635 79 574.5 46 c 128,-1,2
 514 13 514 13 451 0 c 1,3,-1
 388 -160 l 1,4,-1
 270 -160 l 1,5,-1
 330 -7 l 1,6,7
 301 -4 301 -4 272 4 c 1,8,-1
 207 -160 l 1,9,-1
 89 -160 l 1,10,-1
 172 49 l 1,11,12
 108 93 108 93 72 163.5 c 128,-1,13
 36 234 36 234 36 319 c 256,14,15
 36 404 36 404 70.5 478 c 128,-1,16
 105 552 105 552 166.5 605 c 128,-1,17
 228 658 228 658 308 684 c 1,18,-1
 376 857 l 1,19,-1
 495 857 l 1,20,-1
 435 707 l 1,21,-1
 451 707 l 2,22,23
 473 707 473 707 497 704 c 1,24,-1
 557 857 l 1,25,-1
 676 857 l 1,26,-1
 603 674 l 1,27,28
 680 641 680 641 729 583 c 1,29,-1
 594 441 l 1,30,31
 565 483 565 483 522 508.5 c 128,-1,32
 479 534 479 534 436 534 c 0,33,34
 386 534 386 534 343 508 c 128,-1,35
 300 482 300 482 275 436.5 c 128,-1,36
 250 391 250 391 250 336 c 0,37,38
 250 266 250 266 292.5 219.5 c 128,-1,39
 335 173 335 173 401 173 c 0,40,41
 441 173 441 173 488.5 195 c 128,-1,42
 536 217 536 217 575 254 c 1,43,-1
 683 126 l 1,0,1
EndSplineSet
EndChar

StartChar: franc
Encoding: 8355 8355 641
Width: 619
Flags: W
LayerCount: 2
Fore
SplineSet
656 541 m 1,0,-1
 320 541 l 1,1,-1
 292 401 l 1,2,-1
 605 401 l 1,3,-1
 574 249 l 1,4,-1
 262 249 l 1,5,-1
 244 161 l 1,6,-1
 457 161 l 1,7,-1
 444 93 l 1,8,-1
 231 93 l 1,9,-1
 212 0 l 1,10,-1
 4 0 l 1,11,-1
 23 93 l 1,12,-1
 -50 93 l 1,13,-1
 -36 161 l 1,14,-1
 36 161 l 1,15,-1
 144 701 l 1,16,-1
 688 701 l 1,17,-1
 656 541 l 1,0,-1
EndSplineSet
EndChar

StartChar: lira
Encoding: 8356 8356 642
Width: 562
Flags: W
LayerCount: 2
Fore
SplineSet
343 464 m 2,1,-1
 334 420 l 1,2,-1
 495 420 l 1,3,-1
 482 352 l 1,4,-1
 321 352 l 1,5,-1
 311 304 l 1,6,-1
 472 304 l 1,7,-1
 459 236 l 1,8,-1
 298 236 l 1,9,-1
 282 156 l 1,10,-1
 529 156 l 1,11,-1
 497 0 l 1,12,-1
 -31 0 l 1,13,-1
 0 156 l 1,14,-1
 73 156 l 1,15,-1
 89 236 l 1,16,-1
 15 236 l 1,17,-1
 29 304 l 1,18,-1
 103 304 l 1,19,-1
 113 352 l 1,20,-1
 38 352 l 1,21,-1
 52 420 l 1,22,-1
 126 420 l 1,23,-1
 136 468 l 2,24,25
 158 583 158 583 236.5 646.5 c 128,-1,26
 315 710 315 710 434 710 c 0,27,28
 497 710 497 710 550 688 c 128,-1,29
 603 666 603 666 637 626 c 1,30,-1
 531 473 l 1,31,32
 478 536 478 536 422 536 c 0,33,0
 358 536 358 536 343 464 c 2,1,-1
EndSplineSet
EndChar

StartChar: uni20A6
Encoding: 8358 8358 643
Width: 857
Flags: W
LayerCount: 2
Fore
SplineSet
864 375 m 1,0,-1
 782 375 l 1,1,-1
 772 327 l 1,2,-1
 853 327 l 1,3,-1
 839 259 l 1,4,-1
 759 259 l 1,5,-1
 707 0 l 1,6,-1
 529 0 l 1,7,-1
 311 389 l 1,8,-1
 233 0 l 1,9,-1
 41 0 l 1,10,-1
 93 259 l 1,11,-1
 11 259 l 1,12,-1
 24 327 l 1,13,-1
 106 327 l 1,14,-1
 116 375 l 1,15,-1
 35 375 l 1,16,-1
 48 443 l 1,17,-1
 129 443 l 1,18,-1
 181 701 l 1,19,-1
 359 701 l 1,20,-1
 578 309 l 1,21,-1
 656 701 l 1,22,-1
 847 701 l 1,23,-1
 795 443 l 1,24,-1
 878 443 l 1,25,-1
 864 375 l 1,0,-1
EndSplineSet
EndChar

StartChar: uni20A9
Encoding: 8361 8361 645
Width: 1054
Flags: W
LayerCount: 2
Fore
SplineSet
1132 701 m 1,0,-1
 1012 443 l 1,1,-1
 1095 443 l 1,2,-1
 1081 375 l 1,3,-1
 981 375 l 1,4,-1
 959 327 l 1,5,-1
 1042 327 l 1,6,-1
 1028 259 l 1,7,-1
 927 259 l 1,8,-1
 807 0 l 1,9,-1
 601 0 l 1,10,-1
 568 442 l 1,11,-1
 393 0 l 1,12,-1
 189 0 l 1,13,-1
 149 259 l 1,14,-1
 42 259 l 1,15,-1
 56 327 l 1,16,-1
 139 327 l 1,17,-1
 132 375 l 1,18,-1
 24 375 l 1,19,-1
 38 443 l 1,20,-1
 121 443 l 1,21,-1
 82 701 l 1,22,-1
 301 701 l 1,23,-1
 339 249 l 1,24,-1
 513 700 l 1,25,-1
 711 701 l 1,26,-1
 745 242 l 1,27,-1
 921 701 l 1,28,-1
 1132 701 l 1,0,-1
EndSplineSet
EndChar

StartChar: dong
Encoding: 8363 8363 646
Width: 699
Flags: W
LayerCount: 2
Fore
SplineSet
747 589 m 1,0,-1
 689 589 l 1,1,-1
 572 0 l 1,2,-1
 370 0 l 1,3,-1
 382 59 l 1,4,5
 313 -7 313 -7 224 -7 c 0,6,7
 164 -7 164 -7 117 23 c 128,-1,8
 70 53 70 53 44 106.5 c 128,-1,9
 18 160 18 160 18 230 c 0,10,11
 18 319 18 319 55.5 392.5 c 128,-1,12
 93 466 93 466 158.5 508.5 c 128,-1,13
 224 551 224 551 302 551 c 0,14,15
 358 551 358 551 399 528.5 c 128,-1,16
 440 506 440 506 463 463 c 1,17,-1
 488 589 l 1,18,-1
 359 589 l 1,19,-1
 374 665 l 1,20,-1
 503 665 l 1,21,-1
 518 742 l 1,22,-1
 720 742 l 1,23,-1
 705 665 l 1,24,-1
 762 665 l 1,25,-1
 747 589 l 1,0,-1
364.5 163.5 m 128,-1,27
 392 183 392 183 408 216 c 128,-1,28
 424 249 424 249 424 288 c 0,29,30
 424 332 424 332 401 359 c 128,-1,31
 378 386 378 386 339 386 c 0,32,33
 307 386 307 386 280.5 366.5 c 128,-1,34
 254 347 254 347 238 314.5 c 128,-1,35
 222 282 222 282 222 243 c 0,36,37
 222 197 222 197 244.5 170.5 c 128,-1,38
 267 144 267 144 305 144 c 0,39,26
 337 144 337 144 364.5 163.5 c 128,-1,27
28 -130 m 1,40,-1
 43 -54 l 1,41,-1
 536 -54 l 1,42,-1
 521 -130 l 1,43,-1
 28 -130 l 1,40,-1
EndSplineSet
EndChar

StartChar: Euro
Encoding: 8364 8364 647
Width: 789
Flags: W
LayerCount: 2
Fore
SplineSet
561.5 195 m 128,-1,1
 609 217 609 217 648 254 c 1,2,-1
 756 126 l 1,3,4
 693 64 693 64 608.5 27.5 c 128,-1,5
 524 -9 524 -9 445 -9 c 0,6,7
 358 -9 358 -9 287.5 25 c 128,-1,8
 217 59 217 59 172 119.5 c 128,-1,9
 127 180 127 180 114 259 c 1,10,-1
 18 259 l 1,11,-1
 32 327 l 1,12,-1
 109 327 l 1,13,14
 109 343 109 343 113 375 c 1,15,-1
 41 375 l 1,16,-1
 55 443 l 1,17,-1
 129 443 l 1,18,19
 156 521 156 521 214 581 c 128,-1,20
 272 641 272 641 352.5 674 c 128,-1,21
 433 707 433 707 524 707 c 0,22,23
 603 707 603 707 678.5 673.5 c 128,-1,24
 754 640 754 640 802 583 c 1,25,-1
 667 441 l 1,26,27
 638 483 638 483 595 508.5 c 128,-1,28
 552 534 552 534 510 534 c 0,29,30
 460 534 460 534 418.5 509.5 c 128,-1,31
 377 485 377 485 352 443 c 1,32,-1
 556 443 l 1,33,-1
 543 375 l 1,34,-1
 327 375 l 1,35,36
 324 356 324 356 324 336 c 2,37,-1
 324 327 l 1,38,-1
 533 327 l 1,39,-1
 520 259 l 1,40,-1
 340 259 l 1,41,42
 358 219 358 219 393 196 c 128,-1,43
 428 173 428 173 474 173 c 0,44,0
 514 173 514 173 561.5 195 c 128,-1,1
EndSplineSet
EndChar

StartChar: uni20AD
Encoding: 8365 8365 648
Width: 750
Flags: W
LayerCount: 2
Fore
SplineSet
674 330 m 1,0,-1
 498 330 l 1,1,-1
 692 0 l 1,2,-1
 447 0 l 1,3,-1
 274 308 l 1,4,-1
 214 0 l 1,5,-1
 6 0 l 1,6,-1
 70 330 l 1,7,-1
 -2 330 l 1,8,-1
 11 398 l 1,9,-1
 83 398 l 1,10,-1
 142 701 l 1,11,-1
 350 701 l 1,12,-1
 297 426 l 1,13,-1
 546 701 l 1,14,-1
 782 701 l 1,15,-1
 500 398 l 1,16,-1
 688 398 l 1,17,-1
 674 330 l 1,0,-1
EndSplineSet
EndChar

StartChar: uni20B1
Encoding: 8369 8369 649
Width: 773
Flags: W
LayerCount: 2
Fore
SplineSet
740 468 m 1,0,1
 736 436 736 436 732 420 c 1,2,-1
 806 420 l 1,3,-1
 793 352 l 1,4,-1
 707 352 l 1,5,6
 668 275 668 275 587.5 231.5 c 128,-1,7
 507 188 507 188 397 188 c 2,8,-1
 287 188 l 1,9,-1
 249 0 l 1,10,-1
 41 0 l 1,11,-1
 111 352 l 1,12,-1
 30 352 l 1,13,-1
 42 420 l 1,14,-1
 125 420 l 1,15,-1
 134 468 l 1,16,-1
 53 468 l 1,17,-1
 65 536 l 1,18,-1
 148 536 l 1,19,-1
 181 701 l 1,20,-1
 500 701 l 2,21,22
 605 701 605 701 666.5 658 c 128,-1,23
 728 615 728 615 739 536 c 1,24,-1
 828 536 l 1,25,-1
 816 468 l 1,26,-1
 740 468 l 1,0,1
506.5 381 m 128,-1,28
 539 413 539 413 539 467 c 0,29,30
 539 503 539 503 518 522 c 128,-1,31
 497 541 497 541 457 541 c 2,32,-1
 357 541 l 1,33,-1
 319 349 l 1,34,-1
 419 349 l 2,35,27
 474 349 474 349 506.5 381 c 128,-1,28
EndSplineSet
EndChar

StartChar: uni20B2
Encoding: 8370 8370 650
Width: 748
Flags: W
LayerCount: 2
Fore
SplineSet
552 363 m 1,0,-1
 731 363 l 1,1,-1
 675 81 l 1,2,3
 617 44 617 44 545 20 c 128,-1,4
 473 -4 473 -4 405 -8 c 1,5,-1
 378 -160 l 1,6,-1
 236 -160 l 1,7,-1
 266 7 l 1,8,9
 161 38 161 38 98.5 122 c 128,-1,10
 36 206 36 206 36 319 c 0,11,12
 36 417 36 417 82.5 499 c 128,-1,13
 129 581 129 581 210.5 634.5 c 128,-1,14
 292 688 292 688 394 702 c 1,15,-1
 422 857 l 1,16,-1
 564 857 l 1,17,-1
 536 701 l 1,18,19
 599 690 599 690 654.5 664 c 128,-1,20
 710 638 710 638 750 601 c 1,21,-1
 618 458 l 1,22,23
 585 493 585 493 538.5 513.5 c 128,-1,24
 492 534 492 534 446 534 c 0,25,26
 393 534 393 534 348 507.5 c 128,-1,27
 303 481 303 481 276.5 434.5 c 128,-1,28
 250 388 250 388 250 333 c 0,29,30
 250 285 250 285 270.5 246.5 c 128,-1,31
 291 208 291 208 328 186.5 c 128,-1,32
 365 165 365 165 411 165 c 0,33,34
 455 165 455 165 518 191 c 1,35,-1
 552 363 l 1,0,-1
EndSplineSet
EndChar

StartChar: uni20B5
Encoding: 8373 8373 651
Width: 716
Flags: W
LayerCount: 2
Fore
SplineSet
683 126 m 1,0,1
 627 71 627 71 553 35.5 c 128,-1,2
 479 0 479 0 405 -7 c 1,3,-1
 378 -160 l 1,4,-1
 236 -160 l 1,5,-1
 266 5 l 1,6,7
 161 35 161 35 98.5 120 c 128,-1,8
 36 205 36 205 36 319 c 0,9,10
 36 419 36 419 83 502.5 c 128,-1,11
 130 586 130 586 212 639 c 128,-1,12
 294 692 294 692 395 704 c 1,13,-1
 422 857 l 1,14,-1
 564 857 l 1,15,-1
 535 697 l 1,16,17
 593 683 593 683 643 654 c 128,-1,18
 693 625 693 625 729 583 c 1,19,-1
 594 441 l 1,20,21
 565 483 565 483 522 508.5 c 128,-1,22
 479 534 479 534 436 534 c 0,23,24
 386 534 386 534 343 508 c 128,-1,25
 300 482 300 482 275 436.5 c 128,-1,26
 250 391 250 391 250 336 c 0,27,28
 250 266 250 266 292.5 219.5 c 128,-1,29
 335 173 335 173 401 173 c 0,30,31
 441 173 441 173 488.5 195 c 128,-1,32
 536 217 536 217 575 254 c 1,33,-1
 683 126 l 1,0,1
EndSplineSet
EndChar

StartChar: uni20B9
Encoding: 8377 8377 652
Width: 637
Flags: W
LayerCount: 2
Fore
SplineSet
649 558 m 1,0,-1
 553 558 l 1,1,2
 560 533 560 533 560 501 c 0,3,4
 560 486 560 486 559 479 c 1,5,-1
 634 479 l 1,6,-1
 620 411 l 1,7,-1
 549 411 l 1,8,9
 517 295 517 295 410 235 c 1,10,-1
 542 0 l 1,11,-1
 307 0 l 1,12,-1
 218 188 l 1,13,-1
 206 188 l 1,14,-1
 9 188 l 1,15,-1
 39 333 l 1,16,-1
 231 333 l 2,17,18
 271 333 271 333 301.5 354.5 c 128,-1,19
 332 376 332 376 347 411 c 1,20,-1
 52 411 l 1,21,-1
 66 479 l 1,22,-1
 357 479 l 1,23,24
 354 513 354 513 332.5 534.5 c 128,-1,25
 311 556 311 556 276 556 c 2,26,-1
 81 556 l 1,27,-1
 109 701 l 1,28,-1
 678 701 l 1,29,-1
 649 558 l 1,0,-1
EndSplineSet
EndChar

StartChar: uni20BA
Encoding: 8378 8378 653
Width: 750
Flags: W
LayerCount: 2
Fore
SplineSet
742 360 m 1,0,1
 721 251 721 251 658 169.5 c 128,-1,2
 595 88 595 88 499 44 c 128,-1,3
 403 0 403 0 286 0 c 2,4,-1
 43 0 l 1,5,-1
 106 317 l 1,6,-1
 29 296 l 1,7,-1
 47 387 l 1,8,-1
 125 408 l 1,9,-1
 136 463 l 1,10,-1
 58 442 l 1,11,-1
 76 533 l 1,12,-1
 154 554 l 1,13,-1
 183 701 l 1,14,-1
 391 701 l 1,15,-1
 374 614 l 1,16,-1
 573 669 l 1,17,-1
 555 578 l 1,18,-1
 356 523 l 1,19,-1
 345 468 l 1,20,-1
 544 523 l 1,21,-1
 526 432 l 1,22,-1
 327 377 l 1,23,-1
 284 162 l 1,24,-1
 330 162 l 2,25,26
 407 162 407 162 460 214 c 128,-1,27
 513 266 513 266 531 358 c 1,28,-1
 742 360 l 1,0,1
EndSplineSet
EndChar

StartChar: uni20BC
Encoding: 8380 8380 654
Width: 853
Flags: W
LayerCount: 2
Fore
SplineSet
752 530.5 m 128,-1,1
 818 468 818 468 818 370 c 0,2,3
 818 345 818 345 811 306 c 2,4,-1
 751 0 l 1,5,-1
 543 0 l 1,6,-1
 603 306 l 2,7,8
 606 321 606 321 606 334 c 0,9,10
 606 369 606 369 586.5 393.5 c 128,-1,11
 567 418 567 418 529 428 c 1,12,-1
 444 0 l 1,13,-1
 303 0 l 1,14,-1
 388 427 l 1,15,16
 338 413 338 413 305 381.5 c 128,-1,17
 272 350 272 350 263 306 c 2,18,-1
 202 0 l 1,19,-1
 -6 0 l 1,20,-1
 55 306 l 2,21,22
 80 429 80 429 179.5 509.5 c 128,-1,23
 279 590 279 590 423 607 c 1,24,-1
 442 701 l 1,25,-1
 583 701 l 1,26,-1
 564 607 l 1,27,0
 686 593 686 593 752 530.5 c 128,-1,1
EndSplineSet
EndChar

StartChar: uni20BD
Encoding: 8381 8381 655
Width: 694
Flags: W
LayerCount: 2
Fore
SplineSet
255 217 m 1,0,-1
 243 156 l 1,1,-1
 456 156 l 1,2,-1
 443 88 l 1,3,-1
 230 88 l 1,4,-1
 212 0 l 1,5,-1
 4 0 l 1,6,-1
 22 88 l 1,7,-1
 -51 88 l 1,8,-1
 -37 156 l 1,9,-1
 35 156 l 1,10,-1
 144 701 l 1,11,-1
 462 701 l 2,12,13
 578 701 578 701 641 650 c 128,-1,14
 704 599 704 599 704 510 c 0,15,16
 704 371 704 371 612.5 294 c 128,-1,17
 521 217 521 217 360 217 c 2,18,-1
 255 217 l 1,0,-1
480.5 523 m 128,-1,20
 459 541 459 541 420 541 c 2,21,-1
 320 541 l 1,22,-1
 284 364 l 1,23,-1
 382 364 l 2,24,25
 439 364 439 364 470.5 391 c 128,-1,26
 502 418 502 418 502 475 c 0,27,19
 502 505 502 505 480.5 523 c 128,-1,20
EndSplineSet
EndChar

StartChar: uni2113
Encoding: 8467 8467 656
Width: 471
Flags: W
LayerCount: 2
Fore
SplineSet
434.5 673 m 128,-1,1
 465 636 465 636 460 570 c 0,2,3
 455 497 455 497 412.5 432 c 128,-1,4
 370 367 370 367 320 321 c 128,-1,5
 270 275 270 275 200 220 c 1,6,7
 194 195 194 195 194 177 c 0,8,9
 194 122 194 122 244 122 c 0,10,11
 299 122 299 122 364 198 c 1,12,-1
 416 129 l 1,13,14
 321 -6 321 -6 191 -6 c 0,15,16
 123 -6 123 -6 88.5 31 c 128,-1,17
 54 68 54 68 52 137 c 1,18,-1
 5 111 l 1,19,-1
 -16 190 l 1,20,-1
 72 248 l 1,21,-1
 125 475 l 2,22,23
 154 593 154 593 212 651.5 c 128,-1,24
 270 710 270 710 344 710 c 0,25,0
 404 710 404 710 434.5 673 c 128,-1,1
264 493 m 2,27,-1
 233 359 l 1,28,29
 278 404 278 404 313.5 459.5 c 128,-1,30
 349 515 349 515 353 567 c 0,31,32
 355 610 355 610 331 610 c 0,33,26
 293 610 293 610 264 493 c 2,27,-1
EndSplineSet
EndChar

StartChar: uni2116
Encoding: 8470 8470 657
Width: 1291
Flags: W
LayerCount: 2
Fore
SplineSet
1232.5 667.5 m 128,-1,1
 1280 626 1280 626 1280 557 c 0,2,3
 1280 503 1280 503 1253.5 461 c 128,-1,4
 1227 419 1227 419 1179.5 396 c 128,-1,5
 1132 373 1132 373 1070 373 c 0,6,7
 989 373 989 373 941 414.5 c 128,-1,8
 893 456 893 456 893 525 c 0,9,10
 893 580 893 580 919.5 621.5 c 128,-1,11
 946 663 946 663 993.5 686 c 128,-1,12
 1041 709 1041 709 1103 709 c 0,13,0
 1185 709 1185 709 1232.5 667.5 c 128,-1,1
594 309 m 1,14,-1
 672 701 l 1,15,-1
 863 701 l 1,16,-1
 723 0 l 1,17,-1
 545 0 l 1,18,-1
 327 389 l 1,19,-1
 249 0 l 1,20,-1
 57 0 l 1,21,-1
 197 701 l 1,22,-1
 375 701 l 1,23,-1
 594 309 l 1,14,-1
1123.5 495 m 128,-1,25
 1140 515 1140 515 1140 548 c 0,26,27
 1140 575 1140 575 1127.5 590 c 128,-1,28
 1115 605 1115 605 1092 605 c 0,29,30
 1066 605 1066 605 1048.5 584.5 c 128,-1,31
 1031 564 1031 564 1031 531 c 0,32,33
 1031 505 1031 505 1044.5 490 c 128,-1,34
 1058 475 1058 475 1080 475 c 0,35,24
 1107 475 1107 475 1123.5 495 c 128,-1,25
877 172 m 1,36,-1
 902 298 l 1,37,-1
 1192 298 l 1,38,-1
 1168 172 l 1,39,-1
 877 172 l 1,36,-1
EndSplineSet
EndChar

StartChar: trademark
Encoding: 8482 8482 658
Width: 938
Flags: W
LayerCount: 2
Fore
SplineSet
451 701 m 1,0,-1
 424 585 l 1,1,-1
 318 585 l 1,2,-1
 248 280 l 1,3,-1
 103 280 l 1,4,-1
 173 585 l 1,5,-1
 68 585 l 1,6,-1
 94 701 l 1,7,-1
 451 701 l 1,0,-1
982 701 m 1,8,-1
 886 280 l 1,9,-1
 756 280 l 1,10,-1
 805 495 l 1,11,-1
 698 321 l 1,12,-1
 598 321 l 1,13,-1
 570 495 l 1,14,-1
 521 280 l 1,15,-1
 390 280 l 1,16,-1
 486 701 l 1,17,-1
 643 701 l 1,18,-1
 684 492 l 1,19,-1
 822 701 l 1,20,-1
 982 701 l 1,8,-1
EndSplineSet
EndChar

StartChar: estimated
Encoding: 8494 8494 660
Width: 816
Flags: W
LayerCount: 2
Fore
SplineSet
207 308 m 2,1,-1
 207 144 l 2,2,3
 207 135 207 135 215 125 c 0,4,5
 254 83 254 83 307.5 59.5 c 128,-1,6
 361 36 361 36 421 36 c 0,7,8
 484 36 484 36 540.5 62.5 c 128,-1,9
 597 89 597 89 636 135 c 1,10,-1
 685 135 l 1,11,12
 639 81 639 81 569 49.5 c 128,-1,13
 499 18 499 18 420 18 c 0,14,15
 329 18 329 18 252 58.5 c 128,-1,16
 175 99 175 99 130 168 c 128,-1,17
 85 237 85 237 85 319 c 256,18,19
 85 401 85 401 130 470.5 c 128,-1,20
 175 540 175 540 252 580.5 c 128,-1,21
 329 621 329 621 420 621 c 256,22,23
 511 621 511 621 588 580.5 c 128,-1,24
 665 540 665 540 710 470.5 c 128,-1,25
 755 401 755 401 755 319 c 2,26,-1
 755 312 l 1,27,-1
 212 312 l 2,28,0
 207 312 207 312 207 308 c 2,1,-1
624 518 m 0,30,31
 584 558 584 558 531.5 580.5 c 128,-1,32
 479 603 479 603 421 603 c 0,33,34
 362 603 362 603 309 579.5 c 128,-1,35
 256 556 256 556 216 515 c 0,36,37
 207 506 207 506 207 495 c 2,38,-1
 207 333 l 2,39,40
 207 328 207 328 212 328 c 2,41,-1
 628 328 l 2,42,43
 633 328 633 328 633 333 c 2,44,-1
 633 498 l 2,45,29
 633 509 633 509 624 518 c 0,30,31
EndSplineSet
EndChar

StartChar: arrowleft
Encoding: 8592 8592 667
Width: 600
Flags: W
LayerCount: 2
Fore
SplineSet
573 345 m 1,0,-1
 547 210 l 1,1,-1
 273 210 l 1,2,-1
 340 39 l 1,3,-1
 169 39 l 1,4,-1
 60 278 l 1,5,-1
 262 517 l 1,6,-1
 433 517 l 1,7,-1
 299 345 l 1,8,-1
 573 345 l 1,0,-1
EndSplineSet
EndChar

StartChar: arrowup
Encoding: 8593 8593 668
Width: 600
Flags: W
LayerCount: 2
Fore
SplineSet
560 376 m 1,0,-1
 531 226 l 1,1,-1
 387 321 l 1,2,-1
 331 30 l 1,3,-1
 176 30 l 1,4,-1
 232 320 l 1,5,-1
 53 226 l 1,6,-1
 82 376 l 1,7,-1
 351 531 l 1,8,-1
 560 376 l 1,0,-1
EndSplineSet
EndChar

StartChar: arrowright
Encoding: 8594 8594 669
Width: 600
Flags: W
LayerCount: 2
Fore
SplineSet
434 518 m 1,0,-1
 543 279 l 1,1,-1
 341 40 l 1,2,-1
 170 40 l 1,3,-1
 304 212 l 1,4,-1
 30 212 l 1,5,-1
 56 347 l 1,6,-1
 330 347 l 1,7,-1
 263 518 l 1,8,-1
 434 518 l 1,0,-1
EndSplineSet
EndChar

StartChar: arrowdown
Encoding: 8595 8595 670
Width: 600
Flags: W
LayerCount: 2
Fore
SplineSet
371 236 m 1,0,-1
 550 330 l 1,1,-1
 521 180 l 1,2,-1
 252 25 l 1,3,-1
 43 180 l 1,4,-1
 72 330 l 1,5,-1
 216 235 l 1,6,-1
 272 526 l 1,7,-1
 427 526 l 1,8,-1
 371 236 l 1,0,-1
EndSplineSet
EndChar

StartChar: arrowboth
Encoding: 8596 8596 671
Width: 902
Flags: W
LayerCount: 2
Fore
SplineSet
743 517 m 1,0,-1
 852 278 l 1,1,-1
 650 39 l 1,2,-1
 479 39 l 1,3,-1
 612 210 l 1,4,-1
 263 210 l 1,5,-1
 330 39 l 1,6,-1
 159 39 l 1,7,-1
 50 278 l 1,8,-1
 252 517 l 1,9,-1
 423 517 l 1,10,-1
 289 345 l 1,11,-1
 639 345 l 1,12,-1
 572 517 l 1,13,-1
 743 517 l 1,0,-1
EndSplineSet
EndChar

StartChar: arrowupdn
Encoding: 8597 8597 672
Width: 676
Flags: W
LayerCount: 2
Fore
SplineSet
586 404 m 1,0,-1
 443 498 l 1,1,-1
 389 216 l 1,2,-1
 568 310 l 1,3,-1
 539 160 l 1,4,-1
 270 5 l 1,5,-1
 61 160 l 1,6,-1
 90 310 l 1,7,-1
 233 215 l 1,8,-1
 288 498 l 1,9,-1
 108 404 l 1,10,-1
 137 553 l 1,11,-1
 406 708 l 1,12,-1
 615 553 l 1,13,-1
 586 404 l 1,0,-1
EndSplineSet
EndChar

StartChar: uni2196
Encoding: 8598 8598 673
Width: 621
Flags: W
LayerCount: 2
Fore
SplineSet
561 415 m 1,0,-1
 371 367 l 1,1,-1
 537 162 l 1,2,-1
 406 53 l 1,3,-1
 240 258 l 1,4,-1
 158 78 l 1,5,-1
 73 183 l 1,6,-1
 186 461 l 1,7,-1
 477 521 l 1,8,-1
 561 415 l 1,0,-1
EndSplineSet
EndChar

StartChar: uni2197
Encoding: 8599 8599 674
Width: 604
Flags: W
LayerCount: 2
Fore
SplineSet
545 177 m 1,0,-1
 420 71 l 1,1,-1
 407 252 l 1,2,-1
 162 46 l 1,3,-1
 74 156 l 1,4,-1
 318 361 l 1,5,-1
 147 409 l 1,6,-1
 273 514 l 1,7,-1
 541 455 l 1,8,-1
 545 177 l 1,0,-1
EndSplineSet
EndChar

StartChar: uni2198
Encoding: 8600 8600 675
Width: 621
Flags: W
LayerCount: 2
Fore
SplineSet
477 486 m 1,0,-1
 562 381 l 1,1,-1
 449 103 l 1,2,-1
 158 43 l 1,3,-1
 73 149 l 1,4,-1
 263 197 l 1,5,-1
 98 402 l 1,6,-1
 229 511 l 1,7,-1
 395 306 l 1,8,-1
 477 486 l 1,0,-1
EndSplineSet
EndChar

StartChar: uni2199
Encoding: 8601 8601 676
Width: 604
Flags: W
LayerCount: 2
Fore
SplineSet
544 408 m 1,0,-1
 300 203 l 1,1,-1
 471 155 l 1,2,-1
 345 50 l 1,3,-1
 78 109 l 1,4,-1
 72 388 l 1,5,-1
 198 493 l 1,6,-1
 211 313 l 1,7,-1
 455 518 l 1,8,-1
 544 408 l 1,0,-1
EndSplineSet
EndChar

StartChar: partialdiff
Encoding: 8706 8706 677
Width: 664
Flags: W
LayerCount: 2
Fore
SplineSet
159.5 18 m 128,-1,1
 103 45 103 45 72.5 94.5 c 128,-1,2
 42 144 42 144 42 210 c 0,3,4
 42 284 42 284 75 342 c 128,-1,5
 108 400 108 400 167.5 432.5 c 128,-1,6
 227 465 227 465 303 465 c 0,7,8
 353 465 353 465 388.5 446.5 c 128,-1,9
 424 428 424 428 442 397 c 1,10,11
 444 411 444 411 444 432 c 0,12,13
 444 490 444 490 412.5 520 c 128,-1,14
 381 550 381 550 319 550 c 0,15,16
 235 550 235 550 161 494 c 1,17,-1
 97 640 l 1,18,19
 148 672 148 672 215 691 c 128,-1,20
 282 710 282 710 346 710 c 0,21,22
 435 710 435 710 501.5 671 c 128,-1,23
 568 632 568 632 603.5 561 c 128,-1,24
 639 490 639 490 639 395 c 0,25,26
 639 275 639 275 596.5 183.5 c 128,-1,27
 554 92 554 92 475 41.5 c 128,-1,28
 396 -9 396 -9 290 -9 c 0,29,0
 216 -9 216 -9 159.5 18 c 128,-1,1
381.5 180 m 128,-1,31
 406 203 406 203 406 244 c 0,32,33
 406 278 406 278 385 295.5 c 128,-1,34
 364 313 364 313 326 313 c 0,35,36
 282 313 282 313 259 290.5 c 128,-1,37
 236 268 236 268 236 226 c 0,38,39
 236 192 236 192 255.5 174.5 c 128,-1,40
 275 157 275 157 312 157 c 0,41,30
 357 157 357 157 381.5 180 c 128,-1,31
EndSplineSet
EndChar

StartChar: emptyset
Encoding: 8709 8709 678
Width: 564
Flags: W
LayerCount: 2
Fore
SplineSet
513 467 m 1,0,1
 544 416 544 416 544 353 c 0,2,3
 544 282 544 282 506 219.5 c 128,-1,4
 468 157 468 157 405 119.5 c 128,-1,5
 342 82 342 82 271 82 c 0,6,7
 228 82 228 82 190 96 c 128,-1,8
 152 110 152 110 123 136 c 1,9,-1
 33 60 l 1,10,-1
 -12 115 l 1,11,-1
 78 191 l 1,12,13
 49 241 49 241 49 303 c 0,14,15
 49 374 49 374 86.5 436.5 c 128,-1,16
 124 499 124 499 187 536.5 c 128,-1,17
 250 574 250 574 321 574 c 0,18,19
 364 574 364 574 401.5 560 c 128,-1,20
 439 546 439 546 468 521 c 1,21,-1
 553 593 l 1,22,-1
 598 539 l 1,23,-1
 513 467 l 1,0,1
185 282 m 1,25,-1
 361 430 l 1,26,27
 337 443 337 443 309 443 c 0,28,29
 275 443 275 443 245.5 425.5 c 128,-1,30
 216 408 216 408 198 379 c 128,-1,31
 180 350 180 350 180 316 c 0,32,24
 180 299 180 299 185 282 c 1,25,-1
407 377 m 1,34,-1
 229 226 l 1,35,36
 252 212 252 212 283 212 c 0,37,38
 317 212 317 212 347 229.5 c 128,-1,39
 377 247 377 247 395 276.5 c 128,-1,40
 413 306 413 306 413 340 c 0,41,33
 413 359 413 359 407 377 c 1,34,-1
EndSplineSet
EndChar

StartChar: uni2206
Encoding: 8710 8710 679
Width: 723
Flags: W
LayerCount: 2
Fore
SplineSet
543 701 m 1,0,-1
 697 120 l 1,1,-1
 676 0 l 1,2,-1
 -59 0 l 1,3,-1
 -38 120 l 1,4,-1
 329 701 l 1,5,-1
 543 701 l 1,0,-1
394 497 m 1,6,-1
 189 162 l 1,7,-1
 477 162 l 1,8,-1
 394 497 l 1,6,-1
EndSplineSet
EndChar

StartChar: product
Encoding: 8719 8719 680
Width: 738
Flags: W
LayerCount: 2
Fore
SplineSet
774 742 m 1,0,-1
 586 -194 l 1,1,-1
 384 -194 l 1,2,-1
 539 584 l 1,3,-1
 324 584 l 1,4,-1
 168 -194 l 1,5,-1
 -34 -194 l 1,6,-1
 154 742 l 1,7,-1
 774 742 l 1,0,-1
EndSplineSet
EndChar

StartChar: summation
Encoding: 8721 8721 681
Width: 621
Flags: W
LayerCount: 2
Fore
SplineSet
698 745 m 1,0,-1
 663 571 l 1,1,-1
 336 571 l 1,2,-1
 501 301 l 1,3,-1
 234 36 l 1,4,-1
 566 36 l 1,5,-1
 531 -138 l 1,6,-1
 -56 -138 l 1,7,-1
 -29 5 l 1,8,-1
 281 301 l 1,9,-1
 106 598 l 1,10,-1
 133 745 l 1,11,-1
 698 745 l 1,0,-1
EndSplineSet
EndChar

StartChar: minus
Encoding: 8722 8722 682
Width: 516
Flags: W
LayerCount: 2
Fore
SplineSet
508 391 m 1,0,-1
 483 265 l 1,1,-1
 30 265 l 1,2,-1
 55 391 l 1,3,-1
 508 391 l 1,0,-1
EndSplineSet
EndChar

StartChar: uni2219
Encoding: 8729 8729 684
Width: 351
Flags: W
LayerCount: 2
Fore
SplineSet
290 391.5 m 128,-1,1
 322 362 322 362 322 312 c 0,2,3
 322 266 322 266 299 226 c 128,-1,4
 276 186 276 186 236 162 c 128,-1,5
 196 138 196 138 149 138 c 0,6,7
 95 138 95 138 63.5 168.5 c 128,-1,8
 32 199 32 199 32 249 c 0,9,10
 32 294 32 294 55 334 c 128,-1,11
 78 374 78 374 117.5 397.5 c 128,-1,12
 157 421 157 421 204 421 c 0,13,0
 258 421 258 421 290 391.5 c 128,-1,1
EndSplineSet
EndChar

StartChar: radical
Encoding: 8730 8730 685
Width: 719
Flags: W
LayerCount: 2
Fore
SplineSet
27 414 m 1,0,-1
 292 414 l 1,1,-1
 315 41 l 1,2,-1
 638 744 l 1,3,-1
 833 744 l 1,4,-1
 387 -159 l 1,5,-1
 171 -159 l 1,6,-1
 124 255 l 1,7,-1
 -6 255 l 1,8,-1
 27 414 l 1,0,-1
EndSplineSet
EndChar

StartChar: infinity
Encoding: 8734 8734 686
Width: 848
Flags: W
LayerCount: 2
Fore
SplineSet
740 493.5 m 128,-1,1
 784 468 784 468 808 422 c 128,-1,2
 832 376 832 376 832 317 c 0,3,4
 832 250 832 250 802 195 c 128,-1,5
 772 140 772 140 720 108 c 128,-1,6
 668 76 668 76 604 76 c 0,7,8
 539 76 539 76 497 107 c 128,-1,9
 455 138 455 138 424 193 c 1,10,11
 382 138 382 138 333.5 107 c 128,-1,12
 285 76 285 76 219 76 c 0,13,14
 163 76 163 76 119 101.5 c 128,-1,15
 75 127 75 127 50.5 173.5 c 128,-1,16
 26 220 26 220 26 279 c 0,17,18
 26 346 26 346 56.5 400.5 c 128,-1,19
 87 455 87 455 139 487 c 128,-1,20
 191 519 191 519 255 519 c 0,21,22
 320 519 320 519 361.5 488 c 128,-1,23
 403 457 403 457 434 403 c 1,24,25
 477 457 477 457 525 488 c 128,-1,26
 573 519 573 519 639 519 c 0,27,0
 696 519 696 519 740 493.5 c 128,-1,1
298.5 235.5 m 128,-1,29
 330 260 330 260 364 306 c 1,30,31
 340 344 340 344 313.5 364 c 128,-1,32
 287 384 287 384 248 384 c 0,33,34
 211 384 211 384 186 355 c 128,-1,35
 161 326 161 326 161 284 c 0,36,37
 161 250 161 250 178.5 230.5 c 128,-1,38
 196 211 196 211 228 211 c 0,39,28
 267 211 267 211 298.5 235.5 c 128,-1,29
670.5 239 m 128,-1,41
 697 267 697 267 697 311 c 0,42,43
 697 346 697 346 679 365 c 128,-1,44
 661 384 661 384 629 384 c 0,45,46
 590 384 590 384 558.5 359.5 c 128,-1,47
 527 335 527 335 493 289 c 1,48,49
 515 251 515 251 540.5 231 c 128,-1,50
 566 211 566 211 603 211 c 0,51,40
 644 211 644 211 670.5 239 c 128,-1,41
EndSplineSet
EndChar

StartChar: integral
Encoding: 8747 8747 687
Width: 321
Flags: W
LayerCount: 2
Fore
SplineSet
368 716 m 0,1,2
 322 716 322 716 298.5 690.5 c 128,-1,3
 275 665 275 665 269 607 c 0,4,5
 265 568 265 568 257 382 c 0,6,7
 249 171 249 171 243 109 c 0,8,9
 233 16 233 16 207.5 -39 c 128,-1,10
 182 -94 182 -94 136 -119 c 128,-1,11
 90 -144 90 -144 16 -144 c 0,12,13
 -23 -144 -23 -144 -50 -136.5 c 128,-1,14
 -77 -129 -77 -129 -103 -113 c 1,15,-1
 -71 11 l 1,16,17
 -34 -6 -34 -6 -8 -6 c 0,18,19
 40 -6 40 -6 65 21.5 c 128,-1,20
 90 49 90 49 96 111 c 0,21,22
 101 155 101 155 109 370 c 0,23,24
 114 546 114 546 120 605 c 0,25,26
 130 698 130 698 155 752.5 c 128,-1,27
 180 807 180 807 226 831.5 c 128,-1,28
 272 856 272 856 345 856 c 0,29,30
 372 856 372 856 396 850 c 128,-1,31
 420 844 420 844 449 830 c 1,32,-1
 423 706 l 1,33,0
 397 716 397 716 368 716 c 0,1,2
EndSplineSet
EndChar

StartChar: approxequal
Encoding: 8776 8776 688
Width: 516
Flags: W
LayerCount: 2
Fore
SplineSet
267 530 m 128,-1,1
 286 522 286 522 307 507 c 0,2,3
 330 491 330 491 342 491 c 0,4,5
 357 491 357 491 368 502 c 128,-1,6
 379 513 379 513 384 534 c 1,7,-1
 517 534 l 1,8,9
 497 439 497 439 458.5 393 c 128,-1,10
 420 347 420 347 359 347 c 0,11,12
 331 347 331 347 311.5 355.5 c 128,-1,13
 292 364 292 364 273 378 c 0,14,15
 250 394 250 394 238 394 c 0,16,17
 210 394 210 394 201 351 c 1,18,-1
 67 351 l 1,19,20
 86 447 86 447 123 492.5 c 128,-1,21
 160 538 160 538 221 538 c 0,22,0
 248 538 248 538 267 530 c 128,-1,1
220 295 m 128,-1,24
 239 287 239 287 260 272 c 0,25,26
 283 256 283 256 295 256 c 0,27,28
 310 256 310 256 321 267 c 128,-1,29
 332 278 332 278 336 299 c 1,30,-1
 470 299 l 1,31,32
 450 203 450 203 411.5 157 c 128,-1,33
 373 111 373 111 311 111 c 0,34,35
 284 111 284 111 264.5 119.5 c 128,-1,36
 245 128 245 128 226 142 c 0,37,38
 203 158 203 158 191 158 c 0,39,40
 163 158 163 158 154 115 c 1,41,-1
 19 115 l 1,42,43
 39 211 39 211 76 257 c 128,-1,44
 113 303 113 303 174 303 c 0,45,23
 201 303 201 303 220 295 c 128,-1,24
EndSplineSet
EndChar

StartChar: notequal
Encoding: 8800 8800 689
Width: 517
Flags: W
LayerCount: 2
Fore
SplineSet
505 374 m 1,0,-1
 360 374 l 1,1,-1
 322 282 l 1,2,-1
 487 282 l 1,3,-1
 462 156 l 1,4,-1
 269 156 l 1,5,-1
 212 17 l 1,6,-1
 61 17 l 1,7,-1
 118 156 l 1,8,-1
 9 156 l 1,9,-1
 33 282 l 1,10,-1
 171 282 l 1,11,-1
 209 374 l 1,12,-1
 52 374 l 1,13,-1
 77 500 l 1,14,-1
 261 500 l 1,15,-1
 316 634 l 1,16,-1
 467 634 l 1,17,-1
 412 500 l 1,18,-1
 530 500 l 1,19,-1
 505 374 l 1,0,-1
EndSplineSet
EndChar

StartChar: lessequal
Encoding: 8804 8804 690
Width: 518
Flags: W
LayerCount: 2
Fore
SplineSet
563 656 m 1,0,-1
 535 513 l 1,1,-1
 187 397 l 1,2,-1
 484 274 l 1,3,-1
 459 148 l 1,4,-1
 43 325 l 1,5,-1
 73 479 l 1,6,-1
 563 656 l 1,0,-1
455 118 m 1,7,-1
 430 -8 l 1,8,-1
 -23 -8 l 1,9,-1
 2 118 l 1,10,-1
 455 118 l 1,7,-1
EndSplineSet
EndChar

StartChar: greaterequal
Encoding: 8805 8805 691
Width: 541
Flags: W
LayerCount: 2
Fore
SplineSet
10 157 m 1,0,-1
 38 300 l 1,1,-1
 386 416 l 1,2,-1
 89 539 l 1,3,-1
 114 664 l 1,4,-1
 530 488 l 1,5,-1
 500 334 l 1,6,-1
 10 157 l 1,0,-1
478 118 m 1,7,-1
 453 -8 l 1,8,-1
 0 -8 l 1,9,-1
 25 118 l 1,10,-1
 478 118 l 1,7,-1
EndSplineSet
EndChar

StartChar: filledbox
Encoding: 9632 9632 692
Width: 600
Flags: W
LayerCount: 2
Fore
SplineSet
114 459 m 1,0,-1
 502 459 l 1,1,-1
 486 71 l 1,2,-1
 98 71 l 1,3,-1
 114 459 l 1,0,-1
EndSplineSet
EndChar

StartChar: uni25A1
Encoding: 9633 9633 693
Width: 600
Flags: W
LayerCount: 2
Fore
SplineSet
144 459 m 1,0,-1
 532 459 l 1,1,-1
 456 71 l 1,2,-1
 68 71 l 1,3,-1
 144 459 l 1,0,-1
228 355 m 1,4,-1
 193 175 l 1,5,-1
 372 175 l 1,6,-1
 407 355 l 1,7,-1
 228 355 l 1,4,-1
EndSplineSet
EndChar

StartChar: triagup
Encoding: 9650 9650 694
Width: 600
Flags: W
LayerCount: 2
Fore
SplineSet
341 478 m 1,0,-1
 472 52 l 1,1,-1
 46 52 l 1,2,-1
 341 478 l 1,0,-1
EndSplineSet
EndChar

StartChar: uni25B3
Encoding: 9651 9651 695
Width: 600
Flags: W
LayerCount: 2
Fore
SplineSet
341 478 m 1,0,-1
 472 52 l 1,1,-1
 46 52 l 1,2,-1
 341 478 l 1,0,-1
305 290 m 1,3,-1
 198 136 l 1,4,-1
 352 136 l 1,5,-1
 305 290 l 1,3,-1
EndSplineSet
EndChar

StartChar: uni25B6
Encoding: 9654 9654 696
Width: 600
Flags: W
LayerCount: 2
Fore
SplineSet
541 266 m 1,0,-1
 74 53 l 1,1,-1
 156 479 l 1,2,-1
 541 266 l 1,0,-1
EndSplineSet
EndChar

StartChar: uni25B7
Encoding: 9655 9655 697
Width: 600
Flags: W
LayerCount: 2
Fore
SplineSet
541 266 m 1,0,-1
 74 53 l 1,1,-1
 156 479 l 1,2,-1
 541 266 l 1,0,-1
353 266 m 1,3,-1
 214 343 l 1,4,-1
 184 189 l 1,5,-1
 353 266 l 1,3,-1
EndSplineSet
EndChar

StartChar: triagdn
Encoding: 9660 9660 698
Width: 600
Flags: W
LayerCount: 2
Fore
SplineSet
259 52 m 1,0,-1
 128 478 l 1,1,-1
 554 478 l 1,2,-1
 259 52 l 1,0,-1
EndSplineSet
EndChar

StartChar: uni25BD
Encoding: 9661 9661 699
Width: 600
Flags: W
LayerCount: 2
Fore
SplineSet
259 52 m 1,0,-1
 128 478 l 1,1,-1
 554 478 l 1,2,-1
 259 52 l 1,0,-1
295 240 m 1,3,-1
 402 394 l 1,4,-1
 248 394 l 1,5,-1
 295 240 l 1,3,-1
EndSplineSet
EndChar

StartChar: uni25C0
Encoding: 9664 9664 700
Width: 600
Flags: W
LayerCount: 2
Fore
SplineSet
58 265 m 1,0,-1
 525 478 l 1,1,-1
 443 52 l 1,2,-1
 58 265 l 1,0,-1
EndSplineSet
EndChar

StartChar: uni25C1
Encoding: 9665 9665 701
Width: 600
Flags: W
LayerCount: 2
Fore
SplineSet
58 265 m 1,0,-1
 525 478 l 1,1,-1
 443 52 l 1,2,-1
 58 265 l 1,0,-1
246 265 m 1,3,-1
 385 188 l 1,4,-1
 415 342 l 1,5,-1
 246 265 l 1,3,-1
EndSplineSet
EndChar

StartChar: uni25C6
Encoding: 9670 9670 702
Width: 600
Flags: W
LayerCount: 2
Fore
SplineSet
353 540 m 1,0,-1
 574 265 l 1,1,-1
 246 -9 l 1,2,-1
 25 265 l 1,3,-1
 353 540 l 1,0,-1
EndSplineSet
EndChar

StartChar: uni25C7
Encoding: 9671 9671 703
Width: 600
Flags: W
LayerCount: 2
Fore
SplineSet
353 540 m 1,0,-1
 574 265 l 1,1,-1
 246 -9 l 1,2,-1
 25 265 l 1,3,-1
 353 540 l 1,0,-1
324 392 m 1,4,-1
 172 265 l 1,5,-1
 275 138 l 1,6,-1
 426 265 l 1,7,-1
 324 392 l 1,4,-1
EndSplineSet
EndChar

StartChar: lozenge
Encoding: 9674 9674 704
Width: 493
Flags: W
LayerCount: 2
Fore
SplineSet
322 668 m 1,0,-1
 486 330 l 1,1,-1
 193 -11 l 1,2,-1
 31 330 l 1,3,-1
 322 668 l 1,0,-1
290 467 m 1,4,-1
 166 330 l 1,5,-1
 226 192 l 1,6,-1
 350 330 l 1,7,-1
 290 467 l 1,4,-1
EndSplineSet
EndChar

StartChar: uniA78B
Encoding: 42891 42891 705
Width: 326
Flags: W
LayerCount: 2
Fore
SplineSet
142 701 m 1,0,-1
 350 701 l 1,1,-1
 244 297 l 1,2,-1
 62 297 l 1,3,-1
 142 701 l 1,0,-1
EndSplineSet
EndChar

StartChar: uniA78C
Encoding: 42892 42892 706
Width: 319
Flags: W
LayerCount: 2
Fore
SplineSet
140 693 m 1,0,-1
 341 693 l 1,1,-1
 237 297 l 1,2,-1
 62 297 l 1,3,-1
 140 693 l 1,0,-1
EndSplineSet
Substitution2: "<3,3> Small Caps in Latin lookup 11 subtable" uniA78C.sc
EndChar

StartChar: fl
Encoding: 64258 64258 708
Width: 740
Flags: W
LayerCount: 2
Fore
SplineSet
323 387 m 1,0,-1
 245 0 l 1,1,-1
 44 0 l 1,2,-1
 122 387 l 1,3,-1
 47 387 l 1,4,-1
 73 516 l 1,5,-1
 147 516 l 1,6,-1
 159 574 l 2,7,8
 176 657 176 657 239 704 c 128,-1,9
 302 751 302 751 397 751 c 0,10,11
 455 751 455 751 505 735 c 1,12,-1
 475 582 l 1,13,14
 460 589 460 589 451.5 591.5 c 128,-1,15
 443 594 443 594 431 594 c 0,16,17
 402 594 402 594 379 576.5 c 128,-1,18
 356 559 356 559 352 533 c 2,19,-1
 349 516 l 1,20,-1
 460 516 l 1,21,-1
 435 387 l 1,22,-1
 323 387 l 1,0,-1
565 742 m 1,23,-1
 767 742 l 1,24,-1
 619 0 l 1,25,-1
 417 0 l 1,26,-1
 565 742 l 1,23,-1
EndSplineSet
Ligature2: "<1,2> Common Ligatures in Latin lookup 13 subtable" f l
EndChar

StartChar: Adieresis.alt
Encoding: 65540 -1 711
Width: 786
Flags: W
LayerCount: 2
Fore
SplineSet
147.5 589 m 128,-1,1
 133 604 133 604 133 627 c 0,2,3
 133 659 133 659 156 681.5 c 128,-1,4
 179 704 179 704 211 704 c 0,5,6
 236 704 236 704 251 689 c 128,-1,7
 266 674 266 674 266 650 c 0,8,9
 266 619 266 619 242.5 596.5 c 128,-1,10
 219 574 219 574 187 574 c 0,11,0
 162 574 162 574 147.5 589 c 128,-1,1
637 589 m 128,-1,13
 622 604 622 604 622 627 c 0,14,15
 622 659 622 659 645.5 681.5 c 128,-1,16
 669 704 669 704 702 704 c 0,17,18
 727 704 727 704 741.5 689 c 128,-1,19
 756 674 756 674 756 650 c 0,20,21
 756 619 756 619 732 596.5 c 128,-1,22
 708 574 708 574 676 574 c 0,23,12
 652 574 652 574 637 589 c 128,-1,13
352 701 m 1,24,-1
 566 701 l 1,25,-1
 739 0 l 1,26,-1
 516 0 l 1,27,-1
 494 112 l 1,28,-1
 211 112 l 1,29,-1
 150 0 l 1,30,-1
 -62 0 l 1,31,-1
 352 701 l 1,24,-1
294 264 m 1,32,-1
 464 264 l 1,33,-1
 419 495 l 1,34,-1
 294 264 l 1,32,-1
EndSplineSet
EndChar

StartChar: Udieresis.alt
Encoding: 65541 -1 712
Width: 756
Flags: W
LayerCount: 2
Fore
SplineSet
502.5 688 m 128,-1,1
 517 673 517 673 517 649 c 0,2,3
 517 618 517 618 493.5 595.5 c 128,-1,4
 470 573 470 573 438 573 c 0,5,6
 414 573 414 573 399 588 c 128,-1,7
 384 603 384 603 384 626 c 0,8,9
 384 658 384 658 407.5 680.5 c 128,-1,10
 431 703 431 703 463 703 c 0,11,0
 488 703 488 703 502.5 688 c 128,-1,1
713 296 m 2,12,13
 695 203 695 203 643 134.5 c 128,-1,14
 591 66 591 66 512 28.5 c 128,-1,15
 433 -9 433 -9 334 -9 c 0,16,17
 247 -9 247 -9 181.5 20 c 128,-1,18
 116 49 116 49 81 103 c 128,-1,19
 46 157 46 157 46 230 c 0,20,21
 46 264 46 264 53 296 c 2,22,-1
 134 701 l 1,23,-1
 342 701 l 1,24,-1
 261 296 l 2,25,26
 258 280 258 280 258 265 c 0,27,28
 258 218 258 218 285.5 191.5 c 128,-1,29
 313 165 313 165 359 165 c 0,30,31
 412 165 412 165 452 200.5 c 128,-1,32
 492 236 492 236 504 296 c 2,33,-1
 586 701 l 1,34,-1
 794 701 l 1,35,-1
 713 296 l 2,12,13
468.5 523 m 128,-1,37
 483 508 483 508 483 484 c 0,38,39
 483 453 483 453 459 430.5 c 128,-1,40
 435 408 435 408 403 408 c 0,41,42
 379 408 379 408 364 423 c 128,-1,43
 349 438 349 438 349 461 c 0,44,45
 349 493 349 493 372.5 515.5 c 128,-1,46
 396 538 396 538 429 538 c 0,47,36
 454 538 454 538 468.5 523 c 128,-1,37
EndSplineSet
EndChar

StartChar: Udieresis.ss01.alt
Encoding: 65542 -1 713
Width: 763
Flags: W
LayerCount: 2
Fore
SplineSet
502.5 688 m 128,-1,1
 517 673 517 673 517 649 c 0,2,3
 517 618 517 618 493.5 595.5 c 128,-1,4
 470 573 470 573 438 573 c 0,5,6
 414 573 414 573 399 588 c 128,-1,7
 384 603 384 603 384 626 c 0,8,9
 384 658 384 658 407.5 680.5 c 128,-1,10
 431 703 431 703 463 703 c 0,11,0
 488 703 488 703 502.5 688 c 128,-1,1
87 39 m 128,-1,13
 36 90 36 90 36 178 c 0,14,15
 36 212 36 212 43 246 c 2,16,-1
 134 701 l 1,17,-1
 345 701 l 1,18,-1
 264 295 l 2,19,20
 260 271 260 271 260 262 c 0,21,22
 260 222 260 222 283.5 198.5 c 128,-1,23
 307 175 307 175 348 175 c 0,24,25
 405 175 405 175 447.5 211.5 c 128,-1,26
 490 248 490 248 503 307 c 2,27,-1
 582 701 l 1,28,-1
 790 701 l 1,29,-1
 650 0 l 1,30,-1
 442 0 l 1,31,-1
 463 102 l 1,32,33
 417 47 417 47 357 17.5 c 128,-1,34
 297 -12 297 -12 228 -12 c 0,35,12
 138 -12 138 -12 87 39 c 128,-1,13
468.5 523 m 128,-1,37
 483 508 483 508 483 484 c 0,38,39
 483 453 483 453 459 430.5 c 128,-1,40
 435 408 435 408 403 408 c 0,41,42
 379 408 379 408 364 423 c 128,-1,43
 349 438 349 438 349 461 c 0,44,45
 349 493 349 493 372.5 515.5 c 128,-1,46
 396 538 396 538 429 538 c 0,47,36
 454 538 454 538 468.5 523 c 128,-1,37
EndSplineSet
EndChar

StartChar: A.ss01
Encoding: 65543 -1 714
Width: 754
Flags: W
LayerCount: 2
Fore
SplineSet
663.5 649.5 m 128,-1,1
 737 586 737 586 737 476 c 0,2,3
 737 450 737 450 730 408 c 2,4,-1
 651 0 l 1,5,-1
 443 0 l 1,6,-1
 473 158 l 1,7,-1
 235 158 l 1,8,-1
 205 0 l 1,9,-1
 -3 0 l 1,10,-1
 75 408 l 2,11,12
 93 500 93 500 146 569 c 128,-1,13
 199 638 199 638 280 675.5 c 128,-1,14
 361 713 361 713 459 713 c 0,15,0
 590 713 590 713 663.5 649.5 c 128,-1,1
525 443 m 0,17,18
 525 488 525 488 499 514 c 128,-1,19
 473 540 473 540 427 540 c 0,20,21
 373 540 373 540 334 504 c 128,-1,22
 295 468 295 468 283 408 c 2,23,-1
 264 310 l 1,24,-1
 502 310 l 1,25,-1
 521 408 l 2,26,16
 525 432 525 432 525 443 c 0,17,18
EndSplineSet
EndChar

StartChar: Aogonek.ss01
Encoding: 65564 -1 735
Width: 754
Flags: W
LayerCount: 2
Fore
SplineSet
663.5 649.5 m 128,-1,1
 737 586 737 586 737 476 c 0,2,3
 737 450 737 450 730 408 c 2,4,-1
 651 0 l 1,5,-1
 600 0 l 1,6,7
 555 -28 555 -28 531.5 -52 c 128,-1,8
 508 -76 508 -76 508 -101 c 0,9,10
 508 -120 508 -120 525 -120 c 0,11,12
 536 -120 536 -120 554 -112 c 1,13,-1
 563 -215 l 1,14,15
 505 -238 505 -238 455 -238 c 0,16,17
 408 -238 408 -238 384.5 -214 c 128,-1,18
 361 -190 361 -190 361 -150 c 0,19,20
 361 -72 361 -72 443 1 c 1,21,-1
 473 158 l 1,22,-1
 235 158 l 1,23,-1
 205 0 l 1,24,-1
 -3 0 l 1,25,-1
 75 408 l 2,26,27
 93 500 93 500 146 569 c 128,-1,28
 199 638 199 638 280 675.5 c 128,-1,29
 361 713 361 713 459 713 c 0,30,0
 590 713 590 713 663.5 649.5 c 128,-1,1
502 310 m 1,31,-1
 521 408 l 2,32,33
 525 432 525 432 525 443 c 0,34,35
 525 488 525 488 499 514 c 128,-1,36
 473 540 473 540 427 540 c 0,37,38
 373 540 373 540 334 504 c 128,-1,39
 295 468 295 468 283 408 c 2,40,-1
 264 310 l 1,41,-1
 502 310 l 1,31,-1
EndSplineSet
EndChar

StartChar: E.ss01
Encoding: 65570 -1 741
Width: 674
Flags: W
LayerCount: 2
Fore
SplineSet
595 702 m 128,-1,1
 665 687 665 687 706 663 c 1,2,-1
 611 511 l 1,3,4
 572 529 572 529 525.5 539.5 c 128,-1,5
 479 550 479 550 434 550 c 0,6,7
 378 550 378 550 344 530.5 c 128,-1,8
 310 511 310 511 310 481 c 0,9,10
 310 459 310 459 330.5 447 c 128,-1,11
 351 435 351 435 383 435 c 2,12,-1
 567 435 l 1,13,-1
 537 281 l 1,14,-1
 353 281 l 2,15,16
 301 281 301 281 268 263 c 128,-1,17
 235 245 235 245 235 213 c 0,18,19
 235 185 235 185 264 169 c 128,-1,20
 293 153 293 153 341 153 c 0,21,22
 399 153 399 153 461 170.5 c 128,-1,23
 523 188 523 188 568 214 c 1,24,-1
 617 63 l 1,25,26
 553 28 553 28 464.5 7 c 128,-1,27
 376 -14 376 -14 288 -14 c 0,28,29
 212 -14 212 -14 149 7 c 128,-1,30
 86 28 86 28 49 67.5 c 128,-1,31
 12 107 12 107 12 160 c 0,32,33
 12 178 12 178 14 187 c 0,34,35
 24 252 24 252 73 300 c 128,-1,36
 122 348 122 348 198 370 c 1,37,38
 160 388 160 388 139.5 421.5 c 128,-1,39
 119 455 119 455 119 497 c 0,40,41
 119 515 119 515 121 525 c 0,42,43
 137 614 137 614 225.5 665.5 c 128,-1,44
 314 717 314 717 450 717 c 0,45,0
 525 717 525 717 595 702 c 128,-1,1
EndSplineSet
EndChar

StartChar: uni1E1C.ss01
Encoding: 65574 -1 745
Width: 674
Flags: W
LayerCount: 2
Fore
SplineSet
324 786 m 128,-1,1
 285 822 285 822 285 884 c 0,2,3
 285 901 285 901 288 917 c 1,4,-1
 411 917 l 1,5,6
 408 893 408 893 419.5 878 c 128,-1,7
 431 863 431 863 452 863 c 0,8,9
 474 863 474 863 491 878 c 128,-1,10
 508 893 508 893 515 917 c 1,11,-1
 638 917 l 1,12,13
 619 841 619 841 563 795.5 c 128,-1,14
 507 750 507 750 430 750 c 0,15,0
 363 750 363 750 324 786 c 128,-1,1
499.5 16 m 128,-1,17
 432 -3 432 -3 359 -11 c 1,18,-1
 334 -53 l 1,19,20
 370 -62 370 -62 387 -81.5 c 128,-1,21
 404 -101 404 -101 404 -126 c 0,22,23
 404 -182 404 -182 359 -210.5 c 128,-1,24
 314 -239 314 -239 249 -239 c 0,25,26
 190 -239 190 -239 137 -218 c 1,27,-1
 183 -129 l 1,28,29
 206 -139 206 -139 232 -139 c 0,30,31
 252 -139 252 -139 265.5 -131.5 c 128,-1,32
 279 -124 279 -124 279 -114 c 0,33,34
 279 -103 279 -103 264 -97 c 128,-1,35
 249 -91 249 -91 227 -91 c 2,36,-1
 205 -91 l 1,37,-1
 245 -12 l 1,38,39
 143 -3 143 -3 77.5 43 c 128,-1,40
 12 89 12 89 12 160 c 0,41,42
 12 178 12 178 14 187 c 0,43,44
 24 252 24 252 73 300 c 128,-1,45
 122 348 122 348 198 370 c 1,46,47
 160 388 160 388 139.5 421.5 c 128,-1,48
 119 455 119 455 119 497 c 0,49,50
 119 515 119 515 121 525 c 0,51,52
 137 614 137 614 225.5 665.5 c 128,-1,53
 314 717 314 717 450 717 c 0,54,55
 525 717 525 717 595 702 c 128,-1,56
 665 687 665 687 706 663 c 1,57,-1
 611 511 l 1,58,59
 572 529 572 529 525.5 539.5 c 128,-1,60
 479 550 479 550 434 550 c 0,61,62
 378 550 378 550 344 530.5 c 128,-1,63
 310 511 310 511 310 481 c 0,64,65
 310 459 310 459 330.5 447 c 128,-1,66
 351 435 351 435 383 435 c 2,67,-1
 567 435 l 1,68,-1
 537 281 l 1,69,-1
 353 281 l 2,70,71
 301 281 301 281 268 263 c 128,-1,72
 235 245 235 245 235 213 c 0,73,74
 235 185 235 185 264 169 c 128,-1,75
 293 153 293 153 341 153 c 0,76,77
 399 153 399 153 461 170.5 c 128,-1,78
 523 188 523 188 568 214 c 1,79,-1
 617 63 l 1,80,16
 567 35 567 35 499.5 16 c 128,-1,17
EndSplineSet
EndChar

StartChar: Eogonek.ss01
Encoding: 65591 -1 762
Width: 674
Flags: W
LayerCount: 2
Fore
SplineSet
461 170.5 m 128,-1,1
 523 188 523 188 568 214 c 1,2,-1
 617 63 l 1,3,4
 564 22 564 22 530 -23.5 c 128,-1,5
 496 -69 496 -69 496 -100 c 0,6,7
 496 -120 496 -120 513 -120 c 0,8,9
 525 -120 525 -120 541 -112 c 1,10,-1
 550 -215 l 1,11,12
 493 -238 493 -238 446 -238 c 0,13,14
 401 -238 401 -238 374.5 -216.5 c 128,-1,15
 348 -195 348 -195 348 -152 c 0,16,17
 348 -110 348 -110 369.5 -74 c 128,-1,18
 391 -38 391 -38 438 1 c 1,19,20
 365 -14 365 -14 288 -14 c 0,21,22
 212 -14 212 -14 149 7 c 128,-1,23
 86 28 86 28 49 67.5 c 128,-1,24
 12 107 12 107 12 160 c 0,25,26
 12 178 12 178 14 187 c 0,27,28
 24 252 24 252 73 300 c 128,-1,29
 122 348 122 348 198 370 c 1,30,31
 160 388 160 388 139.5 421.5 c 128,-1,32
 119 455 119 455 119 497 c 0,33,34
 119 515 119 515 121 525 c 0,35,36
 137 614 137 614 225.5 665.5 c 128,-1,37
 314 717 314 717 450 717 c 0,38,39
 525 717 525 717 595 702 c 128,-1,40
 665 687 665 687 706 663 c 1,41,-1
 611 511 l 1,42,43
 572 529 572 529 525.5 539.5 c 128,-1,44
 479 550 479 550 434 550 c 0,45,46
 378 550 378 550 344 530.5 c 128,-1,47
 310 511 310 511 310 481 c 0,48,49
 310 459 310 459 330.5 447 c 128,-1,50
 351 435 351 435 383 435 c 2,51,-1
 567 435 l 1,52,-1
 537 281 l 1,53,-1
 353 281 l 2,54,55
 301 281 301 281 268 263 c 128,-1,56
 235 245 235 245 235 213 c 0,57,58
 235 185 235 185 264 169 c 128,-1,59
 293 153 293 153 341 153 c 0,60,0
 399 153 399 153 461 170.5 c 128,-1,1
EndSplineSet
EndChar

StartChar: F.ss01
Encoding: 65593 -1 764
Width: 565
Flags: W
LayerCount: 2
Fore
SplineSet
331.5 514 m 128,-1,1
 300 488 300 488 292 451 c 2,2,-1
 282 399 l 1,3,-1
 538 399 l 1,4,-1
 506 239 l 1,5,-1
 250 239 l 1,6,-1
 202 0 l 1,7,-1
 -7 0 l 1,8,-1
 88 471 l 2,9,10
 110 584 110 584 192.5 649 c 128,-1,11
 275 714 275 714 395 714 c 0,12,13
 468 714 468 714 536.5 699.5 c 128,-1,14
 605 685 605 685 651 663 c 1,15,-1
 580 498 l 1,16,17
 540 517 540 517 490.5 528.5 c 128,-1,18
 441 540 441 540 404 540 c 0,19,0
 363 540 363 540 331.5 514 c 128,-1,1
EndSplineSet
EndChar

StartChar: G.ss01
Encoding: 65594 -1 765
Width: 751
Flags: W
LayerCount: 2
Fore
SplineSet
556 367 m 1,0,-1
 735 367 l 1,1,-1
 663 0 l 1,2,-1
 511 0 l 1,3,-1
 518 36 l 1,4,5
 436 -14 436 -14 356 -14 c 0,6,7
 263 -14 263 -14 190 28.5 c 128,-1,8
 117 71 117 71 76.5 146.5 c 128,-1,9
 36 222 36 222 36 316 c 0,10,11
 36 428 36 428 93 519 c 128,-1,12
 150 610 150 610 247.5 662 c 128,-1,13
 345 714 345 714 463 714 c 0,14,15
 544 714 544 714 622 685 c 128,-1,16
 700 656 700 656 751 606 c 1,17,-1
 619 464 l 1,18,19
 587 499 587 499 540 520 c 128,-1,20
 493 541 493 541 447 541 c 0,21,22
 394 541 394 541 349 513.5 c 128,-1,23
 304 486 304 486 277 437.5 c 128,-1,24
 250 389 250 389 250 331 c 0,25,26
 250 282 250 282 269 243 c 128,-1,27
 288 204 288 204 321.5 181.5 c 128,-1,28
 355 159 355 159 398 159 c 0,29,30
 431 159 431 159 464.5 173 c 128,-1,31
 498 187 498 187 526 212 c 1,32,-1
 556 367 l 1,0,-1
EndSplineSet
EndChar

StartChar: I.ss01
Encoding: 65601 -1 772
Width: 516
Flags: W
LayerCount: 2
Fore
SplineSet
528 541 m 1,0,-1
 416 541 l 1,1,-1
 340 160 l 1,2,-1
 451 160 l 1,3,-1
 420 0 l 1,4,-1
 -11 0 l 1,5,-1
 20 160 l 1,6,-1
 132 160 l 1,7,-1
 208 541 l 1,8,-1
 97 541 l 1,9,-1
 129 701 l 1,10,-1
 560 701 l 1,11,-1
 528 541 l 1,0,-1
EndSplineSet
EndChar

StartChar: Iogonek.ss01
Encoding: 65616 -1 787
Width: 516
Flags: W
LayerCount: 2
Fore
SplineSet
416 541 m 1,0,-1
 340 160 l 1,1,-1
 451 160 l 1,2,-1
 420 0 l 1,3,-1
 254 0 l 1,4,5
 209 -28 209 -28 185.5 -52 c 128,-1,6
 162 -76 162 -76 162 -101 c 0,7,8
 162 -120 162 -120 179 -120 c 0,9,10
 190 -120 190 -120 208 -112 c 1,11,-1
 217 -215 l 1,12,13
 159 -238 159 -238 109 -238 c 0,14,15
 62 -238 62 -238 38.5 -214 c 128,-1,16
 15 -190 15 -190 15 -150 c 0,17,18
 15 -74 15 -74 96 0 c 1,19,-1
 -11 0 l 1,20,-1
 20 160 l 1,21,-1
 132 160 l 1,22,-1
 208 541 l 1,23,-1
 97 541 l 1,24,-1
 129 701 l 1,25,-1
 560 701 l 1,26,-1
 528 541 l 1,27,-1
 416 541 l 1,0,-1
EndSplineSet
EndChar

StartChar: J.ss01
Encoding: 65618 -1 789
Width: 553
Flags: W
LayerCount: 2
Fore
SplineSet
590 701 m 1,0,-1
 475 124 l 2,1,2
 452 11 452 11 376 -49 c 128,-1,3
 300 -109 300 -109 186 -109 c 0,4,5
 31 -109 31 -109 -58 14 c 1,6,-1
 55 140 l 1,7,8
 84 103 84 103 118.5 84.5 c 128,-1,9
 153 66 153 66 180 66 c 0,10,11
 213 66 213 66 238.5 88 c 128,-1,12
 264 110 264 110 271 145 c 2,13,-1
 349 535 l 1,14,-1
 110 535 l 1,15,-1
 142 701 l 1,16,-1
 590 701 l 1,0,-1
EndSplineSet
EndChar

StartChar: M.ss01
Encoding: 65622 -1 793
Width: 1167
Flags: W
LayerCount: 2
Fore
SplineSet
1115.5 662.5 m 128,-1,1
 1164 612 1164 612 1164 526 c 0,2,3
 1164 495 1164 495 1156 455 c 2,4,-1
 1065 0 l 1,5,-1
 854 0 l 1,6,-1
 935 405 l 2,7,8
 939 422 939 422 939 441 c 0,9,10
 939 481 939 481 918.5 503.5 c 128,-1,11
 898 526 898 526 859 526 c 0,12,13
 808 526 808 526 768.5 488 c 128,-1,14
 729 450 729 450 717 391 c 2,15,-1
 639 0 l 1,16,-1
 428 0 l 1,17,-1
 509 405 l 2,18,19
 513 431 513 431 513 440 c 0,20,21
 513 480 513 480 492 503 c 128,-1,22
 471 526 471 526 432 526 c 0,23,24
 382 526 382 526 342.5 489 c 128,-1,25
 303 452 303 452 291 394 c 2,26,-1
 212 0 l 1,27,-1
 4 0 l 1,28,-1
 144 701 l 1,29,-1
 352 701 l 1,30,-1
 332 602 l 1,31,32
 376 655 376 655 433.5 684 c 128,-1,33
 491 713 491 713 556 713 c 0,34,35
 630 713 630 713 676 674.5 c 128,-1,36
 722 636 722 636 734 567 c 1,37,38
 778 636 778 636 842 674.5 c 128,-1,39
 906 713 906 713 982 713 c 0,40,0
 1067 713 1067 713 1115.5 662.5 c 128,-1,1
EndSplineSet
EndChar

StartChar: N.ss01
Encoding: 65624 -1 795
Width: 763
Flags: W
LayerCount: 2
Fore
SplineSet
707.5 662 m 128,-1,1
 759 611 759 611 759 522 c 0,2,3
 759 489 759 489 752 455 c 2,4,-1
 660 0 l 1,5,-1
 450 0 l 1,6,-1
 530 405 l 2,7,8
 534 429 534 429 534 438 c 0,9,10
 534 479 534 479 511 502.5 c 128,-1,11
 488 526 488 526 447 526 c 0,12,13
 390 526 390 526 347 489.5 c 128,-1,14
 304 453 304 453 291 394 c 2,15,-1
 212 0 l 1,16,-1
 4 0 l 1,17,-1
 144 701 l 1,18,-1
 352 701 l 1,19,-1
 332 599 l 1,20,21
 378 654 378 654 438 683.5 c 128,-1,22
 498 713 498 713 566 713 c 0,23,0
 656 713 656 713 707.5 662 c 128,-1,1
EndSplineSet
EndChar

StartChar: Eng.ss01
Encoding: 65631 -1 802
Width: 763
Flags: W
LayerCount: 2
Fore
SplineSet
704.5 650 m 128,-1,1
 756 599 756 599 756 510 c 0,2,3
 756 477 756 477 749 443 c 2,4,-1
 660 0 l 1,5,6
 634 -104 634 -104 554.5 -162 c 128,-1,7
 475 -220 475 -220 362 -220 c 0,8,9
 265 -220 265 -220 197 -172 c 1,10,-1
 296 -16 l 1,11,12
 345 -45 345 -45 385 -45 c 0,13,14
 411 -45 411 -45 428.5 -30 c 128,-1,15
 446 -15 446 -15 452 13 c 2,16,-1
 528 393 l 2,17,18
 532 417 532 417 532 426 c 0,19,20
 532 467 532 467 508.5 490.5 c 128,-1,21
 485 514 485 514 444 514 c 0,22,23
 387 514 387 514 344.5 477.5 c 128,-1,24
 302 441 302 441 289 382 c 2,25,-1
 212 0 l 1,26,-1
 4 0 l 1,27,-1
 144 701 l 1,28,-1
 352 701 l 1,29,-1
 329 587 l 1,30,31
 375 642 375 642 435 671.5 c 128,-1,32
 495 701 495 701 563 701 c 0,33,0
 653 701 653 701 704.5 650 c 128,-1,1
EndSplineSet
EndChar

StartChar: Q.ss01
Encoding: 65635 -1 806
Width: 809
Flags: W
LayerCount: 2
Fore
SplineSet
759 199.5 m 128,-1,1
 713 115 713 115 632 60 c 128,-1,2
 551 5 551 5 450 -9 c 1,3,-1
 423 -148 l 1,4,-1
 233 -148 l 1,5,-1
 263 4 l 1,6,7
 159 37 159 37 98 121.5 c 128,-1,8
 37 206 37 206 37 319 c 0,9,10
 37 430 37 430 93 520.5 c 128,-1,11
 149 611 149 611 245.5 662.5 c 128,-1,12
 342 714 342 714 458 714 c 0,13,14
 559 714 559 714 638 671.5 c 128,-1,15
 717 629 717 629 761 554 c 128,-1,16
 805 479 805 479 805 384 c 0,17,0
 805 284 805 284 759 199.5 c 128,-1,1
497 187 m 128,-1,19
 540 215 540 215 565.5 263.5 c 128,-1,20
 591 312 591 312 591 370 c 0,21,22
 591 418 591 418 572 457 c 128,-1,23
 553 496 553 496 519 518.5 c 128,-1,24
 485 541 485 541 443 541 c 0,25,26
 394 541 394 541 349.5 513.5 c 128,-1,27
 305 486 305 486 278 438 c 128,-1,28
 251 390 251 390 251 333 c 0,29,30
 251 284 251 284 271.5 244.5 c 128,-1,31
 292 205 292 205 327 182 c 128,-1,32
 362 159 362 159 404 159 c 0,33,18
 454 159 454 159 497 187 c 128,-1,19
EndSplineSet
EndChar

StartChar: uni018F.ss01
Encoding: 65636 -1 807
Width: 758
Flags: W
LayerCount: 2
Fore
SplineSet
591.5 672 m 128,-1,1
 669 630 669 630 712 555.5 c 128,-1,2
 755 481 755 481 755 387 c 0,3,4
 755 276 755 276 701 184.5 c 128,-1,5
 647 93 647 93 554 39.5 c 128,-1,6
 461 -14 461 -14 351 -14 c 0,7,8
 250 -14 250 -14 179 25 c 128,-1,9
 108 64 108 64 69 126.5 c 128,-1,10
 30 189 30 189 18 264 c 1,11,-1
 524 460 l 1,12,13
 507 498 507 498 475 519.5 c 128,-1,14
 443 541 443 541 403 541 c 0,15,16
 357 541 357 541 316.5 517 c 128,-1,17
 276 493 276 493 249 452 c 1,18,-1
 119 598 l 1,19,20
 176 654 176 654 251.5 684 c 128,-1,21
 327 714 327 714 415 714 c 0,22,0
 514 714 514 714 591.5 672 c 128,-1,1
485 210.5 m 128,-1,24
 531 262 531 262 540 339 c 1,25,-1
 251 224 l 1,26,27
 268 195 268 195 298.5 177 c 128,-1,28
 329 159 329 159 368 159 c 0,29,23
 439 159 439 159 485 210.5 c 128,-1,24
EndSplineSet
EndChar

StartChar: T.ss01
Encoding: 65637 -1 808
Width: 700
Flags: W
LayerCount: 2
Fore
SplineSet
664 477 m 1,0,1
 589 518 589 518 501 532 c 1,2,-1
 395 0 l 1,3,-1
 187 0 l 1,4,-1
 294 533 l 1,5,6
 196 517 196 517 109 477 c 1,7,-1
 86 632 l 1,8,9
 166 672 166 672 254.5 693 c 128,-1,10
 343 714 343 714 433 714 c 0,11,12
 522 714 522 714 603 693 c 128,-1,13
 684 672 684 672 749 631 c 1,14,-1
 664 477 l 1,0,1
EndSplineSet
EndChar

StartChar: Tbar.ss01
Encoding: 65638 -1 809
Width: 700
Flags: W
LayerCount: 2
Fore
SplineSet
501 532 m 1,1,-1
 467 359 l 1,2,-1
 582 359 l 1,3,-1
 561 251 l 1,4,-1
 445 251 l 1,5,-1
 395 0 l 1,6,-1
 187 0 l 1,7,-1
 237 251 l 1,8,-1
 114 251 l 1,9,-1
 135 359 l 1,10,-1
 259 359 l 1,11,-1
 294 533 l 1,12,13
 196 517 196 517 109 477 c 1,14,-1
 86 632 l 1,15,16
 166 672 166 672 254.5 693 c 128,-1,17
 343 714 343 714 433 714 c 0,18,19
 522 714 522 714 603 693 c 128,-1,20
 684 672 684 672 749 631 c 1,21,-1
 664 477 l 1,22,0
 589 518 589 518 501 532 c 1,1,-1
EndSplineSet
EndChar

StartChar: uni0162.ss01
Encoding: 65640 -1 811
Width: 700
Flags: W
LayerCount: 2
Fore
SplineSet
664 477 m 1,0,1
 589 518 589 518 501 532 c 1,2,-1
 395 0 l 1,3,-1
 350 0 l 1,4,-1
 319 -53 l 1,5,6
 355 -62 355 -62 372 -81.5 c 128,-1,7
 389 -101 389 -101 389 -126 c 0,8,9
 389 -182 389 -182 344 -210.5 c 128,-1,10
 299 -239 299 -239 234 -239 c 0,11,12
 175 -239 175 -239 122 -218 c 1,13,-1
 168 -129 l 1,14,15
 191 -139 191 -139 217 -139 c 0,16,17
 237 -139 237 -139 250.5 -131.5 c 128,-1,18
 264 -124 264 -124 264 -114 c 0,19,20
 264 -103 264 -103 249 -97 c 128,-1,21
 234 -91 234 -91 212 -91 c 2,22,-1
 190 -91 l 1,23,-1
 236 0 l 1,24,-1
 187 0 l 1,25,-1
 294 533 l 1,26,27
 196 517 196 517 109 477 c 1,28,-1
 86 632 l 1,29,30
 166 672 166 672 254.5 693 c 128,-1,31
 343 714 343 714 433 714 c 0,32,33
 522 714 522 714 603 693 c 128,-1,34
 684 672 684 672 749 631 c 1,35,-1
 664 477 l 1,0,1
EndSplineSet
EndChar

